font.ufo
<glyph name="exclam" format="1">
  <advance width="264"/>
  <unicode hex="0021"/>
  <outline>
    <contour>
      <point x="132" y="-12" type="curve" smooth="yes"/>
      <point x="158" y="-12"/>
      <point x="176" y="9"/>
      <point x="176" y="31" type="curve" smooth="yes"/>
      <point x="176" y="55"/>
      <point x="158" y="75"/>
      <point x="132" y="75" type="curve" smooth="yes"/>
      <point x="107" y="75"/>
      <point x="88" y="55"/>
      <point x="88" y="31" type="curve" smooth="yes"/>
      <point x="88" y="9"/>
      <point x="107" y="-12"/>
    </contour>
    <contour>
      <point x="132" y="692" type="curve" smooth="yes"/>
      <point x="111" y="692"/>
      <point x="99" y="679"/>
      <point x="99" y="651" type="curve" smooth="yes"/>
      <point x="99" y="602"/>
      <point x="106" y="519"/>
      <point x="113" y="388" type="curve" smooth="yes"/>
      <point x="120" y="189" type="line"/>
      <point x="144" y="189" type="line"/>
      <point x="152" y="388" type="line" smooth="yes"/>
      <point x="159" y="519"/>
      <point x="166" y="602"/>
      <point x="166" y="651" type="curve" smooth="yes"/>
      <point x="166" y="679"/>
      <point x="153" y="692"/>
    </contour>
  </outline>
</glyph>
<glyph name="ampersand" format="1">
  <advance width="715"/>
  <unicode hex="0026"/>
  <outline>
    <contour>
      <point x="314" y="251" type="curve" smooth="yes"/>
      <point x="378" y="179"/>
      <point x="439" y="114"/>
      <point x="515" y="27" type="curve" smooth="yes"/>
      <point x="539" y="1"/>
      <point x="566" y="-7"/>
      <point x="611" y="-7" type="curve" smooth="yes"/>
      <point x="632" y="-7"/>
      <point x="651" y="-5"/>
      <point x="671" y="0" type="curve"/>
      <point x="673" y="26" type="line"/>
      <point x="552" y="40" type="line"/>
      <point x="593" y="20" type="line"/>
      <point x="479" y="142"/>
      <point x="412" y="212"/>
      <point x="340" y="291" type="curve" smooth="yes"/>
      <point x="290" y="345"/>
      <point x="257" y="380"/>
      <point x="210" y="437" type="curve" smooth="yes"/>
      <point x="167" y="488"/>
      <point x="158" y="519"/>
      <point x="158" y="558" type="curve" smooth="yes"/>
      <point x="158" y="621"/>
      <point x="208" y="663"/>
      <point x="266" y="663" type="curve" smooth="yes"/>
      <point x="325" y="663"/>
      <point x="364" y="623"/>
      <point x="364" y="563" type="curve" smooth="yes"/>
      <point x="364" y="492"/>
      <point x="314" y="452"/>
      <point x="231" y="396" type="curve"/>
      <point x="241" y="377" type="line"/>
      <point x="343" y="432"/>
      <point x="406" y="485"/>
      <point x="406" y="563" type="curve" smooth="yes"/>
      <point x="406" y="634"/>
      <point x="358" y="689"/>
      <point x="266" y="689" type="curve" smooth="yes"/>
      <point x="182" y="689"/>
      <point x="116" y="636"/>
      <point x="116" y="552" type="curve" smooth="yes"/>
      <point x="116" y="502"/>
      <point x="136" y="455"/>
      <point x="181" y="404" type="curve" smooth="yes"/>
      <point x="239" y="338"/>
      <point x="265" y="309"/>
    </contour>
    <contour>
      <point x="460" y="124" type="curve"/>
      <point x="480" y="109" type="line"/>
      <point x="550" y="203"/>
      <point x="581" y="283"/>
      <point x="603" y="411" type="curve"/>
      <point x="568" y="411" type="line"/>
      <point x="551" y="287"/>
      <point x="523" y="214"/>
    </contour>
    <contour>
      <point x="231" y="373" type="curve"/>
      <point x="218" y="392" type="line"/>
      <point x="98" y="334"/>
      <point x="42" y="264"/>
      <point x="42" y="170" type="curve" smooth="yes"/>
      <point x="42" y="70"/>
      <point x="123" y="-15"/>
      <point x="248" y="-15" type="curve" smooth="yes"/>
      <point x="357" y="-15"/>
      <point x="427" y="39"/>
      <point x="476" y="105" type="curve"/>
      <point x="457" y="122" type="line"/>
      <point x="407" y="59"/>
      <point x="341" y="24"/>
      <point x="258" y="24" type="curve" smooth="yes"/>
      <point x="155" y="24"/>
      <point x="93" y="105"/>
      <point x="93" y="184" type="curve" smooth="yes"/>
      <point x="93" y="254"/>
      <point x="133" y="321"/>
    </contour>
    <contour>
      <point x="589" y="386" type="line"/>
      <point x="672" y="396" type="line"/>
      <point x="672" y="424" type="line"/>
      <point x="481" y="424" type="line"/>
      <point x="481" y="396" type="line"/>
      <point x="575" y="386" type="line"/>
    </contour>
  </outline>
</glyph>
<glyph name="comma" format="1">
  <advance width="300"/>
  <unicode hex="002C"/>
  <outline>
    <contour>
      <point x="195" y="7" type="curve" smooth="yes"/>
      <point x="195" y="31"/>
      <point x="192" y="45"/>
      <point x="186" y="63" type="curve"/>
      <point x="172" y="77"/>
      <point x="158" y="81"/>
      <point x="144" y="81" type="curve" smooth="yes"/>
      <point x="119" y="81"/>
      <point x="104" y="62"/>
      <point x="104" y="40" type="curve" smooth="yes"/>
      <point x="104" y="23"/>
      <point x="114" y="7"/>
      <point x="132" y="-8" type="curve" smooth="yes"/>
      <point x="168" y="-36" type="line"/>
      <point x="163" y="-10" type="line"/>
      <point x="152" y="-91"/>
      <point x="111" y="-149"/>
      <point x="41" y="-193" type="curve"/>
      <point x="52" y="-213" type="line"/>
      <point x="130" y="-173"/>
      <point x="195" y="-87"/>
    </contour>
  </outline>
</glyph>
<glyph name="period" format="1">
  <advance width="300"/>
  <unicode hex="002E"/>
  <outline>
    <contour>
      <point x="150" y="-12" type="curve" smooth="yes"/>
      <point x="177" y="-12"/>
      <point x="197" y="10"/>
      <point x="197" y="34" type="curve" smooth="yes"/>
      <point x="197" y="60"/>
      <point x="177" y="81"/>
      <point x="150" y="81" type="curve" smooth="yes"/>
      <point x="123" y="81"/>
      <point x="103" y="60"/>
      <point x="103" y="34" type="curve" smooth="yes"/>
      <point x="103" y="10"/>
      <point x="123" y="-12"/>
    </contour>
  </outline>
</glyph>
<glyph name="slash" format="1">
  <advance width="305"/>
  <unicode hex="002F"/>
  <outline>
    <contour>
      <point x="1" y="-160" type="line"/>
      <point x="37" y="-160" type="line"/>
      <point x="304" y="710" type="line"/>
      <point x="269" y="710" type="line"/>
    </contour>
  </outline>
</glyph>
<glyph name="zero" format="1">
  <advance width="493"/>
  <unicode hex="0030"/>
  <outline>
    <contour>
      <point x="104" y="324" type="curve" smooth="yes"/>
      <point x="104" y="558"/>
      <point x="176" y="634"/>
      <point x="247" y="634" type="curve" smooth="yes"/>
      <point x="318" y="634"/>
      <point x="389" y="557"/>
      <point x="389" y="324" type="curve" smooth="yes"/>
      <point x="389" y="91"/>
      <point x="318" y="15"/>
      <point x="247" y="15" type="curve" smooth="yes"/>
      <point x="176" y="15"/>
      <point x="104" y="91"/>
    </contour>
    <contour>
      <point x="247" y="664" type="curve" smooth="yes"/>
      <point x="145" y="664"/>
      <point x="49" y="568"/>
      <point x="49" y="324" type="curve" smooth="yes"/>
      <point x="49" y="80"/>
      <point x="145" y="-15"/>
      <point x="247" y="-15" type="curve" smooth="yes"/>
      <point x="349" y="-15"/>
      <point x="445" y="80"/>
      <point x="445" y="324" type="curve" smooth="yes"/>
      <point x="445" y="568"/>
      <point x="349" y="664"/>
    </contour>
  </outline>
</glyph>
<glyph name="at" format="1">
	<unicode hex="0040"/>
	<advance width="822"/>
	<outline>
		<contour>
			<point x="359" y="88" type="curve" smooth="yes"/>
			<point x="312" y="88"/>
			<point x="282" y="125"/>
			<point x="282" y="194" type="curve" smooth="yes"/>
			<point x="282" y="261"/>
			<point x="310" y="326"/>
			<point x="344" y="371" type="curve" smooth="yes"/>
			<point x="380" y="421"/>
			<point x="420" y="436"/>
			<point x="454" y="436" type="curve" smooth="yes"/>
			<point x="488" y="436"/>
			<point x="515" y="420"/>
			<point x="537" y="378" type="curve"/>
			<point x="557" y="414" type="line"/>
			<point x="527" y="453"/>
			<point x="499" y="468"/>
			<point x="462" y="468" type="curve" smooth="yes"/>
			<point x="412" y="468"/>
			<point x="360" y="442"/>
			<point x="315" y="384" type="curve" smooth="yes"/>
			<point x="273" y="331"/>
			<point x="238" y="256"/>
			<point x="238" y="177" type="curve" smooth="yes"/>
			<point x="238" y="90"/>
			<point x="284" y="50"/>
			<point x="343" y="50" type="curve" smooth="yes"/>
			<point x="403" y="50"/>
			<point x="452" y="94"/>
			<point x="504" y="165" type="curve"/>
			<point x="498" y="177" type="line"/>
			<point x="431" y="105"/>
			<point x="395" y="88"/>
		</contour>
		<contour>
			<point x="466" y="621" type="curve" smooth="yes"/>
			<point x="633" y="621"/>
			<point x="751" y="515"/>
			<point x="751" y="341" type="curve" smooth="yes"/>
			<point x="751" y="169"/>
			<point x="656" y="80"/>
			<point x="578" y="80" type="curve" smooth="yes"/>
			<point x="529" y="80"/>
			<point x="510" y="109"/>
			<point x="521" y="163" type="curve"/>
			<point x="579" y="452" type="line"/>
			<point x="564" y="462" type="line"/>
			<point x="532" y="431" type="line"/>
			<point x="477" y="153" type="line"/>
			<point x="479" y="142" type="line"/>
			<point x="477" y="84"/>
			<point x="508" y="50"/>
			<point x="565" y="50" type="curve"/>
			<point x="664" y="50"/>
			<point x="787" y="147"/>
			<point x="787" y="335" type="curve" smooth="yes"/>
			<point x="787" y="520"/>
			<point x="665" y="650"/>
			<point x="472" y="650" type="curve" smooth="yes"/>
			<point x="220" y="650"/>
			<point x="35" y="443"/>
			<point x="35" y="197" type="curve" smooth="yes"/>
			<point x="35" y="-29"/>
			<point x="183" y="-155"/>
			<point x="386" y="-155" type="curve" smooth="yes"/>
			<point x="453" y="-155"/>
			<point x="517" y="-142"/>
			<point x="574" y="-112" type="curve"/>
			<point x="565" y="-92" type="line"/>
			<point x="515" y="-116"/>
			<point x="466" y="-127"/>
			<point x="397" y="-127" type="curve" smooth="yes"/>
			<point x="220" y="-127"/>
			<point x="76" y="-10"/>
			<point x="76" y="204" type="curve" smooth="yes"/>
			<point x="76" y="428"/>
			<point x="242" y="621"/>
		</contour>
	</outline>
</glyph>
<glyph name="A" format="1">
  <advance width="657"/>
  <unicode hex="0041"/>
  <outline>
    <contour>
      <point x="517" y="38" type="line"/>
      <point x="395" y="28" type="line"/>
      <point x="395" y="0" type="line"/>
      <point x="652" y="0" type="line"/>
      <point x="652" y="28" type="line"/>
      <point x="534" y="38" type="line"/>
    </contour>
    <contour>
      <point x="101" y="38" type="line"/>
      <point x="9" y="28" type="line"/>
      <point x="9" y="0" type="line"/>
      <point x="220" y="0" type="line"/>
      <point x="220" y="28" type="line"/>
      <point x="118" y="38" type="line"/>
    </contour>
    <contour>
      <point x="470" y="236" type="line"/>
      <point x="458" y="266" type="line"/>
      <point x="184" y="266" type="line"/>
      <point x="172" y="236" type="line"/>
    </contour>
    <contour>
      <point x="305" y="674" type="line"/>
      <point x="79" y="0" type="line"/>
      <point x="114" y="0" type="line"/>
      <point x="323" y="633" type="line"/>
      <point x="303" y="627" type="line"/>
      <point x="513" y="0" type="line"/>
      <point x="571" y="0" type="line"/>
      <point x="342" y="674" type="line"/>
    </contour>
  </outline>
</glyph>
<glyph name="C" format="1">
  <advance width="639"/>
  <unicode hex="0043"/>
  <outline>
    <contour>
      <point x="388" y="18" type="curve" smooth="yes"/>
      <point x="232" y="18"/>
      <point x="119" y="137"/>
      <point x="119" y="337" type="curve" smooth="yes"/>
      <point x="119" y="534"/>
      <point x="232" y="656"/>
      <point x="394" y="656" type="curve" smooth="yes"/>
      <point x="459" y="656"/>
      <point x="503" y="639"/>
      <point x="560" y="598" type="curve"/>
      <point x="522" y="643" type="line"/>
      <point x="543" y="497" type="line"/>
      <point x="582" y="497" type="line"/>
      <point x="578" y="638" type="line"/>
      <point x="515" y="675"/>
      <point x="457" y="689"/>
      <point x="387" y="689" type="curve" smooth="yes"/>
      <point x="195" y="689"/>
      <point x="57" y="543"/>
      <point x="57" y="337" type="curve" smooth="yes"/>
      <point x="57" y="130"/>
      <point x="189" y="-15"/>
      <point x="387" y="-15" type="curve" smooth="yes"/>
      <point x="458" y="-15"/>
      <point x="520" y="-2"/>
      <point x="586" y="36" type="curve"/>
      <point x="590" y="177" type="line"/>
      <point x="551" y="177" type="line"/>
      <point x="530" y="35" type="line"/>
      <point x="565" y="75" type="line"/>
      <point x="509" y="34"/>
      <point x="451" y="18"/>
    </contour>
  </outline>
</glyph>
<glyph name="D" format="1">
  <advance width="709"/>
  <unicode hex="0044"/>
  <outline>
    <contour>
      <point x="156" y="333" type="line"/>
      <point x="156" y="206"/>
      <point x="156" y="102"/>
      <point x="154" y="0" type="curve"/>
      <point x="213" y="0" type="line"/>
      <point x="210" y="102"/>
      <point x="210" y="206"/>
      <point x="210" y="333" type="curve" smooth="yes"/>
      <point x="210" y="357" type="line" smooth="yes"/>
      <point x="210" y="469"/>
      <point x="210" y="573"/>
      <point x="213" y="674" type="curve"/>
      <point x="154" y="674" type="line"/>
      <point x="156" y="572"/>
      <point x="156" y="468"/>
      <point x="156" y="357" type="curve" smooth="yes"/>
    </contour>
    <contour>
      <point x="175" y="636" type="line"/>
      <point x="183" y="636" type="line"/>
      <point x="183" y="674" type="line"/>
      <point x="53" y="674" type="line"/>
      <point x="53" y="646" type="line"/>
    </contour>
    <contour>
      <point x="175" y="38" type="line"/>
      <point x="53" y="28" type="line"/>
      <point x="53" y="0" type="line"/>
      <point x="183" y="0" type="line"/>
      <point x="183" y="38" type="line"/>
    </contour>
    <contour>
      <point x="183" y="0" type="line"/>
      <point x="312" y="0" type="line" smooth="yes"/>
      <point x="519" y="0"/>
      <point x="652" y="128"/>
      <point x="652" y="337" type="curve" smooth="yes"/>
      <point x="652" y="554"/>
      <point x="524" y="674"/>
      <point x="325" y="674" type="curve" smooth="yes"/>
      <point x="183" y="674" type="line"/>
      <point x="183" y="642" type="line"/>
      <point x="315" y="642" type="line" smooth="yes"/>
      <point x="490" y="642"/>
      <point x="590" y="535"/>
      <point x="590" y="337" type="curve" smooth="yes"/>
      <point x="590" y="146"/>
      <point x="491" y="32"/>
      <point x="306" y="32" type="curve" smooth="yes"/>
      <point x="183" y="32" type="line"/>
    </contour>
  </outline>
</glyph>
<glyph name="E" format="1">
	<unicode hex="0045"/>
	<advance width="602"/>
	<outline>
		<contour>
			<point x="175" y="636" type="line"/>
			<point x="183" y="636" type="line"/>
			<point x="183" y="674" type="line"/>
			<point x="53" y="674" type="line"/>
			<point x="53" y="646" type="line"/>
		</contour>
		<contour>
			<point x="175" y="38" type="line"/>
			<point x="53" y="28" type="line"/>
			<point x="53" y="0" type="line"/>
			<point x="183" y="0" type="line"/>
			<point x="183" y="38" type="line"/>
		</contour>
		<contour>
			<point x="156" y="310" type="line" smooth="yes"/>
			<point x="156" y="206"/>
			<point x="156" y="102"/>
			<point x="154" y="0" type="curve"/>
			<point x="213" y="0" type="line"/>
			<point x="210" y="102"/>
			<point x="210" y="206"/>
			<point x="210" y="333" type="curve" smooth="yes"/>
			<point x="210" y="352" type="line" smooth="yes"/>
			<point x="210" y="469"/>
			<point x="210" y="573"/>
			<point x="213" y="674" type="curve"/>
			<point x="154" y="674" type="line"/>
			<point x="156" y="572"/>
			<point x="156" y="468"/>
			<point x="156" y="364" type="curve" smooth="yes"/>
		</contour>
		<contour>
			<point x="388" y="333" type="line"/>
			<point x="400" y="230" type="line"/>
			<point x="430" y="230" type="line"/>
			<point x="430" y="454" type="line"/>
			<point x="400" y="454" type="line"/>
			<point x="388" y="353" type="line"/>
		</contour>
		<contour>
			<point x="524" y="163" type="line"/>
			<point x="500" y="0" type="line"/>
			<point x="527" y="33" type="line"/>
			<point x="183" y="33" type="line"/>
			<point x="183" y="0" type="line"/>
			<point x="553" y="0" type="line"/>
			<point x="561" y="163" type="line"/>
		</contour>
		<contour>
			<point x="508" y="511" type="line"/>
			<point x="545" y="511" type="line"/>
			<point x="536" y="674" type="line"/>
			<point x="183" y="674" type="line"/>
			<point x="183" y="641" type="line"/>
			<point x="511" y="641" type="line"/>
			<point x="484" y="674" type="line"/>
		</contour>
		<contour>
			<point x="406" y="358" type="line"/>
			<point x="183" y="358" type="line"/>
			<point x="183" y="326" type="line"/>
			<point x="406" y="326" type="line"/>
		</contour>
		<contour>
			<point name="aboveUC" x="326" y="686" type="move"/>
		</contour>
		<contour>
			<point name="ogonek" x="481" y="0" type="move"/>
		</contour>
		<contour>
			<point name="belowLC" x="351" y="-22" type="move"/>
		</contour>
	</outline>
</glyph>
<glyph name="F" format="1">
	<unicode hex="0046"/>
	<advance width="579"/>
	<outline>
		<contour>
			<point x="175" y="38" type="line"/>
			<point x="53" y="28" type="line"/>
			<point x="53" y="0" type="line"/>
			<point x="320" y="0" type="line"/>
			<point x="320" y="28" type="line"/>
			<point x="191" y="38" type="line"/>
		</contour>
		<contour>
			<point x="156" y="310" type="line" smooth="yes"/>
			<point x="156" y="206"/>
			<point x="156" y="102"/>
			<point x="154" y="0" type="curve"/>
			<point x="213" y="0" type="line"/>
			<point x="210" y="102"/>
			<point x="210" y="206"/>
			<point x="210" y="333" type="curve" smooth="yes"/>
			<point x="210" y="352" type="line" smooth="yes"/>
			<point x="210" y="469"/>
			<point x="210" y="573"/>
			<point x="213" y="674" type="curve"/>
			<point x="154" y="674" type="line"/>
			<point x="156" y="572"/>
			<point x="156" y="468"/>
			<point x="156" y="364" type="curve" smooth="yes"/>
		</contour>
		<contour>
			<point x="175" y="636" type="line"/>
			<point x="183" y="636" type="line"/>
			<point x="183" y="674" type="line"/>
			<point x="53" y="674" type="line"/>
			<point x="53" y="646" type="line"/>
		</contour>
		<contour>
			<point x="509" y="511" type="line"/>
			<point x="546" y="511" type="line"/>
			<point x="537" y="674" type="line"/>
			<point x="183" y="674" type="line"/>
			<point x="183" y="641" type="line"/>
			<point x="512" y="641" type="line"/>
			<point x="485" y="674" type="line"/>
		</contour>
		<contour>
			<point x="391" y="329" type="line"/>
			<point x="403" y="226" type="line"/>
			<point x="433" y="226" type="line"/>
			<point x="433" y="454" type="line"/>
			<point x="403" y="454" type="line"/>
			<point x="391" y="353" type="line"/>
		</contour>
		<contour>
			<point x="410" y="358" type="line"/>
			<point x="183" y="358" type="line"/>
			<point x="183" y="326" type="line"/>
			<point x="410" y="326" type="line"/>
		</contour>
		<contour>
			<point name="aboveUC" x="332" y="686" type="move"/>
		</contour>
		<contour>
			<point name="belowLC" x="183" y="-22" type="move"/>
		</contour>
	</outline>
</glyph>
<glyph name="G" format="1">
  <advance width="684"/>
  <unicode hex="0047"/>
  <outline>
    <contour>
      <point x="561" y="283" type="line"/>
      <point x="577" y="283" type="line"/>
      <point x="673" y="291" type="line"/>
      <point x="673" y="319" type="line"/>
      <point x="431" y="319" type="line"/>
      <point x="431" y="291" type="line"/>
    </contour>
    <contour>
      <point x="601" y="93" type="line"/>
      <point x="601" y="181"/>
      <point x="602" y="251"/>
      <point x="604" y="319" type="curve"/>
      <point x="544" y="319" type="line"/>
      <point x="546" y="244"/>
      <point x="547" y="168"/>
      <point x="547" y="93" type="curve" smooth="yes"/>
      <point x="547" y="42" type="line"/>
      <point x="573" y="70" type="line"/>
      <point x="514" y="35"/>
      <point x="461" y="19"/>
      <point x="394" y="19" type="curve" smooth="yes"/>
      <point x="226" y="19"/>
      <point x="119" y="141"/>
      <point x="119" y="337" type="curve" smooth="yes"/>
      <point x="119" y="533"/>
      <point x="231" y="656"/>
      <point x="395" y="656" type="curve" smooth="yes"/>
      <point x="468" y="656"/>
      <point x="517" y="637"/>
      <point x="573" y="594" type="curve"/>
      <point x="535" y="639" type="line"/>
      <point x="556" y="493" type="line"/>
      <point x="595" y="493" type="line"/>
      <point x="591" y="635" type="line"/>
      <point x="533" y="671"/>
      <point x="475" y="689"/>
      <point x="390" y="689" type="curve" smooth="yes"/>
      <point x="193" y="689"/>
      <point x="57" y="543"/>
      <point x="57" y="337" type="curve" smooth="yes"/>
      <point x="57" y="131"/>
      <point x="190" y="-15"/>
      <point x="388" y="-15" type="curve" smooth="yes"/>
      <point x="468" y="-15"/>
      <point x="529" y="4"/>
      <point x="601" y="45" type="curve"/>
    </contour>
  </outline>
</glyph>
<glyph name="K" format="1">
  <advance width="664"/>
  <unicode hex="004B"/>
  <outline>
    <contour>
      <point x="156" y="310" type="line"/>
      <point x="156" y="206"/>
      <point x="156" y="102"/>
      <point x="154" y="0" type="curve"/>
      <point x="212" y="0" type="line"/>
      <point x="209" y="102"/>
      <point x="209" y="195"/>
      <point x="209" y="252" type="curve" smooth="yes"/>
      <point x="209" y="364" type="line" smooth="yes"/>
      <point x="209" y="469"/>
      <point x="209" y="573"/>
      <point x="212" y="674" type="curve"/>
      <point x="154" y="674" type="line"/>
      <point x="156" y="572"/>
      <point x="156" y="468"/>
      <point x="156" y="364" type="curve" smooth="yes"/>
    </contour>
    <contour>
      <point x="175" y="38" type="line"/>
      <point x="53" y="28" type="line"/>
      <point x="53" y="0" type="line"/>
      <point x="314" y="0" type="line"/>
      <point x="314" y="28" type="line"/>
      <point x="191" y="38" type="line"/>
    </contour>
    <contour>
      <point x="175" y="636" type="line"/>
      <point x="191" y="636" type="line"/>
      <point x="314" y="646" type="line"/>
      <point x="314" y="674" type="line"/>
      <point x="53" y="674" type="line"/>
      <point x="53" y="646" type="line"/>
    </contour>
    <contour>
      <point x="531" y="636" type="line"/>
      <point x="548" y="636" type="line"/>
      <point x="645" y="646" type="line"/>
      <point x="645" y="674" type="line"/>
      <point x="416" y="674" type="line"/>
      <point x="416" y="646" type="line"/>
    </contour>
    <contour>
      <point x="321" y="382" type="line"/>
      <point x="535" y="0" type="line"/>
      <point x="593" y="0" type="line"/>
      <point x="355" y="422" type="line"/>
    </contour>
    <contour>
      <point x="182" y="186" type="line"/>
      <point x="589" y="674" type="line"/>
      <point x="547" y="674" type="line"/>
      <point x="182" y="234" type="line"/>
    </contour>
    <contour>
      <point x="420" y="0" type="line"/>
      <point x="659" y="0" type="line"/>
      <point x="659" y="28" type="line"/>
      <point x="550" y="38" type="line"/>
      <point x="536" y="38" type="line"/>
      <point x="420" y="28" type="line"/>
    </contour>
  </outline>
</glyph>
<glyph name="L" format="1">
	<unicode hex="004C"/>
	<advance width="577"/>
	<outline>
		<contour>
			<point x="175" y="38" type="line"/>
			<point x="53" y="28" type="line"/>
			<point x="53" y="0" type="line"/>
			<point x="183" y="0" type="line"/>
			<point x="183" y="38" type="line"/>
		</contour>
		<contour>
			<point x="175" y="636" type="line"/>
			<point x="191" y="636" type="line"/>
			<point x="314" y="646" type="line"/>
			<point x="314" y="674" type="line"/>
			<point x="53" y="674" type="line"/>
			<point x="53" y="646" type="line"/>
		</contour>
		<contour>
			<point x="156" y="364" type="curve" smooth="yes"/>
			<point x="156" y="310" type="line" smooth="yes"/>
			<point x="156" y="206"/>
			<point x="156" y="102"/>
			<point x="154" y="0" type="curve"/>
			<point x="213" y="0" type="line"/>
			<point x="210" y="102"/>
			<point x="210" y="206"/>
			<point x="210" y="289" type="curve" smooth="yes"/>
			<point x="210" y="342" type="line" smooth="yes"/>
			<point x="210" y="468"/>
			<point x="210" y="572"/>
			<point x="213" y="674" type="curve"/>
			<point x="154" y="674" type="line"/>
			<point x="156" y="573"/>
			<point x="156" y="469"/>
		</contour>
		<contour>
			<point x="503" y="173" type="line"/>
			<point x="475" y="0" type="line"/>
			<point x="506" y="33" type="line"/>
			<point x="183" y="33" type="line"/>
			<point x="183" y="0" type="line"/>
			<point x="531" y="0" type="line"/>
			<point x="541" y="173" type="line"/>
		</contour>
		<contour>
			<point name="aboveUC" x="186" y="686" type="move"/>
		</contour>
		<contour>
			<point name="belowLC" x="327" y="-22" type="move"/>
		</contour>
	</outline>
</glyph>
<glyph name="M" format="1">
  <advance width="899"/>
  <unicode hex="004D"/>
  <outline>
    <contour>
      <point x="38" y="674" type="line"/>
      <point x="38" y="646" type="line"/>
      <point x="170" y="633" type="line"/>
      <point x="136" y="660" type="line"/>
      <point x="421" y="0" type="line"/>
      <point x="444" y="0" type="line"/>
      <point x="735" y="674" type="line"/>
      <point x="701" y="674" type="line"/>
      <point x="433" y="58" type="line"/>
      <point x="451" y="58" type="line"/>
      <point x="185" y="674" type="line"/>
    </contour>
    <contour>
      <point x="689" y="310" type="line"/>
      <point x="689" y="206"/>
      <point x="689" y="102"/>
      <point x="687" y="0" type="curve"/>
      <point x="745" y="0" type="line"/>
      <point x="743" y="102"/>
      <point x="743" y="206"/>
      <point x="743" y="310" type="curve" smooth="yes"/>
      <point x="743" y="364" type="line" smooth="yes"/>
      <point x="743" y="469"/>
      <point x="743" y="573"/>
      <point x="745" y="674" type="curve"/>
      <point x="711" y="674" type="line"/>
      <point x="689" y="616" type="line"/>
    </contour>
    <contour>
      <point x="144" y="38" type="line"/>
      <point x="44" y="28" type="line"/>
      <point x="44" y="0" type="line"/>
      <point x="264" y="0" type="line"/>
      <point x="264" y="28" type="line"/>
      <point x="160" y="38" type="line"/>
    </contour>
    <contour>
      <point x="708" y="38" type="line"/>
      <point x="595" y="28" type="line"/>
      <point x="595" y="0" type="line"/>
      <point x="846" y="0" type="line"/>
      <point x="846" y="28" type="line"/>
      <point x="724" y="38" type="line"/>
    </contour>
    <contour>
      <point x="716" y="636" type="line"/>
      <point x="724" y="636" type="line"/>
      <point x="846" y="646" type="line"/>
      <point x="846" y="674" type="line"/>
      <point x="716" y="674" type="line"/>
    </contour>
    <contour>
      <point x="135" y="674" type="line"/>
      <point x="135" y="0" type="line"/>
      <point x="170" y="0" type="line"/>
      <point x="170" y="674" type="line"/>
    </contour>
  </outline>
</glyph>
<glyph name="N" format="1">
  <advance width="733"/>
  <unicode hex="004E"/>
  <outline>
    <contour>
      <point x="605" y="18" type="line"/>
      <point x="605" y="674" type="line"/>
      <point x="571" y="674" type="line"/>
      <point x="571" y="23" type="line"/>
    </contour>
    <contour>
      <point x="596" y="636" type="line"/>
      <point x="694" y="646" type="line"/>
      <point x="694" y="674" type="line"/>
      <point x="462" y="674" type="line"/>
      <point x="462" y="646" type="line"/>
      <point x="580" y="636" type="line"/>
    </contour>
    <contour>
      <point x="145" y="38" type="line"/>
      <point x="45" y="28" type="line"/>
      <point x="45" y="0" type="line"/>
      <point x="278" y="0" type="line"/>
      <point x="278" y="28" type="line"/>
      <point x="161" y="38" type="line"/>
    </contour>
    <contour>
      <point x="133" y="674" type="line"/>
      <point x="133" y="0" type="line"/>
      <point x="168" y="0" type="line"/>
      <point x="168" y="659" type="line"/>
    </contour>
    <contour>
      <point x="41" y="674" type="line"/>
      <point x="41" y="646" type="line"/>
      <point x="169" y="633" type="line"/>
      <point x="112" y="654" type="line"/>
      <point x="153" y="609" type="line"/>
      <point x="580" y="-10" type="line"/>
      <point x="605" y="-10" type="line"/>
      <point x="605" y="46" type="line"/>
      <point x="174" y="674" type="line"/>
    </contour>
  </outline>
</glyph>
<glyph name="O" format="1">
  <advance width="706"/>
  <unicode hex="004F"/>
  <outline>
    <contour>
      <point x="119" y="337" type="curve" smooth="yes"/>
      <point x="119" y="505"/>
      <point x="202" y="656"/>
      <point x="354" y="656" type="curve" smooth="yes"/>
      <point x="506" y="656"/>
      <point x="588" y="505"/>
      <point x="588" y="337" type="curve" smooth="yes"/>
      <point x="588" y="169"/>
      <point x="506" y="18"/>
      <point x="354" y="18" type="curve" smooth="yes"/>
      <point x="202" y="18"/>
      <point x="119" y="169"/>
    </contour>
    <contour>
      <point x="354" y="689" type="curve" smooth="yes"/>
      <point x="193" y="689"/>
      <point x="57" y="552"/>
      <point x="57" y="337" type="curve" smooth="yes"/>
      <point x="57" y="118"/>
      <point x="193" y="-15"/>
      <point x="354" y="-15" type="curve" smooth="yes"/>
      <point x="515" y="-15"/>
      <point x="650" y="122"/>
      <point x="650" y="337" type="curve" smooth="yes"/>
      <point x="650" y="556"/>
      <point x="515" y="689"/>
    </contour>
  </outline>
</glyph>
<glyph name="R" format="1">
  <advance width="648"/>
  <unicode hex="0052"/>
  <outline>
    <contour>
      <point x="175" y="38" type="line"/>
      <point x="53" y="28" type="line"/>
      <point x="53" y="0" type="line"/>
      <point x="314" y="0" type="line"/>
      <point x="314" y="28" type="line"/>
      <point x="191" y="38" type="line"/>
    </contour>
    <contour>
      <point x="156" y="310" type="line"/>
      <point x="156" y="206"/>
      <point x="156" y="102"/>
      <point x="154" y="0" type="curve"/>
      <point x="213" y="0" type="line"/>
      <point x="210" y="102"/>
      <point x="210" y="206"/>
      <point x="210" y="320" type="curve" smooth="yes"/>
      <point x="210" y="336" type="line" smooth="yes"/>
      <point x="210" y="470"/>
      <point x="210" y="571"/>
      <point x="213" y="674" type="curve"/>
      <point x="154" y="674" type="line"/>
      <point x="156" y="572"/>
      <point x="156" y="468"/>
      <point x="156" y="364" type="curve" smooth="yes"/>
    </contour>
    <contour>
      <point x="175" y="636" type="line"/>
      <point x="183" y="636" type="line"/>
      <point x="183" y="674" type="line"/>
      <point x="53" y="674" type="line"/>
      <point x="53" y="646" type="line"/>
    </contour>
    <contour>
      <point x="183" y="314" type="line"/>
      <point x="287" y="314" type="line" smooth="yes"/>
      <point x="374" y="314"/>
      <point x="400" y="289"/>
      <point x="423" y="213" type="curve" smooth="yes"/>
      <point x="477" y="41" type="line" smooth="yes"/>
      <point x="487" y="8"/>
      <point x="508" y="-7"/>
      <point x="563" y="-7" type="curve" smooth="yes"/>
      <point x="592" y="-7"/>
      <point x="616" y="-4"/>
      <point x="630" y="0" type="curve"/>
      <point x="630" y="28" type="line"/>
      <point x="523" y="36" type="line"/>
      <point x="541" y="22" type="line"/>
      <point x="476" y="214" type="line" smooth="yes"/>
      <point x="450" y="289"/>
      <point x="423" y="319"/>
      <point x="350" y="328" type="curve"/>
      <point x="354" y="318" type="line"/>
      <point x="479" y="327"/>
      <point x="548" y="401"/>
      <point x="548" y="499" type="curve" smooth="yes"/>
      <point x="548" y="611"/>
      <point x="466" y="674"/>
      <point x="320" y="674" type="curve" smooth="yes"/>
      <point x="183" y="674" type="line"/>
      <point x="183" y="642" type="line"/>
      <point x="318" y="642" type="line" smooth="yes"/>
      <point x="439" y="642"/>
      <point x="493" y="587"/>
      <point x="493" y="499" type="curve" smooth="yes"/>
      <point x="493" y="410"/>
      <point x="425" y="344"/>
      <point x="320" y="344" type="curve" smooth="yes"/>
      <point x="183" y="344" type="line"/>
    </contour>
  </outline>
</glyph>
<glyph name="S" format="1">
  <advance width="513"/>
  <unicode hex="0053"/>
  <outline>
    <contour>
      <point x="238" y="18" type="curve" smooth="yes"/>
      <point x="170" y="18"/>
      <point x="130" y="33"/>
      <point x="71" y="77" type="curve"/>
      <point x="108" y="30" type="line"/>
      <point x="90" y="170" type="line"/>
      <point x="54" y="170" type="line"/>
      <point x="49" y="39" type="line"/>
      <point x="91" y="11"/>
      <point x="162" y="-15"/>
      <point x="239" y="-15" type="curve" smooth="yes"/>
      <point x="369" y="-15"/>
      <point x="464" y="54"/>
      <point x="464" y="169" type="curve" smooth="yes"/>
      <point x="464" y="259"/>
      <point x="423" y="311"/>
      <point x="280" y="368" type="curve" smooth="yes"/>
      <point x="241" y="383" type="line" smooth="yes"/>
      <point x="164" y="414"/>
      <point x="118" y="454"/>
      <point x="118" y="526" type="curve" smooth="yes"/>
      <point x="118" y="613"/>
      <point x="183" y="656"/>
      <point x="272" y="656" type="curve" smooth="yes"/>
      <point x="327" y="656"/>
      <point x="367" y="641"/>
      <point x="412" y="604" type="curve"/>
      <point x="376" y="651" type="line"/>
      <point x="394" y="515" type="line"/>
      <point x="431" y="515" type="line"/>
      <point x="435" y="639" type="line"/>
      <point x="390" y="671"/>
      <point x="344" y="689"/>
      <point x="273" y="689" type="curve" smooth="yes"/>
      <point x="164" y="689"/>
      <point x="69" y="631"/>
      <point x="69" y="516" type="curve" smooth="yes"/>
      <point x="69" y="426"/>
      <point x="126" y="368"/>
      <point x="231" y="326" type="curve" smooth="yes"/>
      <point x="268" y="311" type="line" smooth="yes"/>
      <point x="380" y="267"/>
      <point x="415" y="230"/>
      <point x="415" y="161" type="curve" smooth="yes"/>
      <point x="415" y="66"/>
      <point x="342" y="18"/>
    </contour>
  </outline>
</glyph>
<glyph name="U" format="1">
  <advance width="733"/>
  <unicode hex="0055"/>
  <outline>
    <contour>
      <point x="589" y="636" type="line"/>
      <point x="690" y="646" type="line"/>
      <point x="690" y="674" type="line"/>
      <point x="453" y="674" type="line"/>
      <point x="453" y="646" type="line"/>
      <point x="573" y="636" type="line"/>
    </contour>
    <contour>
      <point x="162" y="636" type="line"/>
      <point x="179" y="636" type="line"/>
      <point x="301" y="646" type="line"/>
      <point x="301" y="674" type="line"/>
      <point x="46" y="674" type="line"/>
      <point x="46" y="646" type="line"/>
    </contour>
    <contour>
      <point x="193" y="265" type="curve" smooth="yes"/>
      <point x="193" y="361" type="line" smooth="yes"/>
      <point x="193" y="467"/>
      <point x="193" y="571"/>
      <point x="196" y="674" type="curve"/>
      <point x="136" y="674" type="line"/>
      <point x="139" y="571"/>
      <point x="139" y="465"/>
      <point x="139" y="361" type="curve" smooth="yes"/>
      <point x="139" y="249" type="line" smooth="yes"/>
      <point x="139" y="62"/>
      <point x="230" y="-15"/>
      <point x="369" y="-15" type="curve" smooth="yes"/>
      <point x="518" y="-15"/>
      <point x="601" y="73"/>
      <point x="601" y="257" type="curve" smooth="yes"/>
      <point x="601" y="674" type="line"/>
      <point x="567" y="674" type="line"/>
      <point x="567" y="283" type="line" smooth="yes"/>
      <point x="567" y="99"/>
      <point x="508" y="29"/>
      <point x="375" y="29" type="curve" smooth="yes"/>
      <point x="265" y="29"/>
      <point x="193" y="91"/>
    </contour>
  </outline>
</glyph>
<glyph name="V" format="1">
  <advance width="659"/>
  <unicode hex="0056"/>
  <outline>
    <contour>
      <point x="547" y="636" type="line"/>
      <point x="649" y="646" type="line"/>
      <point x="649" y="674" type="line"/>
      <point x="420" y="674" type="line"/>
      <point x="420" y="644" type="line"/>
      <point x="530" y="636" type="line"/>
    </contour>
    <contour>
      <point x="135" y="636" type="line"/>
      <point x="257" y="644" type="line"/>
      <point x="257" y="674" type="line"/>
      <point x="6" y="674" type="line"/>
      <point x="6" y="646" type="line"/>
      <point x="121" y="636" type="line"/>
    </contour>
    <contour>
      <point x="320" y="-10" type="line"/>
      <point x="348" y="-10" type="line"/>
      <point x="573" y="674" type="line"/>
      <point x="535" y="674" type="line"/>
      <point x="334" y="49" type="line"/>
      <point x="349" y="49" type="line"/>
      <point x="139" y="674" type="line"/>
      <point x="81" y="674" type="line"/>
    </contour>
  </outline>
</glyph>
<glyph name="W" format="1">
  <advance width="964"/>
  <unicode hex="0057"/>
  <outline>
    <contour>
      <point x="848" y="636" type="line"/>
      <point x="954" y="646" type="line"/>
      <point x="954" y="674" type="line"/>
      <point x="726" y="674" type="line"/>
      <point x="726" y="646" type="line"/>
      <point x="832" y="636" type="line"/>
    </contour>
    <contour>
      <point x="505" y="636" type="line"/>
      <point x="619" y="646" type="line"/>
      <point x="619" y="674" type="line"/>
      <point x="374" y="674" type="line"/>
      <point x="374" y="646" type="line"/>
      <point x="489" y="636" type="line"/>
    </contour>
    <contour>
      <point x="143" y="636" type="line"/>
      <point x="258" y="646" type="line"/>
      <point x="258" y="674" type="line"/>
      <point x="13" y="674" type="line"/>
      <point x="13" y="646" type="line"/>
      <point x="127" y="636" type="line"/>
    </contour>
    <contour>
      <point x="294" y="51" type="line"/>
      <point x="315" y="54" type="line"/>
      <point x="149" y="674" type="line"/>
      <point x="93" y="674" type="line"/>
      <point x="282" y="-10" type="line"/>
      <point x="310" y="-10" type="line"/>
      <point x="493" y="604" type="line"/>
      <point x="475" y="598" type="line"/>
      <point x="662" y="-10" type="line"/>
      <point x="690" y="-10" type="line"/>
      <point x="869" y="674" type="line"/>
      <point x="833" y="674" type="line"/>
      <point x="672" y="50" type="line"/>
      <point x="691" y="55" type="line"/>
      <point x="505" y="674" type="line"/>
      <point x="484" y="674" type="line"/>
    </contour>
  </outline>
</glyph>
<glyph name="X" format="1">
  <advance width="641"/>
  <unicode hex="0058"/>
  <outline>
    <contour>
      <point x="119" y="38" type="line"/>
      <point x="19" y="28" type="line"/>
      <point x="19" y="0" type="line"/>
      <point x="248" y="0" type="line"/>
      <point x="248" y="28" type="line"/>
      <point x="136" y="38" type="line"/>
    </contour>
    <contour>
      <point x="510" y="38" type="line"/>
      <point x="494" y="38" type="line"/>
      <point x="373" y="28" type="line"/>
      <point x="373" y="0" type="line"/>
      <point x="623" y="0" type="line"/>
      <point x="623" y="28" type="line"/>
    </contour>
    <contour>
      <point x="508" y="636" type="line"/>
      <point x="610" y="646" type="line"/>
      <point x="610" y="674" type="line"/>
      <point x="381" y="674" type="line"/>
      <point x="381" y="646" type="line"/>
      <point x="491" y="636" type="line"/>
    </contour>
    <contour>
      <point x="135" y="636" type="line"/>
      <point x="151" y="636" type="line"/>
      <point x="274" y="646" type="line"/>
      <point x="274" y="674" type="line"/>
      <point x="24" y="674" type="line"/>
      <point x="24" y="646" type="line"/>
    </contour>
    <contour>
      <point x="308" y="351" type="line"/>
      <point x="85" y="0" type="line"/>
      <point x="126" y="0" type="line"/>
      <point x="328" y="328" type="line"/>
    </contour>
    <contour>
      <point x="555" y="0" type="line"/>
      <point x="151" y="674" type="line"/>
      <point x="91" y="674" type="line"/>
      <point x="495" y="0" type="line"/>
    </contour>
    <contour>
      <point x="328" y="325" type="line"/>
      <point x="545" y="674" type="line"/>
      <point x="505" y="674" type="line"/>
      <point x="308" y="348" type="line"/>
    </contour>
  </outline>
</glyph>
<glyph name="Z" format="1">
  <advance width="553"/>
  <unicode hex="005A"/>
  <outline>
    <contour>
      <point x="490" y="169" type="line"/>
      <point x="460" y="0" type="line"/>
      <point x="492" y="33" type="line"/>
      <point x="44" y="33" type="line"/>
      <point x="44" y="0" type="line"/>
      <point x="518" y="0" type="line"/>
      <point x="527" y="169" type="line"/>
    </contour>
    <contour>
      <point x="76" y="505" type="line"/>
      <point x="105" y="674" type="line"/>
      <point x="73" y="641" type="line"/>
      <point x="489" y="641" type="line"/>
      <point x="489" y="674" type="line"/>
      <point x="47" y="674" type="line"/>
      <point x="39" y="505" type="line"/>
    </contour>
    <contour>
      <point x="466" y="674" type="line"/>
      <point x="26" y="26" type="line"/>
      <point x="26" y="0" type="line"/>
      <point x="69" y="0" type="line"/>
      <point x="507" y="648" type="line"/>
      <point x="507" y="674" type="line"/>
    </contour>
  </outline>
</glyph>
<glyph name="grave" format="1">
	<unicode hex="0060"/>
	<advance width="400"/>
	<outline>
		<component base="gravecmb" xOffset="200"/>
		<contour>
			<point name="_aboveLC" x="200" y="502" type="move"/>
		</contour>
	</outline>
</glyph>
<glyph name="a" format="1">
  <advance width="506"/>
  <unicode hex="0061"/>
  <outline>
    <contour>
      <point x="392" y="110" type="curve" smooth="yes"/>
      <point x="392" y="331" type="line" smooth="yes"/>
      <point x="392" y="442"/>
      <point x="342" y="486"/>
      <point x="243" y="486" type="curve" smooth="yes"/>
      <point x="152" y="486"/>
      <point x="85" y="443"/>
      <point x="65" y="369" type="curve"/>
      <point x="68" y="351"/>
      <point x="79" y="340"/>
      <point x="97" y="340" type="curve" smooth="yes"/>
      <point x="114" y="340"/>
      <point x="128" y="350"/>
      <point x="134" y="370" type="curve" smooth="yes"/>
      <point x="153" y="448" type="line"/>
      <point x="121" y="420" type="line"/>
      <point x="160" y="447"/>
      <point x="196" y="456"/>
      <point x="233" y="456" type="curve" smooth="yes"/>
      <point x="307" y="456"/>
      <point x="343" y="430"/>
      <point x="343" y="324" type="curve" smooth="yes"/>
      <point x="343" y="95" type="line" smooth="yes"/>
      <point x="343" y="28"/>
      <point x="366" y="-11"/>
      <point x="424" y="-11" type="curve" smooth="yes"/>
      <point x="450" y="-11"/>
      <point x="473" y="-1"/>
      <point x="492" y="26" type="curve"/>
      <point x="478" y="43" type="line"/>
      <point x="472" y="38" type="line" smooth="yes"/>
      <point x="462" y="30"/>
      <point x="450" y="24"/>
      <point x="434" y="24" type="curve" smooth="yes"/>
      <point x="407" y="24"/>
      <point x="392" y="46"/>
    </contour>
    <contour>
      <point x="105" y="114" type="curve" smooth="yes"/>
      <point x="105" y="158"/>
      <point x="132" y="197"/>
      <point x="217" y="229" type="curve" smooth="yes"/>
      <point x="259" y="245"/>
      <point x="319" y="262"/>
      <point x="367" y="273" type="curve"/>
      <point x="367" y="298" type="line"/>
      <point x="317" y="287"/>
      <point x="258" y="273"/>
      <point x="208" y="256" type="curve" smooth="yes"/>
      <point x="95" y="218"/>
      <point x="53" y="172"/>
      <point x="53" y="106" type="curve" smooth="yes"/>
      <point x="53" y="28"/>
      <point x="108" y="-15"/>
      <point x="180" y="-15" type="curve" smooth="yes"/>
      <point x="246" y="-15"/>
      <point x="287" y="17"/>
      <point x="349" y="83" type="curve" smooth="yes"/>
      <point x="366" y="100" type="line"/>
      <point x="360" y="124" type="line"/>
      <point x="345" y="111" type="line" smooth="yes"/>
      <point x="282" y="51"/>
      <point x="246" y="27"/>
      <point x="198" y="27" type="curve" smooth="yes"/>
      <point x="173" y="27"/>
      <point x="147" y="33"/>
      <point x="127" y="53" type="curve" smooth="yes"/>
      <point x="114" y="68"/>
      <point x="105" y="88"/>
    </contour>
  </outline>
</glyph>
<glyph name="b" format="1">
  <advance width="578"/>
  <unicode hex="0062"/>
  <outline>
    <contour>
      <point x="124" y="0" type="curve"/>
      <point x="150" y="38" type="line"/>
      <point x="41" y="26" type="line"/>
      <point x="41" y="0" type="line"/>
      <point x="170" y="-6" type="line"/>
      <point x="176" y="74" type="line"/>
      <point x="176" y="385" type="line"/>
      <point x="175" y="396" type="line"/>
      <point x="175" y="585" type="line"/>
      <point x="178" y="727" type="line"/>
      <point x="163" y="735" type="line"/>
      <point x="39" y="709" type="line"/>
      <point x="39" y="683" type="line"/>
      <point x="127" y="679" type="line"/>
      <point x="127" y="210" type="line" smooth="yes"/>
      <point x="127" y="148"/>
      <point x="126" y="45"/>
    </contour>
    <contour>
      <point x="475" y="238" type="curve" smooth="yes"/>
      <point x="475" y="89"/>
      <point x="403" y="22"/>
      <point x="321" y="22" type="curve" smooth="yes"/>
      <point x="265" y="22"/>
      <point x="215" y="48"/>
      <point x="161" y="109" type="curve"/>
      <point x="152" y="95" type="line"/>
      <point x="205" y="11"/>
      <point x="268" y="-15"/>
      <point x="327" y="-15" type="curve" smooth="yes"/>
      <point x="446" y="-15"/>
      <point x="528" y="87"/>
      <point x="528" y="242" type="curve" smooth="yes"/>
      <point x="528" y="388"/>
      <point x="449" y="486"/>
      <point x="336" y="486" type="curve" smooth="yes"/>
      <point x="274" y="486"/>
      <point x="205" y="456"/>
      <point x="152" y="375" type="curve"/>
      <point x="161" y="358" type="line"/>
      <point x="222" y="428"/>
      <point x="273" y="449"/>
      <point x="323" y="449" type="curve" smooth="yes"/>
      <point x="411" y="449"/>
      <point x="475" y="376"/>
    </contour>
  </outline>
</glyph>
<glyph name="c" format="1">
  <advance width="487"/>
  <unicode hex="0063"/>
  <outline>
    <contour>
      <point x="279" y="456" type="curve" smooth="yes"/>
      <point x="315" y="456"/>
      <point x="349" y="446"/>
      <point x="388" y="419" type="curve"/>
      <point x="350" y="454" type="line"/>
      <point x="377" y="374" type="line" smooth="yes"/>
      <point x="383" y="356"/>
      <point x="393" y="345"/>
      <point x="415" y="345" type="curve" smooth="yes"/>
      <point x="431" y="345"/>
      <point x="442" y="354"/>
      <point x="446" y="372" type="curve"/>
      <point x="423" y="443"/>
      <point x="357" y="486"/>
      <point x="279" y="486" type="curve" smooth="yes"/>
      <point x="160" y="486"/>
      <point x="50" y="393"/>
      <point x="50" y="235" type="curve" smooth="yes"/>
      <point x="50" y="85"/>
      <point x="139" y="-15"/>
      <point x="272" y="-15" type="curve" smooth="yes"/>
      <point x="356" y="-15"/>
      <point x="413" y="24"/>
      <point x="448" y="86" type="curve"/>
      <point x="431" y="97" type="line"/>
      <point x="393" y="51"/>
      <point x="340" y="26"/>
      <point x="281" y="26" type="curve" smooth="yes"/>
      <point x="178" y="26"/>
      <point x="103" y="110"/>
      <point x="103" y="240" type="curve" smooth="yes"/>
      <point x="103" y="372"/>
      <point x="179" y="456"/>
    </contour>
  </outline>
</glyph>
<glyph name="d" format="1">
  <advance width="571"/>
  <unicode hex="0064"/>
  <outline>
    <contour>
      <point x="103" y="230" type="curve" smooth="yes"/>
      <point x="103" y="380"/>
      <point x="177" y="449"/>
      <point x="267" y="449" type="curve" smooth="yes"/>
      <point x="318" y="449"/>
      <point x="362" y="426"/>
      <point x="413" y="370" type="curve"/>
      <point x="422" y="388" type="line"/>
      <point x="373" y="460"/>
      <point x="317" y="486"/>
      <point x="262" y="486" type="curve" smooth="yes"/>
      <point x="141" y="486"/>
      <point x="50" y="386"/>
      <point x="50" y="229" type="curve" smooth="yes"/>
      <point x="50" y="87"/>
      <point x="131" y="-15"/>
      <point x="249" y="-15" type="curve" smooth="yes"/>
      <point x="319" y="-15"/>
      <point x="376" y="18"/>
      <point x="421" y="90" type="curve"/>
      <point x="412" y="110" type="line"/>
      <point x="363" y="47"/>
      <point x="319" y="22"/>
      <point x="260" y="22" type="curve" smooth="yes"/>
      <point x="171" y="22"/>
      <point x="103" y="92"/>
    </contour>
    <contour>
      <point x="436" y="36" type="line"/>
      <point x="451" y="0" type="line"/>
      <point x="451" y="587" type="line"/>
      <point x="454" y="727" type="line"/>
      <point x="440" y="735" type="line"/>
      <point x="314" y="709" type="line"/>
      <point x="314" y="683" type="line"/>
      <point x="403" y="679" type="line"/>
      <point x="403" y="396" type="line"/>
      <point x="402" y="388" type="line"/>
      <point x="402" y="87" type="line"/>
      <point x="404" y="-6" type="line"/>
      <point x="548" y="0" type="line"/>
      <point x="548" y="26" type="line"/>
    </contour>
  </outline>
</glyph>
<glyph name="e" format="1">
  <advance width="498"/>
  <unicode hex="0065"/>
  <outline>
    <contour>
      <point x="269" y="486" type="curve" smooth="yes"/>
      <point x="153" y="486"/>
      <point x="50" y="387"/>
      <point x="50" y="235" type="curve" smooth="yes"/>
      <point x="50" y="69"/>
      <point x="152" y="-15"/>
      <point x="271" y="-15" type="curve" smooth="yes"/>
      <point x="347" y="-15"/>
      <point x="410" y="21"/>
      <point x="449" y="79" type="curve"/>
      <point x="433" y="93" type="line"/>
      <point x="394" y="51"/>
      <point x="347" y="26"/>
      <point x="283" y="26" type="curve" smooth="yes"/>
      <point x="186" y="26"/>
      <point x="104" y="97"/>
      <point x="104" y="248" type="curve" smooth="yes"/>
      <point x="104" y="373"/>
      <point x="178" y="456"/>
      <point x="267" y="456" type="curve" smooth="yes"/>
      <point x="351" y="456"/>
      <point x="402" y="389"/>
      <point x="402" y="316" type="curve" smooth="yes"/>
      <point x="402" y="288"/>
      <point x="393" y="273"/>
      <point x="366" y="273" type="curve" smooth="yes"/>
      <point x="76" y="273" type="line"/>
      <point x="76" y="243" type="line"/>
      <point x="445" y="243" type="line"/>
      <point x="449" y="257"/>
      <point x="452" y="276"/>
      <point x="452" y="300" type="curve" smooth="yes"/>
      <point x="452" y="407"/>
      <point x="380" y="486"/>
    </contour>
  </outline>
</glyph>
<glyph name="f" format="1">
  <advance width="354"/>
  <unicode hex="0066"/>
  <outline>
    <contour>
      <point x="159" y="38" type="line"/>
      <point x="145" y="38" type="line"/>
      <point x="34" y="26" type="line"/>
      <point x="34" y="0" type="line"/>
      <point x="280" y="0" type="line"/>
      <point x="280" y="26" type="line"/>
    </contour>
    <contour>
      <point x="153" y="468" type="line"/>
      <point x="153" y="433" type="line"/>
      <point x="331" y="433" type="line"/>
      <point x="331" y="468" type="line"/>
    </contour>
    <contour>
      <point x="128" y="210" type="line"/>
      <point x="128" y="140"/>
      <point x="127" y="70"/>
      <point x="125" y="0" type="curve"/>
      <point x="181" y="0" type="line"/>
      <point x="179" y="70"/>
      <point x="178" y="140"/>
      <point x="178" y="210" type="curve" smooth="yes"/>
      <point x="178" y="444" type="line"/>
      <point x="174" y="579"/>
      <point x="196" y="637"/>
      <point x="227" y="678" type="curve" smooth="yes"/>
      <point x="252" y="709"/>
      <point x="287" y="732"/>
      <point x="321" y="732" type="curve" smooth="yes"/>
      <point x="332" y="732"/>
      <point x="344" y="730"/>
      <point x="352" y="726" type="curve"/>
      <point x="331" y="747" type="line"/>
      <point x="264" y="732" type="line"/>
      <point x="307" y="708" type="line" smooth="yes"/>
      <point x="332" y="696"/>
      <point x="348" y="690"/>
      <point x="365" y="690" type="curve" smooth="yes"/>
      <point x="391" y="690"/>
      <point x="406" y="703"/>
      <point x="408" y="722" type="curve"/>
      <point x="399" y="743"/>
      <point x="368" y="755"/>
      <point x="331" y="755" type="curve" smooth="yes"/>
      <point x="291" y="755"/>
      <point x="241" y="742"/>
      <point x="199" y="697" type="curve" smooth="yes"/>
      <point x="149" y="643"/>
      <point x="132" y="574"/>
      <point x="128" y="462" type="curve"/>
      <point x="147" y="471" type="line"/>
      <point x="34" y="462" type="line"/>
      <point x="34" y="433" type="line"/>
      <point x="128" y="433" type="line"/>
    </contour>
  </outline>
</glyph>
<glyph name="g" format="1">
  <advance width="512"/>
  <unicode hex="0067"/>
  <outline>
    <contour>
      <point x="252" y="-210" type="curve" smooth="yes"/>
      <point x="154" y="-210"/>
      <point x="94" y="-174"/>
      <point x="94" y="-103" type="curve" smooth="yes"/>
      <point x="94" y="-54"/>
      <point x="118" y="-24"/>
      <point x="166" y="10" type="curve"/>
      <point x="160" y="19" type="line"/>
      <point x="87" y="-12"/>
      <point x="43" y="-54"/>
      <point x="43" y="-113" type="curve" smooth="yes"/>
      <point x="43" y="-189"/>
      <point x="116" y="-243"/>
      <point x="249" y="-243" type="curve" smooth="yes"/>
      <point x="404" y="-243"/>
      <point x="480" y="-162"/>
      <point x="480" y="-80" type="curve" smooth="yes"/>
      <point x="480" y="-3"/>
      <point x="431" y="39"/>
      <point x="339" y="39" type="curve" smooth="yes"/>
      <point x="234" y="39" type="line" smooth="yes"/>
      <point x="152" y="39"/>
      <point x="129" y="63"/>
      <point x="129" y="105" type="curve" smooth="yes"/>
      <point x="129" y="133"/>
      <point x="140" y="154"/>
      <point x="179" y="183" type="curve"/>
      <point x="165" y="195" type="line"/>
      <point x="107" y="160"/>
      <point x="82" y="125"/>
      <point x="82" y="87" type="curve" smooth="yes"/>
      <point x="82" y="33"/>
      <point x="127" y="-10"/>
      <point x="222" y="-10" type="curve" smooth="yes"/>
      <point x="329" y="-10" type="line" smooth="yes"/>
      <point x="407" y="-10"/>
      <point x="433" y="-45"/>
      <point x="433" y="-91" type="curve" smooth="yes"/>
      <point x="433" y="-157"/>
      <point x="371" y="-210"/>
    </contour>
    <contour>
      <point x="68" y="319" type="curve" smooth="yes"/>
      <point x="68" y="217"/>
      <point x="138" y="154"/>
      <point x="238" y="154" type="curve" smooth="yes"/>
      <point x="336" y="154"/>
      <point x="409" y="217"/>
      <point x="409" y="319" type="curve" smooth="yes"/>
      <point x="409" y="422"/>
      <point x="338" y="484"/>
      <point x="239" y="484" type="curve" smooth="yes"/>
      <point x="139" y="484"/>
      <point x="68" y="421"/>
    </contour>
    <contour>
      <point x="239" y="456" type="curve" smooth="yes"/>
      <point x="312" y="456"/>
      <point x="360" y="401"/>
      <point x="360" y="321" type="curve" smooth="yes"/>
      <point x="360" y="240"/>
      <point x="310" y="182"/>
      <point x="237" y="182" type="curve" smooth="yes"/>
      <point x="165" y="182"/>
      <point x="117" y="238"/>
      <point x="117" y="319" type="curve" smooth="yes"/>
      <point x="117" y="400"/>
      <point x="166" y="456"/>
    </contour>
    <contour>
      <point x="338" y="443" type="line"/>
      <point x="338" y="425" type="line"/>
      <point x="482" y="425" type="line"/>
      <point x="482" y="469" type="line"/>
      <point x="467" y="479" type="line"/>
    </contour>
  </outline>
</glyph>
<glyph name="h" format="1">
  <advance width="605"/>
  <unicode hex="0068"/>
  <outline>
    <contour>
      <point x="368" y="486" type="curve" smooth="yes"/>
      <point x="302" y="486"/>
      <point x="226" y="448"/>
      <point x="160" y="364" type="curve"/>
      <point x="184" y="374" type="line"/>
      <point x="153" y="374" type="line"/>
      <point x="153" y="343" type="line"/>
      <point x="170" y="343" type="line"/>
      <point x="243" y="422"/>
      <point x="303" y="441"/>
      <point x="349" y="441" type="curve" smooth="yes"/>
      <point x="409" y="441"/>
      <point x="443" y="407"/>
      <point x="443" y="308" type="curve" smooth="yes"/>
      <point x="443" y="210" type="line" smooth="yes"/>
      <point x="443" y="146"/>
      <point x="442" y="45"/>
      <point x="440" y="0" type="curve"/>
      <point x="495" y="0" type="line"/>
      <point x="493" y="45"/>
      <point x="492" y="146"/>
      <point x="492" y="210" type="curve" smooth="yes"/>
      <point x="492" y="311" type="line" smooth="yes"/>
      <point x="492" y="439"/>
      <point x="447" y="486"/>
    </contour>
    <contour>
      <point x="461" y="38" type="line"/>
      <point x="357" y="26" type="line"/>
      <point x="357" y="0" type="line"/>
      <point x="571" y="0" type="line"/>
      <point x="571" y="26" type="line"/>
      <point x="474" y="38" type="line"/>
    </contour>
    <contour>
      <point x="158" y="38" type="line"/>
      <point x="145" y="38" type="line"/>
      <point x="41" y="26" type="line"/>
      <point x="41" y="0" type="line"/>
      <point x="255" y="0" type="line"/>
      <point x="255" y="26" type="line"/>
    </contour>
    <contour>
      <point x="127" y="210" type="line"/>
      <point x="127" y="148"/>
      <point x="126" y="45"/>
      <point x="124" y="0" type="curve"/>
      <point x="179" y="0" type="line"/>
      <point x="177" y="45"/>
      <point x="176" y="148"/>
      <point x="176" y="210" type="curve" smooth="yes"/>
      <point x="176" y="356" type="line"/>
      <point x="175" y="369" type="line"/>
      <point x="175" y="585" type="line"/>
      <point x="178" y="727" type="line"/>
      <point x="163" y="735" type="line"/>
      <point x="39" y="709" type="line"/>
      <point x="39" y="683" type="line"/>
      <point x="127" y="679" type="line"/>
    </contour>
  </outline>
</glyph>
<glyph name="i" format="1">
  <advance width="301"/>
  <unicode hex="0069"/>
  <outline>
    <contour>
      <point x="149" y="627" type="curve" smooth="yes"/>
      <point x="174" y="627"/>
      <point x="195" y="644"/>
      <point x="195" y="671" type="curve" smooth="yes"/>
      <point x="195" y="699"/>
      <point x="174" y="716"/>
      <point x="149" y="716" type="curve" smooth="yes"/>
      <point x="124" y="716"/>
      <point x="103" y="699"/>
      <point x="103" y="671" type="curve" smooth="yes"/>
      <point x="103" y="644"/>
      <point x="124" y="627"/>
    </contour>
    <contour>
      <point x="181" y="0" type="line"/>
      <point x="179" y="45"/>
      <point x="178" y="148"/>
      <point x="178" y="210" type="curve" smooth="yes"/>
      <point x="178" y="349" type="line"/>
      <point x="181" y="473" type="line"/>
      <point x="169" y="481" type="line"/>
      <point x="38" y="449" type="line"/>
      <point x="38" y="423" type="line"/>
      <point x="126" y="419" type="line"/>
      <point x="128" y="373"/>
      <point x="129" y="321"/>
      <point x="129" y="257" type="curve" smooth="yes"/>
      <point x="129" y="210" type="line" smooth="yes"/>
      <point x="129" y="148"/>
      <point x="128" y="45"/>
      <point x="126" y="0" type="curve"/>
    </contour>
    <contour>
      <point x="160" y="38" type="line"/>
      <point x="147" y="38" type="line"/>
      <point x="43" y="26" type="line"/>
      <point x="43" y="0" type="line"/>
      <point x="257" y="0" type="line"/>
      <point x="257" y="26" type="line"/>
    </contour>
  </outline>
</glyph>
<glyph name="j" format="1">
  <advance width="277"/>
  <unicode hex="006A"/>
  <outline>
    <contour>
      <point x="146" y="627" type="curve" smooth="yes"/>
      <point x="171" y="627"/>
      <point x="192" y="644"/>
      <point x="192" y="671" type="curve" smooth="yes"/>
      <point x="192" y="699"/>
      <point x="171" y="716"/>
      <point x="146" y="716" type="curve" smooth="yes"/>
      <point x="121" y="716"/>
      <point x="100" y="699"/>
      <point x="100" y="671" type="curve" smooth="yes"/>
      <point x="100" y="644"/>
      <point x="121" y="627"/>
    </contour>
    <contour>
      <point x="126" y="76" type="line"/>
      <point x="126" y="-68"/>
      <point x="122" y="-133"/>
      <point x="89" y="-184" type="curve" smooth="yes"/>
      <point x="74" y="-206"/>
      <point x="39" y="-230"/>
      <point x="15" y="-230" type="curve" smooth="yes"/>
      <point x="-9" y="-230"/>
      <point x="-25" y="-224"/>
      <point x="-35" y="-217" type="curve"/>
      <point x="-24" y="-241" type="line"/>
      <point x="72" y="-229" type="line"/>
      <point x="38" y="-209" type="line" smooth="yes"/>
      <point x="14" y="-195"/>
      <point x="-4" y="-190"/>
      <point x="-22" y="-190" type="curve" smooth="yes"/>
      <point x="-45" y="-190"/>
      <point x="-60" y="-200"/>
      <point x="-66" y="-218" type="curve"/>
      <point x="-63" y="-234"/>
      <point x="-42" y="-253"/>
      <point x="9" y="-253" type="curve" smooth="yes"/>
      <point x="51" y="-253"/>
      <point x="88" y="-239"/>
      <point x="121" y="-199" type="curve" smooth="yes"/>
      <point x="166" y="-145"/>
      <point x="174" y="-80"/>
      <point x="174" y="118" type="curve" smooth="yes"/>
      <point x="174" y="349" type="line"/>
      <point x="176" y="473" type="line"/>
      <point x="164" y="481" type="line"/>
      <point x="35" y="449" type="line"/>
      <point x="35" y="423" type="line"/>
      <point x="123" y="419" type="line"/>
      <point x="125" y="373"/>
      <point x="126" y="321"/>
      <point x="126" y="257" type="curve" smooth="yes"/>
    </contour>
  </outline>
</glyph>
<glyph name="k" format="1">
  <advance width="543"/>
  <unicode hex="006B"/>
  <outline>
    <contour>
      <point x="406" y="431" type="line"/>
      <point x="517" y="440" type="line"/>
      <point x="517" y="468" type="line"/>
      <point x="294" y="468" type="line"/>
      <point x="294" y="440" type="line"/>
      <point x="393" y="431" type="line"/>
    </contour>
    <contour>
      <point x="416" y="468" type="line"/>
      <point x="152" y="201" type="line"/>
      <point x="152" y="160" type="line"/>
      <point x="460" y="468" type="line"/>
    </contour>
    <contour>
      <point x="39" y="709" type="line"/>
      <point x="39" y="683" type="line"/>
      <point x="127" y="679" type="line"/>
      <point x="127" y="210" type="line" smooth="yes"/>
      <point x="127" y="145"/>
      <point x="126" y="55"/>
      <point x="124" y="0" type="curve"/>
      <point x="179" y="0" type="line"/>
      <point x="177" y="55"/>
      <point x="176" y="145"/>
      <point x="176" y="210" type="curve" smooth="yes"/>
      <point x="176" y="585" type="line"/>
      <point x="179" y="727" type="line"/>
      <point x="165" y="735" type="line"/>
    </contour>
    <contour>
      <point x="157" y="38" type="line"/>
      <point x="144" y="38" type="line"/>
      <point x="39" y="26" type="line"/>
      <point x="39" y="0" type="line"/>
      <point x="259" y="0" type="line"/>
      <point x="259" y="26" type="line"/>
    </contour>
    <contour>
      <point x="476" y="16" type="line"/>
      <point x="287" y="315" type="line"/>
      <point x="252" y="278" type="line"/>
      <point x="426" y="0" type="line"/>
      <point x="540" y="0" type="line"/>
      <point x="540" y="26" type="line"/>
      <point x="436" y="38" type="line"/>
    </contour>
  </outline>
</glyph>
<glyph name="l" format="1">
  <advance width="300"/>
  <unicode hex="006C"/>
  <outline>
    <contour>
      <point x="157" y="38" type="line"/>
      <point x="144" y="38" type="line"/>
      <point x="33" y="26" type="line"/>
      <point x="33" y="0" type="line"/>
      <point x="268" y="0" type="line"/>
      <point x="268" y="26" type="line"/>
    </contour>
    <contour>
      <point x="39" y="709" type="line"/>
      <point x="39" y="683" type="line"/>
      <point x="127" y="679" type="line"/>
      <point x="127" y="210" type="line" smooth="yes"/>
      <point x="127" y="145"/>
      <point x="126" y="55"/>
      <point x="124" y="0" type="curve"/>
      <point x="179" y="0" type="line"/>
      <point x="177" y="55"/>
      <point x="176" y="145"/>
      <point x="176" y="210" type="curve"/>
      <point x="176" y="585" type="line"/>
      <point x="179" y="727" type="line"/>
      <point x="165" y="735" type="line"/>
    </contour>
  </outline>
</glyph>
<glyph name="m" format="1">
  <advance width="894"/>
  <unicode hex="006D"/>
  <outline>
    <contour>
      <point x="358" y="486" type="curve" smooth="yes"/>
      <point x="292" y="486"/>
      <point x="225" y="445"/>
      <point x="160" y="364" type="curve"/>
      <point x="184" y="374" type="line"/>
      <point x="152" y="374" type="line"/>
      <point x="152" y="343" type="line"/>
      <point x="170" y="343" type="line"/>
      <point x="242" y="421"/>
      <point x="294" y="441"/>
      <point x="342" y="441" type="curve" smooth="yes"/>
      <point x="395" y="441"/>
      <point x="430" y="406"/>
      <point x="430" y="308" type="curve" smooth="yes"/>
      <point x="430" y="210" type="line" smooth="yes"/>
      <point x="430" y="146"/>
      <point x="429" y="45"/>
      <point x="427" y="0" type="curve"/>
      <point x="482" y="0" type="line"/>
      <point x="480" y="45"/>
      <point x="479" y="146"/>
      <point x="479" y="210" type="curve" smooth="yes"/>
      <point x="479" y="311" type="line" smooth="yes"/>
      <point x="479" y="439"/>
      <point x="434" y="486"/>
    </contour>
    <contour>
      <point x="656" y="486" type="curve" smooth="yes"/>
      <point x="589" y="486"/>
      <point x="521" y="450"/>
      <point x="460" y="371" type="curve"/>
      <point x="484" y="376" type="line"/>
      <point x="452" y="376" type="line"/>
      <point x="452" y="350" type="line"/>
      <point x="471" y="350" type="line"/>
      <point x="538" y="422"/>
      <point x="593" y="441"/>
      <point x="640" y="441" type="curve" smooth="yes"/>
      <point x="697" y="441"/>
      <point x="732" y="408"/>
      <point x="732" y="309" type="curve" smooth="yes"/>
      <point x="732" y="210" type="line" smooth="yes"/>
      <point x="732" y="146"/>
      <point x="731" y="45"/>
      <point x="729" y="0" type="curve"/>
      <point x="784" y="0" type="line"/>
      <point x="782" y="45"/>
      <point x="781" y="146"/>
      <point x="781" y="210" type="curve" smooth="yes"/>
      <point x="781" y="315" type="line" smooth="yes"/>
      <point x="781" y="439"/>
      <point x="734" y="486"/>
    </contour>
    <contour>
      <point x="180" y="0" type="line"/>
      <point x="178" y="45"/>
      <point x="177" y="148"/>
      <point x="177" y="210" type="curve" smooth="yes"/>
      <point x="177" y="364" type="line"/>
      <point x="171" y="473" type="line"/>
      <point x="159" y="481" type="line"/>
      <point x="37" y="449" type="line"/>
      <point x="37" y="423" type="line"/>
      <point x="125" y="419" type="line"/>
      <point x="127" y="373"/>
      <point x="128" y="321"/>
      <point x="128" y="257" type="curve" smooth="yes"/>
      <point x="128" y="210" type="line" smooth="yes"/>
      <point x="128" y="148"/>
      <point x="127" y="45"/>
      <point x="125" y="0" type="curve"/>
    </contour>
    <contour>
      <point x="160" y="38" type="line"/>
      <point x="146" y="38" type="line"/>
      <point x="42" y="26" type="line"/>
      <point x="42" y="0" type="line"/>
      <point x="256" y="0" type="line"/>
      <point x="256" y="26" type="line"/>
    </contour>
    <contour>
      <point x="448" y="38" type="line"/>
      <point x="344" y="26" type="line"/>
      <point x="344" y="0" type="line"/>
      <point x="558" y="0" type="line"/>
      <point x="558" y="26" type="line"/>
      <point x="462" y="38" type="line"/>
    </contour>
    <contour>
      <point x="750" y="38" type="line"/>
      <point x="646" y="26" type="line"/>
      <point x="646" y="0" type="line"/>
      <point x="860" y="0" type="line"/>
      <point x="860" y="26" type="line"/>
      <point x="763" y="38" type="line"/>
    </contour>
  </outline>
</glyph>
<glyph name="n" format="1">
  <advance width="604"/>
  <unicode hex="006E"/>
  <outline>
    <contour>
      <point x="180" y="0" type="line"/>
      <point x="178" y="45"/>
      <point x="177" y="148"/>
      <point x="177" y="210" type="curve" smooth="yes"/>
      <point x="177" y="362" type="line"/>
      <point x="171" y="473" type="line"/>
      <point x="159" y="481" type="line"/>
      <point x="37" y="449" type="line"/>
      <point x="37" y="423" type="line"/>
      <point x="125" y="419" type="line"/>
      <point x="127" y="373"/>
      <point x="128" y="321"/>
      <point x="128" y="257" type="curve" smooth="yes"/>
      <point x="128" y="210" type="line" smooth="yes"/>
      <point x="128" y="148"/>
      <point x="127" y="45"/>
      <point x="125" y="0" type="curve"/>
    </contour>
    <contour>
      <point x="160" y="38" type="line"/>
      <point x="146" y="38" type="line"/>
      <point x="42" y="26" type="line"/>
      <point x="42" y="0" type="line"/>
      <point x="256" y="0" type="line"/>
      <point x="256" y="26" type="line"/>
    </contour>
    <contour>
      <point x="460" y="38" type="line"/>
      <point x="356" y="26" type="line"/>
      <point x="356" y="0" type="line"/>
      <point x="570" y="0" type="line"/>
      <point x="570" y="26" type="line"/>
      <point x="474" y="38" type="line"/>
    </contour>
    <contour>
      <point x="368" y="486" type="curve" smooth="yes"/>
      <point x="302" y="486"/>
      <point x="226" y="448"/>
      <point x="160" y="364" type="curve"/>
      <point x="184" y="374" type="line"/>
      <point x="152" y="374" type="line"/>
      <point x="152" y="343" type="line"/>
      <point x="170" y="343" type="line"/>
      <point x="243" y="421"/>
      <point x="303" y="441"/>
      <point x="349" y="441" type="curve" smooth="yes"/>
      <point x="408" y="441"/>
      <point x="442" y="407"/>
      <point x="442" y="308" type="curve" smooth="yes"/>
      <point x="442" y="210" type="line" smooth="yes"/>
      <point x="442" y="146"/>
      <point x="441" y="45"/>
      <point x="439" y="0" type="curve"/>
      <point x="494" y="0" type="line"/>
      <point x="492" y="45"/>
      <point x="491" y="146"/>
      <point x="491" y="210" type="curve" smooth="yes"/>
      <point x="491" y="311" type="line" smooth="yes"/>
      <point x="491" y="439"/>
      <point x="447" y="486"/>
    </contour>
  </outline>
</glyph>
<glyph name="o" format="1">
  <advance width="542"/>
  <unicode hex="006F"/>
  <outline>
    <contour>
      <point x="271" y="456" type="curve" smooth="yes"/>
      <point x="373" y="456"/>
      <point x="437" y="372"/>
      <point x="437" y="234" type="curve" smooth="yes"/>
      <point x="437" y="97"/>
      <point x="373" y="15"/>
      <point x="271" y="15" type="curve" smooth="yes"/>
      <point x="169" y="15"/>
      <point x="105" y="97"/>
      <point x="105" y="234" type="curve" smooth="yes"/>
      <point x="105" y="372"/>
      <point x="169" y="456"/>
    </contour>
    <contour>
      <point x="271" y="486" type="curve" smooth="yes"/>
      <point x="161" y="486"/>
      <point x="50" y="403"/>
      <point x="50" y="234" type="curve" smooth="yes"/>
      <point x="50" y="66"/>
      <point x="161" y="-15"/>
      <point x="271" y="-15" type="curve" smooth="yes"/>
      <point x="381" y="-15"/>
      <point x="493" y="66"/>
      <point x="493" y="234" type="curve" smooth="yes"/>
      <point x="493" y="403"/>
      <point x="381" y="486"/>
    </contour>
  </outline>
</glyph>
<glyph name="p" format="1">
  <advance width="577"/>
  <unicode hex="0070"/>
  <outline>
    <contour>
      <point x="474" y="238" type="curve" smooth="yes"/>
      <point x="474" y="89"/>
      <point x="402" y="22"/>
      <point x="319" y="22" type="curve" smooth="yes"/>
      <point x="262" y="22"/>
      <point x="216" y="43"/>
      <point x="161" y="105" type="curve"/>
      <point x="152" y="90" type="line"/>
      <point x="204" y="6"/>
      <point x="268" y="-15"/>
      <point x="326" y="-15" type="curve" smooth="yes"/>
      <point x="446" y="-15"/>
      <point x="528" y="87"/>
      <point x="528" y="242" type="curve" smooth="yes"/>
      <point x="528" y="388"/>
      <point x="449" y="486"/>
      <point x="336" y="486" type="curve" smooth="yes"/>
      <point x="273" y="486"/>
      <point x="205" y="455"/>
      <point x="152" y="374" type="curve"/>
      <point x="160" y="358" type="line"/>
      <point x="221" y="427"/>
      <point x="273" y="449"/>
      <point x="323" y="449" type="curve" smooth="yes"/>
      <point x="411" y="449"/>
      <point x="474" y="376"/>
    </contour>
    <contour>
      <point x="159" y="-205" type="line"/>
      <point x="145" y="-205" type="line"/>
      <point x="40" y="-217" type="line"/>
      <point x="40" y="-243" type="line"/>
      <point x="276" y="-243" type="line"/>
      <point x="276" y="-217" type="line"/>
    </contour>
    <contour>
      <point x="128" y="-33" type="line"/>
      <point x="128" y="-98"/>
      <point x="127" y="-188"/>
      <point x="125" y="-243" type="curve"/>
      <point x="179" y="-243" type="line"/>
      <point x="177" y="-188"/>
      <point x="176" y="-98"/>
      <point x="176" y="-33" type="curve" smooth="yes"/>
      <point x="176" y="66" type="line"/>
      <point x="178" y="74" type="line"/>
      <point x="178" y="387" type="line"/>
      <point x="176" y="391" type="line"/>
      <point x="172" y="473" type="line"/>
      <point x="160" y="481" type="line"/>
      <point x="38" y="449" type="line"/>
      <point x="38" y="423" type="line"/>
      <point x="125" y="419" type="line"/>
      <point x="127" y="373"/>
      <point x="128" y="321"/>
      <point x="128" y="257" type="curve" smooth="yes"/>
    </contour>
  </outline>
</glyph>
<glyph name="q" format="1">
  <advance width="550"/>
  <unicode hex="0071"/>
  <outline>
    <contour>
      <point x="103" y="230" type="curve" smooth="yes"/>
      <point x="103" y="380"/>
      <point x="177" y="449"/>
      <point x="267" y="449" type="curve" smooth="yes"/>
      <point x="318" y="449"/>
      <point x="362" y="426"/>
      <point x="413" y="370" type="curve"/>
      <point x="422" y="388" type="line"/>
      <point x="373" y="460"/>
      <point x="315" y="486"/>
      <point x="260" y="486" type="curve" smooth="yes"/>
      <point x="141" y="486"/>
      <point x="50" y="386"/>
      <point x="50" y="229" type="curve" smooth="yes"/>
      <point x="50" y="87"/>
      <point x="131" y="-15"/>
      <point x="249" y="-15" type="curve" smooth="yes"/>
      <point x="315" y="-15"/>
      <point x="374" y="14"/>
      <point x="421" y="90" type="curve"/>
      <point x="412" y="110" type="line"/>
      <point x="363" y="47"/>
      <point x="318" y="22"/>
      <point x="260" y="22" type="curve" smooth="yes"/>
      <point x="171" y="22"/>
      <point x="103" y="92"/>
    </contour>
    <contour>
      <point x="423" y="-205" type="line"/>
      <point x="306" y="-217" type="line"/>
      <point x="306" y="-243" type="line"/>
      <point x="542" y="-243" type="line"/>
      <point x="542" y="-217" type="line"/>
      <point x="437" y="-205" type="line"/>
    </contour>
    <contour>
      <point x="453" y="-33" type="curve" smooth="yes"/>
      <point x="453" y="339" type="line"/>
      <point x="456" y="472" type="line"/>
      <point x="438" y="478" type="line"/>
      <point x="403" y="407" type="line"/>
      <point x="403" y="84" type="line"/>
      <point x="405" y="77" type="line"/>
      <point x="405" y="-33" type="line" smooth="yes"/>
      <point x="405" y="-103"/>
      <point x="404" y="-173"/>
      <point x="402" y="-243" type="curve"/>
      <point x="456" y="-243" type="line"/>
      <point x="454" y="-173"/>
      <point x="453" y="-103"/>
    </contour>
  </outline>
</glyph>
<glyph name="r" format="1">
  <advance width="411"/>
  <unicode hex="0072"/>
  <outline>
    <contour>
      <point x="336" y="455" type="curve"/>
      <point x="282" y="454" type="line"/>
      <point x="309" y="438" type="line" smooth="yes"/>
      <point x="329" y="428"/>
      <point x="345" y="421"/>
      <point x="362" y="421" type="curve" smooth="yes"/>
      <point x="385" y="421"/>
      <point x="402" y="432"/>
      <point x="404" y="453" type="curve"/>
      <point x="397" y="475"/>
      <point x="370" y="486"/>
      <point x="345" y="486" type="curve" smooth="yes"/>
      <point x="271" y="486"/>
      <point x="202" y="429"/>
      <point x="172" y="337" type="curve"/>
      <point x="189" y="347" type="line"/>
      <point x="152" y="347" type="line"/>
      <point x="152" y="298" type="line"/>
      <point x="176" y="298" type="line"/>
      <point x="213" y="393"/>
      <point x="262" y="437"/>
    </contour>
    <contour>
      <point x="161" y="38" type="line"/>
      <point x="147" y="38" type="line"/>
      <point x="43" y="26" type="line"/>
      <point x="43" y="0" type="line"/>
      <point x="269" y="0" type="line"/>
      <point x="269" y="26" type="line"/>
    </contour>
    <contour>
      <point x="180" y="0" type="line"/>
      <point x="178" y="45"/>
      <point x="177" y="148"/>
      <point x="177" y="210" type="curve" smooth="yes"/>
      <point x="177" y="343" type="line"/>
      <point x="171" y="473" type="line"/>
      <point x="159" y="481" type="line"/>
      <point x="37" y="449" type="line"/>
      <point x="37" y="423" type="line"/>
      <point x="125" y="419" type="line"/>
      <point x="127" y="373"/>
      <point x="128" y="321"/>
      <point x="128" y="257" type="curve" smooth="yes"/>
      <point x="128" y="210" type="line" smooth="yes"/>
      <point x="128" y="148"/>
      <point x="127" y="45"/>
      <point x="125" y="0" type="curve"/>
    </contour>
  </outline>
</glyph>
<glyph name="s" format="1">
  <advance width="429"/>
  <unicode hex="0073"/>
  <outline>
    <contour>
      <point x="201" y="-15" type="curve" smooth="yes"/>
      <point x="322" y="-15"/>
      <point x="380" y="49"/>
      <point x="380" y="120" type="curve" smooth="yes"/>
      <point x="380" y="181"/>
      <point x="346" y="221"/>
      <point x="252" y="256" type="curve" smooth="yes"/>
      <point x="210" y="272" type="line" smooth="yes"/>
      <point x="142" y="297"/>
      <point x="112" y="321"/>
      <point x="112" y="368" type="curve" smooth="yes"/>
      <point x="112" y="419"/>
      <point x="148" y="456"/>
      <point x="222" y="456" type="curve" smooth="yes"/>
      <point x="260" y="456"/>
      <point x="297" y="446"/>
      <point x="335" y="418" type="curve"/>
      <point x="310" y="451" type="line"/>
      <point x="324" y="352" type="line"/>
      <point x="357" y="352" type="line"/>
      <point x="360" y="446" type="line"/>
      <point x="315" y="473"/>
      <point x="279" y="486"/>
      <point x="225" y="486" type="curve" smooth="yes"/>
      <point x="124" y="486"/>
      <point x="64" y="430"/>
      <point x="64" y="356" type="curve" smooth="yes"/>
      <point x="64" y="291"/>
      <point x="111" y="252"/>
      <point x="183" y="226" type="curve" smooth="yes"/>
      <point x="230" y="209" type="line" smooth="yes"/>
      <point x="305" y="182"/>
      <point x="332" y="156"/>
      <point x="332" y="110" type="curve" smooth="yes"/>
      <point x="332" y="56"/>
      <point x="289" y="15"/>
      <point x="203" y="15" type="curve" smooth="yes"/>
      <point x="144" y="15"/>
      <point x="109" y="29"/>
      <point x="74" y="51" type="curve"/>
      <point x="107" y="14" type="line"/>
      <point x="87" y="123" type="line"/>
      <point x="52" y="123" type="line"/>
      <point x="56" y="19" type="line"/>
      <point x="104" y="-3"/>
      <point x="145" y="-15"/>
    </contour>
  </outline>
</glyph>
<glyph name="t" format="1">
  <advance width="328"/>
  <unicode hex="0074"/>
  <outline>
    <contour>
      <point x="137" y="468" type="line"/>
      <point x="137" y="433" type="line"/>
      <point x="303" y="433" type="line"/>
      <point x="303" y="468" type="line"/>
    </contour>
    <contour>
      <point x="161" y="111" type="curve" smooth="yes"/>
      <point x="161" y="441" type="line"/>
      <point x="167" y="615" type="line"/>
      <point x="130" y="615" type="line"/>
      <point x="111" y="451" type="line"/>
      <point x="140" y="472" type="line"/>
      <point x="13" y="462" type="line"/>
      <point x="13" y="433" type="line"/>
      <point x="112" y="433" type="line"/>
      <point x="112" y="181" type="line" smooth="yes"/>
      <point x="112" y="149"/>
      <point x="111" y="130"/>
      <point x="111" y="109" type="curve" smooth="yes"/>
      <point x="110" y="30"/>
      <point x="143" y="-10"/>
      <point x="214" y="-10" type="curve" smooth="yes"/>
      <point x="255" y="-10"/>
      <point x="288" y="3"/>
      <point x="312" y="27" type="curve"/>
      <point x="299" y="47" type="line"/>
      <point x="273" y="32"/>
      <point x="255" y="25"/>
      <point x="226" y="25" type="curve" smooth="yes"/>
      <point x="184" y="25"/>
      <point x="161" y="50"/>
    </contour>
  </outline>
</glyph>
<glyph name="u" format="1">
  <advance width="595"/>
  <unicode hex="0075"/>
  <outline>
    <contour>
      <point x="551" y="0" type="line"/>
      <point x="551" y="26" type="line"/>
      <point x="456" y="38" type="line"/>
      <point x="476" y="13" type="line"/>
      <point x="476" y="324" type="line"/>
      <point x="479" y="463" type="line"/>
      <point x="470" y="474" type="line"/>
      <point x="347" y="465" type="line"/>
      <point x="347" y="439" type="line"/>
      <point x="445" y="427" type="line"/>
      <point x="428" y="440" type="line"/>
      <point x="426" y="109" type="line"/>
      <point x="430" y="-6" type="line"/>
    </contour>
    <contour>
      <point x="162" y="324" type="line"/>
      <point x="166" y="463" type="line"/>
      <point x="157" y="474" type="line"/>
      <point x="33" y="465" type="line"/>
      <point x="33" y="439" type="line"/>
      <point x="131" y="427" type="line"/>
      <point x="115" y="441" type="line"/>
      <point x="112" y="170" type="line" smooth="yes"/>
      <point x="111" y="32"/>
      <point x="158" y="-15"/>
      <point x="245" y="-15" type="curve" smooth="yes"/>
      <point x="321" y="-15"/>
      <point x="384" y="30"/>
      <point x="436" y="99" type="curve"/>
      <point x="412" y="89" type="line"/>
      <point x="446" y="89" type="line"/>
      <point x="446" y="125" type="line"/>
      <point x="430" y="125" type="line"/>
      <point x="380" y="65"/>
      <point x="322" y="30"/>
      <point x="262" y="30" type="curve" smooth="yes"/>
      <point x="196" y="30"/>
      <point x="162" y="68"/>
      <point x="162" y="176" type="curve" smooth="yes"/>
    </contour>
  </outline>
</glyph>
<glyph name="v" format="1">
  <advance width="497"/>
  <unicode hex="0076"/>
  <outline>
    <contour>
      <point x="417" y="431" type="line"/>
      <point x="493" y="440" type="line"/>
      <point x="493" y="468" type="line"/>
      <point x="307" y="468" type="line"/>
      <point x="307" y="440" type="line"/>
      <point x="403" y="431" type="line"/>
    </contour>
    <contour>
      <point x="47" y="468" type="line"/>
      <point x="237" y="-10" type="line"/>
      <point x="264" y="-10" type="line"/>
      <point x="443" y="468" type="line"/>
      <point x="407" y="468" type="line"/>
      <point x="243" y="10" type="line"/>
      <point x="269" y="32" type="line"/>
      <point x="106" y="468" type="line"/>
    </contour>
    <contour>
      <point x="100" y="431" type="line"/>
      <point x="206" y="440" type="line"/>
      <point x="206" y="468" type="line"/>
      <point x="-6" y="468" type="line"/>
      <point x="-6" y="440" type="line"/>
      <point x="87" y="431" type="line"/>
    </contour>
  </outline>
</glyph>
<glyph name="w" format="1">
  <advance width="763"/>
  <unicode hex="0077"/>
  <outline>
    <contour>
      <point x="387" y="431" type="line"/>
      <point x="401" y="431" type="line"/>
      <point x="492" y="440" type="line"/>
      <point x="492" y="468" type="line"/>
      <point x="294" y="468" type="line"/>
      <point x="294" y="440" type="line"/>
    </contour>
    <contour>
      <point x="98" y="431" type="line"/>
      <point x="204" y="440" type="line"/>
      <point x="204" y="468" type="line"/>
      <point x="-3" y="468" type="line"/>
      <point x="-3" y="440" type="line"/>
      <point x="85" y="431" type="line"/>
    </contour>
    <contour>
      <point x="686" y="431" type="line"/>
      <point x="756" y="440" type="line"/>
      <point x="756" y="468" type="line"/>
      <point x="573" y="468" type="line"/>
      <point x="573" y="440" type="line"/>
      <point x="673" y="431" type="line"/>
    </contour>
    <contour>
      <point x="382" y="468" type="line"/>
      <point x="230" y="42" type="line"/>
      <point x="248" y="41" type="line"/>
      <point x="107" y="468" type="line"/>
      <point x="51" y="468" type="line"/>
      <point x="218" y="-10" type="line"/>
      <point x="243" y="-10" type="line"/>
      <point x="388" y="400" type="line"/>
      <point x="377" y="399" type="line"/>
      <point x="526" y="-10" type="line"/>
      <point x="550" y="-10" type="line"/>
      <point x="707" y="468" type="line"/>
      <point x="670" y="468" type="line"/>
      <point x="539" y="46" type="line"/>
      <point x="555" y="42" type="line"/>
      <point x="403" y="468" type="line"/>
    </contour>
  </outline>
</glyph>
<glyph name="x" format="1">
  <advance width="502"/>
  <unicode hex="0078"/>
  <outline>
    <contour>
      <point x="57" y="468" type="line"/>
      <point x="232" y="225" type="line"/>
      <point x="388" y="0" type="line"/>
      <point x="450" y="0" type="line"/>
      <point x="267" y="253" type="line"/>
      <point x="116" y="468" type="line"/>
    </contour>
    <contour>
      <point x="92" y="37" type="line"/>
      <point x="10" y="26" type="line"/>
      <point x="10" y="0" type="line"/>
      <point x="190" y="0" type="line"/>
      <point x="190" y="26" type="line"/>
      <point x="105" y="37" type="line"/>
    </contour>
    <contour>
      <point x="119" y="431" type="line"/>
      <point x="210" y="440" type="line"/>
      <point x="210" y="468" type="line"/>
      <point x="16" y="468" type="line"/>
      <point x="16" y="440" type="line"/>
      <point x="106" y="431" type="line"/>
    </contour>
    <contour>
      <point x="388" y="38" type="line"/>
      <point x="287" y="26" type="line"/>
      <point x="287" y="0" type="line"/>
      <point x="492" y="0" type="line"/>
      <point x="492" y="26" type="line"/>
      <point x="401" y="38" type="line"/>
    </contour>
    <contour>
      <point x="405" y="431" type="line"/>
      <point x="481" y="440" type="line"/>
      <point x="481" y="468" type="line"/>
      <point x="305" y="468" type="line"/>
      <point x="305" y="440" type="line"/>
      <point x="392" y="431" type="line"/>
    </contour>
    <contour>
      <point x="92" y="0" type="line"/>
      <point x="261" y="231" type="line"/>
      <point x="239" y="248" type="line"/>
      <point x="51" y="0" type="line"/>
    </contour>
    <contour>
      <point x="405" y="468" type="line"/>
      <point x="240" y="243" type="line"/>
      <point x="260" y="223" type="line"/>
      <point x="446" y="468" type="line"/>
    </contour>
  </outline>
</glyph>
<glyph name="y" format="1">
  <advance width="498"/>
  <unicode hex="0079"/>
  <outline>
    <contour>
      <point x="419" y="431" type="line"/>
      <point x="494" y="440" type="line"/>
      <point x="494" y="468" type="line"/>
      <point x="305" y="468" type="line"/>
      <point x="305" y="440" type="line"/>
      <point x="405" y="431" type="line"/>
    </contour>
    <contour>
      <point x="100" y="431" type="line"/>
      <point x="206" y="440" type="line"/>
      <point x="206" y="468" type="line"/>
      <point x="-6" y="468" type="line"/>
      <point x="-6" y="440" type="line"/>
      <point x="87" y="431" type="line"/>
    </contour>
    <contour>
      <point x="269" y="26" type="line"/>
      <point x="105" y="468" type="line"/>
      <point x="48" y="468" type="line"/>
      <point x="244" y="-35" type="line"/>
    </contour>
    <contour>
      <point x="70" y="-253" type="curve" smooth="yes"/>
      <point x="141" y="-253"/>
      <point x="203" y="-187"/>
      <point x="256" y="-42" type="curve" smooth="yes"/>
      <point x="444" y="468" type="line"/>
      <point x="407" y="468" type="line"/>
      <point x="219" y="-60" type="line" smooth="yes"/>
      <point x="186" y="-149"/>
      <point x="135" y="-215"/>
      <point x="71" y="-228" type="curve"/>
      <point x="92" y="-241" type="line"/>
      <point x="119" y="-230" type="line"/>
      <point x="93" y="-207" type="line" smooth="yes"/>
      <point x="71" y="-189"/>
      <point x="53" y="-179"/>
      <point x="33" y="-179" type="curve" smooth="yes"/>
      <point x="11" y="-179"/>
      <point x="-8" y="-189"/>
      <point x="-14" y="-208" type="curve"/>
      <point x="-7" y="-235"/>
      <point x="28" y="-253"/>
    </contour>
  </outline>
</glyph>
<glyph name="z" format="1">
  <advance width="456"/>
  <unicode hex="007A"/>
  <outline>
    <contour>
      <point x="53" y="468" type="line"/>
      <point x="46" y="334" type="line"/>
      <point x="79" y="330" type="line"/>
      <point x="106" y="468" type="line"/>
      <point x="84" y="439" type="line"/>
      <point x="370" y="439" type="line"/>
      <point x="369" y="468" type="line"/>
      <point x="44" y="26" type="line"/>
      <point x="44" y="0" type="line"/>
      <point x="415" y="0" type="line"/>
      <point x="423" y="149" type="line"/>
      <point x="390" y="149" type="line"/>
      <point x="360" y="0" type="line"/>
      <point x="389" y="29" type="line"/>
      <point x="81" y="29" type="line"/>
      <point x="82" y="0" type="line"/>
      <point x="407" y="442" type="line"/>
      <point x="407" y="468" type="line"/>
    </contour>
  </outline>
</glyph>
<glyph name="bar" format="1">
  <advance width="244"/>
  <unicode hex="007C"/>
  <outline>
    <contour>
      <point x="103" y="-250" type="line"/>
      <point x="141" y="-250" type="line"/>
      <point x="141" y="750" type="line"/>
      <point x="103" y="750" type="line"/>
    </contour>
  </outline>
</glyph>
<glyph name="section" format="1">
	<unicode hex="00A7"/>
	<advance width="483"/>
	<outline>
		<contour>
			<point x="260" y="688" type="curve" smooth="yes"/>
			<point x="156" y="688"/>
			<point x="102" y="628"/>
			<point x="102" y="558" type="curve" smooth="yes"/>
			<point x="102" y="489"/>
			<point x="147" y="436"/>
			<point x="256" y="388" type="curve" smooth="yes"/>
			<point x="351" y="346"/>
			<point x="386" y="315"/>
			<point x="386" y="258" type="curve" smooth="yes"/>
			<point x="386" y="218"/>
			<point x="364" y="174"/>
			<point x="315" y="144" type="curve"/>
			<point x="326" y="126" type="line"/>
			<point x="395" y="159"/>
			<point x="430" y="212"/>
			<point x="430" y="267" type="curve" smooth="yes"/>
			<point x="430" y="344"/>
			<point x="387" y="382"/>
			<point x="280" y="431" type="curve" smooth="yes"/>
			<point x="185" y="475"/>
			<point x="147" y="510"/>
			<point x="147" y="567" type="curve" smooth="yes"/>
			<point x="147" y="620"/>
			<point x="185" y="658"/>
			<point x="263" y="658" type="curve" smooth="yes"/>
			<point x="295" y="658"/>
			<point x="321" y="649"/>
			<point x="347" y="634" type="curve"/>
			<point x="317" y="660" type="line"/>
			<point x="350" y="585" type="line" smooth="yes"/>
			<point x="361" y="564"/>
			<point x="372" y="554"/>
			<point x="389" y="554" type="curve" smooth="yes"/>
			<point x="405" y="554"/>
			<point x="416" y="562"/>
			<point x="420" y="580" type="curve"/>
			<point x="404" y="645"/>
			<point x="343" y="688"/>
		</contour>
		<contour>
			<point x="221" y="-100" type="curve" smooth="yes"/>
			<point x="325" y="-100"/>
			<point x="386" y="-38"/>
			<point x="386" y="41" type="curve" smooth="yes"/>
			<point x="386" y="116"/>
			<point x="330" y="169"/>
			<point x="230" y="210" type="curve" smooth="yes"/>
			<point x="145" y="244"/>
			<point x="102" y="284"/>
			<point x="102" y="348" type="curve" smooth="yes"/>
			<point x="102" y="394"/>
			<point x="127" y="434"/>
			<point x="173" y="458" type="curve"/>
			<point x="162" y="476" type="line"/>
			<point x="90" y="444"/>
			<point x="58" y="393"/>
			<point x="58" y="338" type="curve" smooth="yes"/>
			<point x="58" y="259"/>
			<point x="107" y="208"/>
			<point x="208" y="166" type="curve" smooth="yes"/>
			<point x="306" y="125"/>
			<point x="341" y="91"/>
			<point x="341" y="32" type="curve" smooth="yes"/>
			<point x="341" y="-27"/>
			<point x="301" y="-70"/>
			<point x="219" y="-70" type="curve" smooth="yes"/>
			<point x="188" y="-70"/>
			<point x="163" y="-61"/>
			<point x="138" y="-47" type="curve"/>
			<point x="165" y="-72" type="line"/>
			<point x="132" y="3" type="line" smooth="yes"/>
			<point x="122" y="24"/>
			<point x="110" y="34"/>
			<point x="93" y="34" type="curve" smooth="yes"/>
			<point x="77" y="34"/>
			<point x="66" y="26"/>
			<point x="62" y="8" type="curve"/>
			<point x="78" y="-57"/>
			<point x="139" y="-100"/>
		</contour>
	</outline>
</glyph>
<glyph name="degree" format="1">
  <advance width="313"/>
  <unicode hex="00B0"/>
  <outline>
    <contour>
      <point x="157" y="476" type="curve" smooth="yes"/>
      <point x="109" y="476"/>
      <point x="70" y="513"/>
      <point x="70" y="568" type="curve" smooth="yes"/>
      <point x="70" y="623"/>
      <point x="109" y="662"/>
      <point x="157" y="662" type="curve" smooth="yes"/>
      <point x="205" y="662"/>
      <point x="244" y="623"/>
      <point x="244" y="568" type="curve" smooth="yes"/>
      <point x="244" y="513"/>
      <point x="205" y="476"/>
    </contour>
    <contour>
      <point x="157" y="449" type="curve" smooth="yes"/>
      <point x="221" y="449"/>
      <point x="276" y="495"/>
      <point x="276" y="568" type="curve" smooth="yes"/>
      <point x="276" y="641"/>
      <point x="221" y="689"/>
      <point x="157" y="689" type="curve" smooth="yes"/>
      <point x="93" y="689"/>
      <point x="38" y="641"/>
      <point x="38" y="568" type="curve" smooth="yes"/>
      <point x="38" y="495"/>
      <point x="93" y="449"/>
    </contour>
  </outline>
</glyph>
<glyph name="mu.math" format="1">
  <advance width="581"/>
  <unicode hex="00B5"/>
  <outline>
    <contour>
      <point x="245" y="-15" type="curve" smooth="yes"/>
      <point x="307" y="-15"/>
      <point x="373" y="25"/>
      <point x="427" y="119" type="curve"/>
      <point x="419" y="135" type="line"/>
      <point x="364" y="69"/>
      <point x="310" y="39"/>
      <point x="248" y="39" type="curve" smooth="yes"/>
      <point x="180" y="39"/>
      <point x="140" y="75"/>
      <point x="140" y="177" type="curve" smooth="yes"/>
      <point x="140" y="197" type="line"/>
      <point x="120" y="197" type="line"/>
      <point x="120" y="158" type="line" smooth="yes"/>
      <point x="120" y="28"/>
      <point x="169" y="-15"/>
    </contour>
    <contour>
      <point x="102" y="80" type="line"/>
      <point x="80" y="-136" type="line" smooth="yes"/>
      <point x="76" y="-165"/>
      <point x="70" y="-197"/>
      <point x="70" y="-223" type="curve" smooth="yes"/>
      <point x="70" y="-247"/>
      <point x="79" y="-259"/>
      <point x="99" y="-259" type="curve" smooth="yes"/>
      <point x="113" y="-259"/>
      <point x="122" y="-255"/>
      <point x="129" y="-250" type="curve"/>
      <point x="132" y="87" type="line"/>
      <point x="140" y="90" type="line"/>
      <point x="140" y="369" type="line"/>
      <point x="144" y="473" type="line"/>
      <point x="130" y="481" type="line"/>
      <point x="98" y="466" type="line"/>
      <point x="102" y="256" type="line"/>
    </contour>
    <contour>
      <point x="446" y="369" type="line"/>
      <point x="450" y="473" type="line"/>
      <point x="436" y="481" type="line"/>
      <point x="404" y="465" type="line"/>
      <point x="408" y="256" type="line"/>
      <point x="408" y="91" type="line" smooth="yes"/>
      <point x="408" y="20"/>
      <point x="429" y="-13"/>
      <point x="482" y="-13" type="curve" smooth="yes"/>
      <point x="508" y="-13"/>
      <point x="529" y="-4"/>
      <point x="551" y="17" type="curve"/>
      <point x="537" y="49" type="line"/>
      <point x="521" y="38"/>
      <point x="506" y="34"/>
      <point x="488" y="34" type="curve" smooth="yes"/>
      <point x="462" y="34"/>
      <point x="446" y="51"/>
      <point x="446" y="99" type="curve" smooth="yes"/>
    </contour>
  </outline>
</glyph>
<glyph name="AE" format="1">
  <advance width="910"/>
  <unicode hex="00C6"/>
  <outline>
    <contour>
      <point x="464" y="269" type="line"/>
      <point x="464" y="188"/>
      <point x="464" y="93"/>
      <point x="462" y="0" type="curve"/>
      <point x="521" y="0" type="line"/>
      <point x="518" y="102"/>
      <point x="518" y="206"/>
      <point x="518" y="333" type="curve" smooth="yes"/>
      <point x="518" y="352" type="line" smooth="yes"/>
      <point x="518" y="469"/>
      <point x="518" y="573"/>
      <point x="521" y="674" type="curve"/>
      <point x="464" y="674" type="line"/>
    </contour>
    <contour>
      <point x="106" y="38" type="line"/>
      <point x="9" y="28" type="line"/>
      <point x="9" y="0" type="line"/>
      <point x="220" y="0" type="line"/>
      <point x="220" y="28" type="line"/>
      <point x="122" y="38" type="line"/>
    </contour>
    <contour>
      <point x="696" y="333" type="line"/>
      <point x="708" y="230" type="line"/>
      <point x="738" y="230" type="line"/>
      <point x="738" y="454" type="line"/>
      <point x="708" y="454" type="line"/>
      <point x="696" y="353" type="line"/>
    </contour>
    <contour>
      <point x="832" y="163" type="line"/>
      <point x="808" y="0" type="line"/>
      <point x="835" y="33" type="line"/>
      <point x="491" y="33" type="line"/>
      <point x="491" y="0" type="line"/>
      <point x="860" y="0" type="line"/>
      <point x="869" y="163" type="line"/>
    </contour>
    <contour>
      <point x="816" y="511" type="line"/>
      <point x="853" y="511" type="line"/>
      <point x="844" y="674" type="line"/>
      <point x="491" y="674" type="line"/>
      <point x="491" y="641" type="line"/>
      <point x="818" y="641" type="line"/>
      <point x="792" y="674" type="line"/>
    </contour>
    <contour>
      <point x="483" y="38" type="line"/>
      <point x="363" y="28" type="line"/>
      <point x="363" y="0" type="line"/>
      <point x="491" y="0" type="line"/>
      <point x="491" y="38" type="line"/>
    </contour>
    <contour>
      <point x="464" y="636" type="line"/>
      <point x="491" y="636" type="line"/>
      <point x="491" y="674" type="line"/>
      <point x="338" y="674" type="line"/>
      <point x="338" y="646" type="line"/>
    </contour>
    <contour>
      <point x="433" y="674" type="line"/>
      <point x="72" y="0" type="line"/>
      <point x="111" y="0" type="line"/>
      <point x="473" y="674" type="line"/>
    </contour>
    <contour>
      <point x="491" y="258" type="line"/>
      <point x="491" y="289" type="line"/>
      <point x="245" y="289" type="line"/>
      <point x="229" y="258" type="line"/>
    </contour>
    <contour>
      <point x="715" y="358" type="line"/>
      <point x="491" y="358" type="line"/>
      <point x="491" y="326" type="line"/>
      <point x="715" y="326" type="line"/>
    </contour>
  </outline>
</glyph>
<glyph name="Oslash" format="1">
  <advance width="706"/>
  <unicode hex="00D8"/>
  <outline>
    <contour>
      <point x="639" y="672" type="line"/>
      <point x="612" y="694" type="line"/>
      <point x="63" y="5" type="line"/>
      <point x="91" y="-18" type="line"/>
    </contour>
    <component base="O"/>
  </outline>
</glyph>
<glyph name="ae" format="1">
  <advance width="787"/>
  <unicode hex="00E6"/>
  <outline>
    <contour>
      <point x="105" y="114" type="curve" smooth="yes"/>
      <point x="105" y="158"/>
      <point x="132" y="197"/>
      <point x="217" y="229" type="curve" smooth="yes"/>
      <point x="259" y="245"/>
      <point x="318" y="262"/>
      <point x="367" y="273" type="curve"/>
      <point x="367" y="298" type="line"/>
      <point x="316" y="287"/>
      <point x="258" y="273"/>
      <point x="208" y="256" type="curve" smooth="yes"/>
      <point x="95" y="218"/>
      <point x="53" y="172"/>
      <point x="53" y="106" type="curve" smooth="yes"/>
      <point x="53" y="27"/>
      <point x="108" y="-15"/>
      <point x="183" y="-15" type="curve" smooth="yes"/>
      <point x="246" y="-15"/>
      <point x="290" y="10"/>
      <point x="382" y="109" type="curve"/>
      <point x="369" y="128" type="line"/>
      <point x="280" y="44"/>
      <point x="244" y="27"/>
      <point x="201" y="27" type="curve" smooth="yes"/>
      <point x="170" y="27"/>
      <point x="143" y="36"/>
      <point x="127" y="53" type="curve" smooth="yes"/>
      <point x="114" y="68"/>
      <point x="105" y="88"/>
    </contour>
    <contour>
      <point x="560" y="-15" type="curve" smooth="yes"/>
      <point x="636" y="-15"/>
      <point x="699" y="21"/>
      <point x="738" y="79" type="curve"/>
      <point x="722" y="93" type="line"/>
      <point x="683" y="51"/>
      <point x="636" y="26"/>
      <point x="572" y="26" type="curve" smooth="yes"/>
      <point x="475" y="26"/>
      <point x="393" y="97"/>
      <point x="393" y="245" type="curve" smooth="yes"/>
      <point x="393" y="374"/>
      <point x="467" y="456"/>
      <point x="556" y="456" type="curve" smooth="yes"/>
      <point x="640" y="456"/>
      <point x="691" y="389"/>
      <point x="691" y="316" type="curve" smooth="yes"/>
      <point x="691" y="287"/>
      <point x="682" y="273"/>
      <point x="655" y="273" type="curve" smooth="yes"/>
      <point x="367" y="273" type="line"/>
      <point x="367" y="243" type="line"/>
      <point x="734" y="243" type="line"/>
      <point x="738" y="257"/>
      <point x="741" y="276"/>
      <point x="741" y="299" type="curve" smooth="yes"/>
      <point x="741" y="407"/>
      <point x="669" y="486"/>
      <point x="558" y="486" type="curve" smooth="yes"/>
      <point x="478" y="486"/>
      <point x="410" y="440"/>
      <point x="370" y="356" type="curve"/>
      <point x="362" y="346" type="line"/>
      <point x="347" y="314"/>
      <point x="339" y="277"/>
      <point x="339" y="237" type="curve" smooth="yes"/>
      <point x="339" y="69"/>
      <point x="441" y="-15"/>
    </contour>
    <contour>
      <point x="390" y="338" type="line"/>
      <point x="390" y="443"/>
      <point x="334" y="486"/>
      <point x="243" y="486" type="curve" smooth="yes"/>
      <point x="152" y="486"/>
      <point x="85" y="443"/>
      <point x="65" y="369" type="curve"/>
      <point x="68" y="351"/>
      <point x="79" y="340"/>
      <point x="97" y="340" type="curve" smooth="yes"/>
      <point x="114" y="340"/>
      <point x="128" y="350"/>
      <point x="134" y="370" type="curve" smooth="yes"/>
      <point x="153" y="448" type="line"/>
      <point x="121" y="420" type="line"/>
      <point x="160" y="447"/>
      <point x="196" y="456"/>
      <point x="234" y="456" type="curve" smooth="yes"/>
      <point x="306" y="456"/>
      <point x="343" y="430"/>
      <point x="343" y="324" type="curve" smooth="yes"/>
      <point x="343" y="258" type="line"/>
      <point x="390" y="258" type="line"/>
    </contour>
  </outline>
</glyph>
<glyph name="eth" format="1">
  <advance width="543"/>
  <unicode hex="00F0"/>
  <outline>
    <contour>
      <point x="161" y="540" type="line"/>
      <point x="490" y="710" type="line"/>
      <point x="478" y="736" type="line"/>
      <point x="148" y="566" type="line"/>
    </contour>
    <contour>
      <point x="268" y="438" type="curve" smooth="yes"/>
      <point x="359" y="438"/>
      <point x="432" y="370"/>
      <point x="432" y="230" type="curve" smooth="yes"/>
      <point x="432" y="104"/>
      <point x="371" y="15"/>
      <point x="268" y="15" type="curve" smooth="yes"/>
      <point x="173" y="15"/>
      <point x="105" y="96"/>
      <point x="105" y="227" type="curve" smooth="yes"/>
      <point x="105" y="363"/>
      <point x="171" y="438"/>
    </contour>
    <contour>
      <point x="264" y="-15" type="curve" smooth="yes"/>
      <point x="399" y="-15"/>
      <point x="485" y="89"/>
      <point x="485" y="268" type="curve" smooth="yes"/>
      <point x="485" y="488"/>
      <point x="379" y="651"/>
      <point x="164" y="755" type="curve"/>
      <point x="149" y="731" type="line"/>
      <point x="344" y="623"/>
      <point x="411" y="503"/>
      <point x="435" y="329" type="curve"/>
      <point x="445" y="332" type="line"/>
      <point x="416" y="419"/>
      <point x="350" y="468"/>
      <point x="266" y="468" type="curve" smooth="yes"/>
      <point x="148" y="468"/>
      <point x="50" y="380"/>
      <point x="50" y="229" type="curve" smooth="yes"/>
      <point x="50" y="76"/>
      <point x="145" y="-15"/>
    </contour>
  </outline>
</glyph>
<glyph name="oslash" format="1">
  <advance width="542"/>
  <unicode hex="00F8"/>
  <outline>
    <contour>
      <point x="481" y="478" type="line"/>
      <point x="458" y="496" type="line"/>
      <point x="55" y="-4" type="line"/>
      <point x="78" y="-22" type="line"/>
    </contour>
    <component base="o"/>
  </outline>
</glyph>
<glyph name="thorn" format="1">
  <advance width="568"/>
  <unicode hex="00FE"/>
  <outline>
    <contour>
      <point x="465" y="238" type="curve" smooth="yes"/>
      <point x="465" y="89"/>
      <point x="393" y="22"/>
      <point x="311" y="22" type="curve" smooth="yes"/>
      <point x="255" y="22"/>
      <point x="205" y="48"/>
      <point x="151" y="109" type="curve"/>
      <point x="142" y="95" type="line"/>
      <point x="195" y="11"/>
      <point x="259" y="-15"/>
      <point x="317" y="-15" type="curve" smooth="yes"/>
      <point x="437" y="-15"/>
      <point x="519" y="87"/>
      <point x="519" y="242" type="curve" smooth="yes"/>
      <point x="519" y="388"/>
      <point x="439" y="486"/>
      <point x="326" y="486" type="curve" smooth="yes"/>
      <point x="264" y="486"/>
      <point x="196" y="456"/>
      <point x="142" y="375" type="curve"/>
      <point x="151" y="358" type="line"/>
      <point x="212" y="428"/>
      <point x="263" y="449"/>
      <point x="313" y="449" type="curve" smooth="yes"/>
      <point x="401" y="449"/>
      <point x="465" y="376"/>
    </contour>
    <contour>
      <point x="149" y="-205" type="line"/>
      <point x="136" y="-205" type="line"/>
      <point x="30" y="-217" type="line"/>
      <point x="30" y="-243" type="line"/>
      <point x="267" y="-243" type="line"/>
      <point x="267" y="-217" type="line"/>
    </contour>
    <contour>
      <point x="168" y="385" type="line"/>
      <point x="167" y="396" type="line"/>
      <point x="167" y="585" type="line"/>
      <point x="170" y="727" type="line"/>
      <point x="155" y="735" type="line"/>
      <point x="31" y="709" type="line"/>
      <point x="31" y="683" type="line"/>
      <point x="119" y="679" type="line"/>
      <point x="119" y="-33" type="line" smooth="yes"/>
      <point x="119" y="-98"/>
      <point x="118" y="-188"/>
      <point x="116" y="-243" type="curve"/>
      <point x="170" y="-243" type="line"/>
      <point x="168" y="-188"/>
      <point x="167" y="-98"/>
      <point x="167" y="-33" type="curve" smooth="yes"/>
      <point x="167" y="66" type="line"/>
      <point x="168" y="74" type="line"/>
    </contour>
  </outline>
</glyph>
<glyph name="aogonek" format="1">
  <advance width="506"/>
  <unicode hex="0105"/>
  <outline>
    <contour>
      <point x="434" y="24" type="curve" smooth="yes"/>
      <point x="407" y="24"/>
      <point x="392" y="46"/>
      <point x="392" y="110" type="curve" smooth="yes"/>
      <point x="392" y="331" type="line" smooth="yes"/>
      <point x="392" y="442"/>
      <point x="342" y="486"/>
      <point x="243" y="486" type="curve" smooth="yes"/>
      <point x="152" y="486"/>
      <point x="85" y="443"/>
      <point x="65" y="369" type="curve"/>
      <point x="68" y="351"/>
      <point x="79" y="340"/>
      <point x="97" y="340" type="curve" smooth="yes"/>
      <point x="114" y="340"/>
      <point x="128" y="350"/>
      <point x="134" y="370" type="curve" smooth="yes"/>
      <point x="153" y="448" type="line"/>
      <point x="121" y="420" type="line"/>
      <point x="160" y="447"/>
      <point x="196" y="456"/>
      <point x="233" y="456" type="curve" smooth="yes"/>
      <point x="307" y="456"/>
      <point x="343" y="430"/>
      <point x="343" y="324" type="curve" smooth="yes"/>
      <point x="343" y="95" type="line" smooth="yes"/>
      <point x="343" y="27"/>
      <point x="367" y="-10"/>
      <point x="426" y="-10" type="curve"/>
      <point x="428" y="-5" type="line"/>
      <point x="379" y="-33"/>
      <point x="333" y="-74"/>
      <point x="333" y="-128" type="curve" smooth="yes"/>
      <point x="333" y="-185"/>
      <point x="371" y="-217"/>
      <point x="420" y="-217" type="curve" smooth="yes"/>
      <point x="459" y="-217"/>
      <point x="491" y="-202"/>
      <point x="511" y="-174" type="curve"/>
      <point x="500" y="-159" type="line"/>
      <point x="478" y="-176"/>
      <point x="460" y="-180"/>
      <point x="440" y="-180" type="curve" smooth="yes"/>
      <point x="402" y="-180"/>
      <point x="374" y="-155"/>
      <point x="374" y="-108" type="curve" smooth="yes"/>
      <point x="374" y="-70"/>
      <point x="409" y="-35"/>
      <point x="453" y="-6" type="curve" smooth="yes"/>
      <point x="468" y="5"/>
      <point x="480" y="12"/>
      <point x="492" y="26" type="curve"/>
      <point x="479" y="42" type="line"/>
      <point x="473" y="38" type="line" smooth="yes"/>
      <point x="463" y="30"/>
      <point x="450" y="24"/>
    </contour>
    <contour>
      <point x="105" y="114" type="curve" smooth="yes"/>
      <point x="105" y="158"/>
      <point x="132" y="197"/>
      <point x="217" y="229" type="curve" smooth="yes"/>
      <point x="259" y="245"/>
      <point x="319" y="262"/>
      <point x="367" y="273" type="curve"/>
      <point x="367" y="298" type="line"/>
      <point x="317" y="287"/>
      <point x="258" y="273"/>
      <point x="208" y="256" type="curve" smooth="yes"/>
      <point x="95" y="218"/>
      <point x="53" y="172"/>
      <point x="53" y="106" type="curve" smooth="yes"/>
      <point x="53" y="28"/>
      <point x="108" y="-15"/>
      <point x="180" y="-15" type="curve" smooth="yes"/>
      <point x="246" y="-15"/>
      <point x="287" y="17"/>
      <point x="349" y="83" type="curve" smooth="yes"/>
      <point x="366" y="100" type="line"/>
      <point x="360" y="124" type="line"/>
      <point x="345" y="111" type="line" smooth="yes"/>
      <point x="282" y="51"/>
      <point x="246" y="27"/>
      <point x="198" y="27" type="curve" smooth="yes"/>
      <point x="173" y="27"/>
      <point x="147" y="33"/>
      <point x="127" y="53" type="curve" smooth="yes"/>
      <point x="114" y="68"/>
      <point x="105" y="88"/>
    </contour>
  </outline>
</glyph>
<glyph name="dcroat" format="1">
  <advance width="571"/>
  <unicode hex="0111"/>
  <outline>
    <contour>
      <point x="209" y="566" type="line"/>
      <point x="540" y="566" type="line"/>
      <point x="540" y="599" type="line"/>
      <point x="209" y="599" type="line"/>
    </contour>
    <contour>
      <point x="103" y="226" type="curve" smooth="yes"/>
      <point x="103" y="369"/>
      <point x="177" y="435"/>
      <point x="268" y="435" type="curve" smooth="yes"/>
      <point x="318" y="435"/>
      <point x="362" y="411"/>
      <point x="413" y="355" type="curve"/>
      <point x="422" y="374" type="line"/>
      <point x="373" y="446"/>
      <point x="318" y="472"/>
      <point x="260" y="472" type="curve" smooth="yes"/>
      <point x="141" y="472"/>
      <point x="50" y="376"/>
      <point x="50" y="225" type="curve" smooth="yes"/>
      <point x="50" y="85"/>
      <point x="131" y="-15"/>
      <point x="249" y="-15" type="curve" smooth="yes"/>
      <point x="315" y="-15"/>
      <point x="374" y="14"/>
      <point x="421" y="90" type="curve"/>
      <point x="412" y="110" type="line"/>
      <point x="363" y="47"/>
      <point x="318" y="22"/>
      <point x="260" y="22" type="curve" smooth="yes"/>
      <point x="171" y="22"/>
      <point x="103" y="91"/>
    </contour>
    <contour>
      <point x="436" y="36" type="line"/>
      <point x="451" y="0" type="line"/>
      <point x="451" y="587" type="line"/>
      <point x="454" y="727" type="line"/>
      <point x="440" y="735" type="line"/>
      <point x="314" y="709" type="line"/>
      <point x="314" y="683" type="line"/>
      <point x="403" y="679" type="line"/>
      <point x="403" y="386" type="line"/>
      <point x="402" y="378" type="line"/>
      <point x="402" y="87" type="line"/>
      <point x="404" y="-6" type="line"/>
      <point x="548" y="0" type="line"/>
      <point x="548" y="26" type="line"/>
    </contour>
  </outline>
</glyph>
<glyph name="Eogonek" format="1">
	<unicode hex="0118"/>
	<advance width="602"/>
	<outline>
		<component base="E"/>
		<component base="ogonekcmb" xOffset="476"/>
		<contour>
			<point name="aboveUC" x="326" y="686" type="move"/>
		</contour>
	</outline>
</glyph>
<glyph name="eogonek" format="1">
  <advance width="498"/>
  <unicode hex="0119"/>
  <outline>
    <contour>
      <point x="348" y="-217" type="curve" smooth="yes"/>
      <point x="387" y="-217"/>
      <point x="419" y="-202"/>
      <point x="439" y="-174" type="curve"/>
      <point x="428" y="-159" type="line"/>
      <point x="406" y="-176"/>
      <point x="388" y="-180"/>
      <point x="368" y="-180" type="curve" smooth="yes"/>
      <point x="330" y="-180"/>
      <point x="302" y="-155"/>
      <point x="302" y="-108" type="curve" smooth="yes"/>
      <point x="302" y="-68"/>
      <point x="334" y="-23"/>
      <point x="375" y="7" type="curve" smooth="yes"/>
      <point x="406" y="30"/>
      <point x="429" y="49"/>
      <point x="449" y="79" type="curve"/>
      <point x="433" y="93" type="line"/>
      <point x="394" y="51"/>
      <point x="347" y="26"/>
      <point x="283" y="26" type="curve" smooth="yes"/>
      <point x="186" y="26"/>
      <point x="104" y="99"/>
      <point x="104" y="245" type="curve" smooth="yes"/>
      <point x="104" y="375"/>
      <point x="178" y="456"/>
      <point x="267" y="456" type="curve" smooth="yes"/>
      <point x="351" y="456"/>
      <point x="402" y="389"/>
      <point x="402" y="316" type="curve" smooth="yes"/>
      <point x="402" y="286"/>
      <point x="393" y="273"/>
      <point x="366" y="273" type="curve" smooth="yes"/>
      <point x="76" y="273" type="line"/>
      <point x="76" y="243" type="line"/>
      <point x="445" y="243" type="line"/>
      <point x="449" y="257"/>
      <point x="452" y="276"/>
      <point x="452" y="299" type="curve" smooth="yes"/>
      <point x="452" y="407"/>
      <point x="380" y="486"/>
      <point x="269" y="486" type="curve" smooth="yes"/>
      <point x="153" y="486"/>
      <point x="50" y="387"/>
      <point x="50" y="237" type="curve" smooth="yes"/>
      <point x="50" y="69"/>
      <point x="152" y="-15"/>
      <point x="271" y="-15" type="curve" smooth="yes"/>
      <point x="297" y="-15"/>
      <point x="325" y="-11"/>
      <point x="349" y="-3" type="curve"/>
      <point x="349" y="7" type="line"/>
      <point x="307" y="-22"/>
      <point x="261" y="-72"/>
      <point x="261" y="-128" type="curve" smooth="yes"/>
      <point x="261" y="-185"/>
      <point x="299" y="-217"/>
    </contour>
  </outline>
</glyph>
<glyph name="Iogonek" format="1">
	<unicode hex="012E"/>
	<advance width="366"/>
	<outline>
		<component base="I"/>
		<component base="ogonekcmb" xOffset="197"/>
		<contour>
			<point name="aboveUC" x="183" y="686" type="move"/>
		</contour>
	</outline>
</glyph>
<glyph name="dotlessi" format="1">
  <advance width="301"/>
  <unicode hex="0131"/>
  <outline>
    <contour>
      <point x="181" y="0" type="line"/>
      <point x="179" y="45"/>
      <point x="178" y="148"/>
      <point x="178" y="210" type="curve" smooth="yes"/>
      <point x="178" y="349" type="line"/>
      <point x="181" y="473" type="line"/>
      <point x="169" y="481" type="line"/>
      <point x="38" y="449" type="line"/>
      <point x="38" y="423" type="line"/>
      <point x="126" y="419" type="line"/>
      <point x="128" y="373"/>
      <point x="129" y="321"/>
      <point x="129" y="257" type="curve" smooth="yes"/>
      <point x="129" y="210" type="line" smooth="yes"/>
      <point x="129" y="148"/>
      <point x="128" y="45"/>
      <point x="126" y="0" type="curve"/>
    </contour>
    <contour>
      <point x="160" y="38" type="line"/>
      <point x="147" y="38" type="line"/>
      <point x="43" y="26" type="line"/>
      <point x="43" y="0" type="line"/>
      <point x="257" y="0" type="line"/>
      <point x="257" y="26" type="line"/>
    </contour>
  </outline>
</glyph>
<glyph name="Lslash" format="1">
	<unicode hex="0141"/>
	<advance width="577"/>
	<outline>
		<contour>
			<point x="396" y="456" type="line"/>
			<point x="183" y="334" type="line"/>
			<point x="183" y="294" type="line"/>
			<point x="396" y="416" type="line"/>
		</contour>
		<contour>
			<point x="183" y="336" type="line"/>
			<point x="53" y="261" type="line"/>
			<point x="53" y="222" type="line"/>
			<point x="183" y="296" type="line"/>
		</contour>
		<component base="L" yOffset="1"/>
	</outline>
</glyph>
<glyph name="lslash" format="1">
	<unicode hex="0142"/>
	<advance width="300"/>
	<outline>
		<contour>
			<point x="149" y="404" type="line"/>
			<point x="31" y="338" type="line"/>
			<point x="31" y="299" type="line"/>
			<point x="149" y="364" type="line"/>
		</contour>
		<contour>
			<point x="266" y="467" type="line"/>
			<point x="149" y="401" type="line"/>
			<point x="149" y="363" type="line"/>
			<point x="266" y="427" type="line"/>
		</contour>
		<component base="l"/>
	</outline>
</glyph>
<glyph name="OE" format="1">
  <advance width="922"/>
  <unicode hex="0152"/>
  <outline>
    <contour>
      <point x="120" y="337" type="curve" smooth="yes"/>
      <point x="120" y="503"/>
      <point x="198" y="656"/>
      <point x="380" y="656" type="curve" smooth="yes"/>
      <point x="420" y="656"/>
      <point x="461" y="647"/>
      <point x="503" y="631" type="curve"/>
      <point x="503" y="674" type="line"/>
      <point x="459" y="684"/>
      <point x="419" y="689"/>
      <point x="383" y="689" type="curve" smooth="yes"/>
      <point x="194" y="689"/>
      <point x="57" y="551"/>
      <point x="57" y="337" type="curve" smooth="yes"/>
      <point x="57" y="123"/>
      <point x="193" y="-15"/>
      <point x="383" y="-15" type="curve" smooth="yes"/>
      <point x="419" y="-15"/>
      <point x="459" y="-10"/>
      <point x="503" y="0" type="curve"/>
      <point x="503" y="43" type="line"/>
      <point x="460" y="27"/>
      <point x="420" y="18"/>
      <point x="380" y="18" type="curve" smooth="yes"/>
      <point x="198" y="18"/>
      <point x="120" y="172"/>
    </contour>
    <contour>
      <point x="476" y="310" type="line"/>
      <point x="476" y="206"/>
      <point x="476" y="102"/>
      <point x="473" y="0" type="curve"/>
      <point x="533" y="0" type="line"/>
      <point x="530" y="102"/>
      <point x="530" y="206"/>
      <point x="530" y="333" type="curve" smooth="yes"/>
      <point x="530" y="352" type="line" smooth="yes"/>
      <point x="530" y="469"/>
      <point x="530" y="573"/>
      <point x="533" y="674" type="curve"/>
      <point x="473" y="674" type="line"/>
      <point x="476" y="572"/>
      <point x="476" y="468"/>
      <point x="476" y="364" type="curve" smooth="yes"/>
    </contour>
    <contour>
      <point x="707" y="333" type="line"/>
      <point x="719" y="230" type="line"/>
      <point x="749" y="230" type="line"/>
      <point x="749" y="454" type="line"/>
      <point x="719" y="454" type="line"/>
      <point x="707" y="353" type="line"/>
    </contour>
    <contour>
      <point x="844" y="163" type="line"/>
      <point x="820" y="0" type="line"/>
      <point x="847" y="33" type="line"/>
      <point x="503" y="33" type="line"/>
      <point x="503" y="0" type="line"/>
      <point x="872" y="0" type="line"/>
      <point x="881" y="163" type="line"/>
    </contour>
    <contour>
      <point x="828" y="511" type="line"/>
      <point x="865" y="511" type="line"/>
      <point x="856" y="674" type="line"/>
      <point x="503" y="674" type="line"/>
      <point x="503" y="641" type="line"/>
      <point x="830" y="641" type="line"/>
      <point x="804" y="674" type="line"/>
    </contour>
    <contour>
      <point x="726" y="358" type="line"/>
      <point x="503" y="358" type="line"/>
      <point x="503" y="326" type="line"/>
      <point x="726" y="326" type="line"/>
    </contour>
  </outline>
</glyph>
<glyph name="oe" format="1">
  <advance width="880"/>
  <unicode hex="0153"/>
  <outline>
    <contour>
      <point x="271" y="456" type="curve" smooth="yes"/>
      <point x="373" y="456"/>
      <point x="437" y="372"/>
      <point x="437" y="234" type="curve" smooth="yes"/>
      <point x="437" y="97"/>
      <point x="373" y="15"/>
      <point x="271" y="15" type="curve" smooth="yes"/>
      <point x="169" y="15"/>
      <point x="105" y="97"/>
      <point x="105" y="234" type="curve" smooth="yes"/>
      <point x="105" y="372"/>
      <point x="169" y="456"/>
    </contour>
    <contour>
      <point x="476" y="148" type="curve"/>
      <point x="449" y="148" type="line"/>
      <point x="475" y="40"/>
      <point x="558" y="-15"/>
      <point x="652" y="-15" type="curve" smooth="yes"/>
      <point x="728" y="-15"/>
      <point x="791" y="19"/>
      <point x="829" y="79" type="curve"/>
      <point x="814" y="93" type="line"/>
      <point x="779" y="52"/>
      <point x="729" y="26"/>
      <point x="664" y="26" type="curve" smooth="yes"/>
      <point x="568" y="26"/>
      <point x="486" y="97"/>
      <point x="486" y="246" type="curve" smooth="yes"/>
      <point x="486" y="371"/>
      <point x="560" y="456"/>
      <point x="648" y="456" type="curve" smooth="yes"/>
      <point x="734" y="456"/>
      <point x="783" y="389"/>
      <point x="783" y="316" type="curve" smooth="yes"/>
      <point x="783" y="287"/>
      <point x="775" y="273"/>
      <point x="746" y="273" type="curve" smooth="yes"/>
      <point x="458" y="273" type="line"/>
      <point x="458" y="243" type="line"/>
      <point x="826" y="243" type="line"/>
      <point x="831" y="257"/>
      <point x="833" y="276"/>
      <point x="833" y="299" type="curve" smooth="yes"/>
      <point x="833" y="407"/>
      <point x="762" y="486"/>
      <point x="650" y="486" type="curve" smooth="yes"/>
      <point x="562" y="486"/>
      <point x="478" y="423"/>
      <point x="451" y="321" type="curve"/>
      <point x="476" y="321" type="line"/>
      <point x="450" y="432"/>
      <point x="356" y="486"/>
      <point x="271" y="486" type="curve" smooth="yes"/>
      <point x="161" y="486"/>
      <point x="50" y="403"/>
      <point x="50" y="234" type="curve" smooth="yes"/>
      <point x="50" y="66"/>
      <point x="161" y="-15"/>
      <point x="271" y="-15" type="curve" smooth="yes"/>
      <point x="357" y="-15"/>
      <point x="448" y="39"/>
    </contour>
  </outline>
</glyph>
<glyph name="uogonek" format="1">
	<unicode hex="0173"/>
	<advance width="595"/>
	<outline>
		<contour>
			<point x="393" y="-130" type="curve" smooth="yes"/>
			<point x="393" y="-188"/>
			<point x="431" y="-219"/>
			<point x="481" y="-219" type="curve" smooth="yes"/>
			<point x="521" y="-219"/>
			<point x="553" y="-204"/>
			<point x="573" y="-176" type="curve"/>
			<point x="562" y="-161" type="line"/>
			<point x="540" y="-178"/>
			<point x="522" y="-183"/>
			<point x="502" y="-183" type="curve" smooth="yes"/>
			<point x="463" y="-183"/>
			<point x="435" y="-157"/>
			<point x="435" y="-109" type="curve" smooth="yes"/>
			<point x="435" y="-72"/>
			<point x="462" y="-32"/>
			<point x="514" y="4" type="curve"/>
			<point x="491" y="4" type="line"/>
			<point x="437" y="-29"/>
			<point x="393" y="-76"/>
		</contour>
		<component base="u"/>
		<contour>
			<point name="aboveLC" x="288" y="502" type="move"/>
		</contour>
	</outline>
</glyph>
<glyph name="longs" format="1">
  <advance width="350"/>
  <unicode hex="017F"/>
  <outline>
    <contour>
      <point x="154" y="38" type="line"/>
      <point x="141" y="38" type="line"/>
      <point x="30" y="26" type="line"/>
      <point x="30" y="0" type="line"/>
      <point x="275" y="0" type="line"/>
      <point x="275" y="26" type="line"/>
    </contour>
    <contour>
      <point x="124" y="210" type="line"/>
      <point x="124" y="140"/>
      <point x="122" y="70"/>
      <point x="120" y="0" type="curve"/>
      <point x="177" y="0" type="line"/>
      <point x="175" y="70"/>
      <point x="173" y="140"/>
      <point x="173" y="210" type="curve" smooth="yes"/>
      <point x="173" y="444" type="line" smooth="yes"/>
      <point x="173" y="579"/>
      <point x="192" y="637"/>
      <point x="223" y="678" type="curve" smooth="yes"/>
      <point x="246" y="708"/>
      <point x="271" y="725"/>
      <point x="313" y="733" type="curve"/>
      <point x="259" y="732" type="line"/>
      <point x="301" y="709" type="line" smooth="yes"/>
      <point x="328" y="696"/>
      <point x="343" y="691"/>
      <point x="360" y="691" type="curve" smooth="yes"/>
      <point x="385" y="691"/>
      <point x="400" y="703"/>
      <point x="402" y="722" type="curve"/>
      <point x="394" y="742"/>
      <point x="364" y="755"/>
      <point x="326" y="755" type="curve" smooth="yes"/>
      <point x="287" y="755"/>
      <point x="237" y="742"/>
      <point x="195" y="697" type="curve" smooth="yes"/>
      <point x="145" y="642"/>
      <point x="124" y="568"/>
      <point x="124" y="444" type="curve" smooth="yes"/>
    </contour>
  </outline>
</glyph>
<glyph name="Ohorn" format="1">
	<unicode hex="01A0"/>
	<advance width="706"/>
	<outline>
		<component base="O"/>
		<component base="horncmb" xOffset="512" yOffset="206"/>
		<contour>
			<point name="aboveUC" x="353" y="686" type="move"/>
		</contour>
		<contour>
			<point name="belowLC" x="356" y="-22" type="move"/>
		</contour>
	</outline>
</glyph>
<glyph name="ohorn" format="1">
	<unicode hex="01A1"/>
	<advance width="542"/>
	<outline>
		<component base="o"/>
		<component base="horncmb" xOffset="405"/>
		<contour>
			<point name="aboveLC" x="271" y="502" type="move"/>
		</contour>
		<contour>
			<point name="belowLC" x="270" y="-22" type="move"/>
		</contour>
	</outline>
</glyph>
<glyph name="Uhorn" format="1">
	<unicode hex="01AF"/>
	<advance width="733"/>
	<outline>
		<contour>
			<point x="193" y="266" type="curve" smooth="yes"/>
			<point x="193" y="361" type="line" smooth="yes"/>
			<point x="193" y="467"/>
			<point x="193" y="571"/>
			<point x="196" y="674" type="curve"/>
			<point x="136" y="674" type="line"/>
			<point x="139" y="571"/>
			<point x="139" y="465"/>
			<point x="139" y="361" type="curve" smooth="yes"/>
			<point x="139" y="250" type="line" smooth="yes"/>
			<point x="139" y="63"/>
			<point x="230" y="-14"/>
			<point x="369" y="-14" type="curve" smooth="yes"/>
			<point x="518" y="-14"/>
			<point x="601" y="74"/>
			<point x="601" y="258" type="curve" smooth="yes"/>
			<point x="601" y="674" type="line"/>
			<point x="567" y="674" type="line"/>
			<point x="567" y="284" type="line" smooth="yes"/>
			<point x="567" y="100"/>
			<point x="508" y="30"/>
			<point x="375" y="30" type="curve" smooth="yes"/>
			<point x="265" y="30"/>
			<point x="193" y="92"/>
		</contour>
		<contour>
			<point x="162" y="636" type="line"/>
			<point x="179" y="636" type="line"/>
			<point x="301" y="646" type="line"/>
			<point x="301" y="674" type="line"/>
			<point x="46" y="674" type="line"/>
			<point x="46" y="646" type="line"/>
		</contour>
		<contour>
			<point x="583" y="636" type="line"/>
			<point x="583" y="674" type="line"/>
			<point x="453" y="674" type="line"/>
			<point x="453" y="646" type="line"/>
			<point x="573" y="636" type="line"/>
		</contour>
		<contour>
			<point x="593" y="591" type="line"/>
			<point x="689" y="601"/>
			<point x="732" y="666"/>
			<point x="732" y="736" type="curve" smooth="yes"/>
			<point x="732" y="762"/>
			<point x="725" y="781"/>
			<point x="717" y="796" type="curve"/>
			<point x="711" y="801"/>
			<point x="703" y="802"/>
			<point x="696" y="802" type="curve" smooth="yes"/>
			<point x="680" y="802"/>
			<point x="669" y="789"/>
			<point x="669" y="776" type="curve" smooth="yes"/>
			<point x="669" y="756"/>
			<point x="689" y="740"/>
			<point x="689" y="705" type="curve" smooth="yes"/>
			<point x="689" y="660"/>
			<point x="663" y="621"/>
			<point x="589" y="612" type="curve"/>
		</contour>
		<contour>
			<point name="aboveUC" x="374" y="686" type="move"/>
		</contour>
		<contour>
			<point name="belowLC" x="376" y="-22" type="move"/>
		</contour>
	</outline>
</glyph>
<glyph name="uhorn" format="1">
	<unicode hex="01B0"/>
	<advance width="595"/>
	<outline>
		<component base="u"/>
		<component base="horncmb" xOffset="475"/>
		<contour>
			<point name="aboveLC" x="288" y="502" type="move"/>
		</contour>
		<contour>
			<point name="belowLC" x="301" y="-22" type="move"/>
		</contour>
	</outline>
</glyph>
<glyph name="dotlessj" format="1">
	<unicode hex="0237"/>
	<advance width="277"/>
	<outline>
		<contour>
			<point x="126" y="76" type="line" smooth="yes"/>
			<point x="126" y="-68"/>
			<point x="122" y="-133"/>
			<point x="89" y="-184" type="curve" smooth="yes"/>
			<point x="74" y="-206"/>
			<point x="39" y="-230"/>
			<point x="15" y="-230" type="curve" smooth="yes"/>
			<point x="-9" y="-230"/>
			<point x="-25" y="-224"/>
			<point x="-35" y="-217" type="curve"/>
			<point x="-24" y="-241" type="line"/>
			<point x="72" y="-229" type="line"/>
			<point x="38" y="-209" type="line" smooth="yes"/>
			<point x="14" y="-195"/>
			<point x="-4" y="-190"/>
			<point x="-22" y="-190" type="curve" smooth="yes"/>
			<point x="-45" y="-190"/>
			<point x="-60" y="-200"/>
			<point x="-66" y="-218" type="curve"/>
			<point x="-63" y="-234"/>
			<point x="-42" y="-253"/>
			<point x="9" y="-253" type="curve" smooth="yes"/>
			<point x="51" y="-253"/>
			<point x="88" y="-239"/>
			<point x="121" y="-199" type="curve" smooth="yes"/>
			<point x="166" y="-145"/>
			<point x="174" y="-80"/>
			<point x="174" y="118" type="curve" smooth="yes"/>
			<point x="174" y="348" type="line"/>
			<point x="176" y="472" type="line"/>
			<point x="164" y="479" type="line"/>
			<point x="35" y="448" type="line"/>
			<point x="35" y="422" type="line"/>
			<point x="123" y="418" type="line"/>
			<point x="125" y="371"/>
			<point x="126" y="320"/>
			<point x="126" y="256" type="curve" smooth="yes"/>
		</contour>
		<contour>
			<point name="aboveLC" x="146" y="501" type="move"/>
		</contour>
	</outline>
</glyph>
<glyph name="gscript" format="1">
	<unicode hex="0261"/>
	<advance width="548"/>
	<outline>
		<contour>
			<point x="119" y="-193" type="curve"/>
			<point x="152" y="-226" type="line"/>
			<point x="122" y="-144" type="line" smooth="yes"/>
			<point x="113" y="-118"/>
			<point x="105" y="-106"/>
			<point x="86" y="-106" type="curve" smooth="yes"/>
			<point x="70" y="-106"/>
			<point x="58" y="-115"/>
			<point x="54" y="-130" type="curve"/>
			<point x="77" y="-213"/>
			<point x="141" y="-253"/>
			<point x="228" y="-253" type="curve" smooth="yes"/>
			<point x="300" y="-253"/>
			<point x="366" y="-232"/>
			<point x="407" y="-172" type="curve" smooth="yes"/>
			<point x="442" y="-123"/>
			<point x="453" y="-60"/>
			<point x="453" y="105" type="curve" smooth="yes"/>
			<point x="453" y="338" type="line"/>
			<point x="456" y="473" type="line"/>
			<point x="438" y="479" type="line"/>
			<point x="403" y="406" type="line"/>
			<point x="403" y="79" type="line" smooth="yes"/>
			<point x="403" y="-72"/>
			<point x="395" y="-116"/>
			<point x="372" y="-153" type="curve" smooth="yes"/>
			<point x="342" y="-205"/>
			<point x="281" y="-223"/>
			<point x="233" y="-223" type="curve" smooth="yes"/>
			<point x="187" y="-223"/>
			<point x="153" y="-212"/>
		</contour>
		<contour>
			<point x="247" y="-13" type="curve" smooth="yes"/>
			<point x="315" y="-13"/>
			<point x="374" y="15"/>
			<point x="421" y="91" type="curve"/>
			<point x="412" y="111" type="line"/>
			<point x="363" y="48"/>
			<point x="318" y="24"/>
			<point x="260" y="24" type="curve" smooth="yes"/>
			<point x="172" y="24"/>
			<point x="103" y="94"/>
			<point x="103" y="229" type="curve" smooth="yes"/>
			<point x="103" y="380"/>
			<point x="178" y="447"/>
			<point x="271" y="447" type="curve" smooth="yes"/>
			<point x="324" y="447"/>
			<point x="365" y="425"/>
			<point x="413" y="368" type="curve"/>
			<point x="422" y="387" type="line"/>
			<point x="377" y="457"/>
			<point x="320" y="485"/>
			<point x="268" y="485" type="curve" smooth="yes"/>
			<point x="142" y="485"/>
			<point x="50" y="385"/>
			<point x="50" y="227" type="curve" smooth="yes"/>
			<point x="50" y="76"/>
			<point x="130" y="-13"/>
		</contour>
		<contour>
			<point name="aboveLC" x="272" y="502" type="move"/>
		</contour>
		<contour>
			<point name="belowLC" x="244" y="-250" type="move"/>
		</contour>
	</outline>
</glyph>
<glyph name="j.sups" format="1">
	<unicode hex="02B2"/>
	<advance width="185"/>
	<outline>
		<contour>
			<point x="99" y="836" type="curve" smooth="yes"/>
			<point x="119" y="836"/>
			<point x="134" y="850"/>
			<point x="134" y="871" type="curve" smooth="yes"/>
			<point x="134" y="892"/>
			<point x="119" y="905"/>
			<point x="99" y="905" type="curve" smooth="yes"/>
			<point x="80" y="905"/>
			<point x="64" y="892"/>
			<point x="64" y="871" type="curve" smooth="yes"/>
			<point x="64" y="850"/>
			<point x="80" y="836"/>
		</contour>
		<contour>
			<point x="80" y="483" type="line" smooth="yes"/>
			<point x="80" y="390"/>
			<point x="78" y="346"/>
			<point x="58" y="314" type="curve" smooth="yes"/>
			<point x="48" y="301"/>
			<point x="27" y="286"/>
			<point x="11" y="286" type="curve" smooth="yes"/>
			<point x="-7" y="286"/>
			<point x="-19" y="291"/>
			<point x="-25" y="298" type="curve"/>
			<point x="-19" y="279" type="line"/>
			<point x="52" y="285" type="line"/>
			<point x="28" y="304" type="line" smooth="yes"/>
			<point x="12" y="317"/>
			<point x="-1" y="322"/>
			<point x="-16" y="322" type="curve" smooth="yes"/>
			<point x="-33" y="322"/>
			<point x="-45" y="313"/>
			<point x="-49" y="296" type="curve"/>
			<point x="-47" y="283"/>
			<point x="-30" y="269"/>
			<point x="7" y="269" type="curve" smooth="yes"/>
			<point x="36" y="269"/>
			<point x="63" y="278"/>
			<point x="86" y="305" type="curve" smooth="yes"/>
			<point x="117" y="341"/>
			<point x="123" y="383"/>
			<point x="123" y="503" type="curve" smooth="yes"/>
			<point x="123" y="746" type="line"/>
			<point x="114" y="751" type="line"/>
			<point x="22" y="725" type="line"/>
			<point x="22" y="705" type="line"/>
			<point x="80" y="702" type="line"/>
		</contour>
	</outline>
</glyph>
<glyph name="gravecmb" format="1">
  <advance width="0"/>
  <unicode hex="0300"/>
  <outline>
    <contour>
      <point x="60" y="574" type="line"/>
      <point x="-42" y="719" type="line" smooth="yes"/>
      <point x="-55" y="737"/>
      <point x="-65" y="746"/>
      <point x="-78" y="746" type="curve" smooth="yes"/>
      <point x="-91" y="746"/>
      <point x="-103" y="737"/>
      <point x="-103" y="721" type="curve" smooth="yes"/>
      <point x="-103" y="709"/>
      <point x="-96" y="698"/>
      <point x="-81" y="684" type="curve" smooth="yes"/>
      <point x="43" y="561" type="line"/>
    </contour>
  </outline>
</glyph>
<glyph name="acutecmb" format="1">
  <advance width="0"/>
  <unicode hex="0301"/>
  <outline>
    <contour>
      <point x="-60" y="574" type="line"/>
      <point x="-44" y="561" type="line"/>
      <point x="80" y="684" type="line" smooth="yes"/>
      <point x="95" y="698"/>
      <point x="103" y="709"/>
      <point x="103" y="721" type="curve" smooth="yes"/>
      <point x="103" y="737"/>
      <point x="91" y="746"/>
      <point x="78" y="746" type="curve" smooth="yes"/>
      <point x="65" y="746"/>
      <point x="54" y="737"/>
      <point x="42" y="719" type="curve" smooth="yes"/>
    </contour>
  </outline>
</glyph>
<glyph name="circumflexcmb" format="1">
  <advance width="0"/>
  <unicode hex="0302"/>
  <outline>
    <contour>
      <point x="116" y="560" type="line"/>
      <point x="131" y="574" type="line"/>
      <point x="11" y="739" type="line"/>
      <point x="-11" y="739" type="line"/>
      <point x="-131" y="574" type="line"/>
      <point x="-116" y="560" type="line"/>
      <point x="21" y="698" type="line"/>
      <point x="-21" y="698" type="line"/>
    </contour>
  </outline>
</glyph>
<glyph name="tildecmb" format="1">
  <advance width="0"/>
  <unicode hex="0303"/>
  <outline>
    <contour>
      <point x="72" y="589" type="curve" smooth="yes"/>
      <point x="118" y="589"/>
      <point x="154" y="623"/>
      <point x="154" y="687" type="curve" smooth="yes"/>
      <point x="154" y="691"/>
      <point x="153" y="699"/>
      <point x="153" y="702" type="curve"/>
      <point x="130" y="702" type="line"/>
      <point x="129" y="648"/>
      <point x="107" y="627"/>
      <point x="78" y="627" type="curve" smooth="yes"/>
      <point x="56" y="627"/>
      <point x="41" y="638"/>
      <point x="11" y="666" type="curve" smooth="yes"/>
      <point x="-17" y="692"/>
      <point x="-40" y="706"/>
      <point x="-71" y="706" type="curve" smooth="yes"/>
      <point x="-117" y="706"/>
      <point x="-154" y="672"/>
      <point x="-154" y="608" type="curve" smooth="yes"/>
      <point x="-154" y="605"/>
      <point x="-153" y="596"/>
      <point x="-153" y="593" type="curve"/>
      <point x="-130" y="593" type="line"/>
      <point x="-129" y="647"/>
      <point x="-107" y="668"/>
      <point x="-77" y="668" type="curve" smooth="yes"/>
      <point x="-56" y="668"/>
      <point x="-39" y="658"/>
      <point x="-12" y="630" type="curve" smooth="yes"/>
      <point x="17" y="602"/>
      <point x="40" y="589"/>
    </contour>
  </outline>
</glyph>
<glyph name="macroncmb" format="1">
  <advance width="0"/>
  <unicode hex="0304"/>
  <outline>
    <contour>
      <point x="-124" y="620" type="line"/>
      <point x="124" y="620" type="line"/>
      <point x="124" y="660" type="line"/>
      <point x="-124" y="660" type="line"/>
    </contour>
  </outline>
</glyph>
<glyph name="brevecmb" format="1">
  <advance width="0"/>
  <unicode hex="0306"/>
  <outline>
    <contour>
      <point x="0" y="581" type="curve" smooth="yes"/>
      <point x="82" y="581"/>
      <point x="134" y="644"/>
      <point x="145" y="725" type="curve"/>
      <point x="124" y="732" type="line"/>
      <point x="104" y="670"/>
      <point x="66" y="625"/>
      <point x="0" y="625" type="curve" smooth="yes"/>
      <point x="-66" y="625"/>
      <point x="-104" y="670"/>
      <point x="-124" y="732" type="curve"/>
      <point x="-145" y="725" type="line"/>
      <point x="-134" y="644"/>
      <point x="-82" y="581"/>
    </contour>
  </outline>
</glyph>
<glyph name="dotaccentcmb" format="1">
  <advance width="0"/>
  <unicode hex="0307"/>
  <outline>
    <contour>
      <point x="0" y="621" type="curve" smooth="yes"/>
      <point x="25" y="621"/>
      <point x="46" y="639"/>
      <point x="46" y="665" type="curve" smooth="yes"/>
      <point x="46" y="692"/>
      <point x="25" y="710"/>
      <point x="0" y="710" type="curve" smooth="yes"/>
      <point x="-25" y="710"/>
      <point x="-46" y="692"/>
      <point x="-46" y="665" type="curve" smooth="yes"/>
      <point x="-46" y="639"/>
      <point x="-25" y="621"/>
    </contour>
  </outline>
</glyph>
<glyph name="dieresiscmb" format="1">
  <advance width="0"/>
  <unicode hex="0308"/>
  <outline>
    <contour>
      <point x="96" y="610" type="curve" smooth="yes"/>
      <point x="117" y="610"/>
      <point x="136" y="626"/>
      <point x="136" y="649" type="curve" smooth="yes"/>
      <point x="136" y="673"/>
      <point x="117" y="688"/>
      <point x="96" y="688" type="curve" smooth="yes"/>
      <point x="74" y="688"/>
      <point x="55" y="673"/>
      <point x="55" y="649" type="curve" smooth="yes"/>
      <point x="55" y="626"/>
      <point x="74" y="610"/>
    </contour>
    <contour>
      <point x="-96" y="610" type="curve" smooth="yes"/>
      <point x="-74" y="610"/>
      <point x="-55" y="626"/>
      <point x="-55" y="649" type="curve" smooth="yes"/>
      <point x="-55" y="673"/>
      <point x="-74" y="688"/>
      <point x="-96" y="688" type="curve" smooth="yes"/>
      <point x="-117" y="688"/>
      <point x="-136" y="673"/>
      <point x="-136" y="649" type="curve" smooth="yes"/>
      <point x="-136" y="626"/>
      <point x="-117" y="610"/>
    </contour>
  </outline>
</glyph>
<glyph name="ringcmb" format="1">
  <advance width="0"/>
  <unicode hex="030A"/>
  <outline>
    <contour>
      <point x="0" y="579" type="curve" smooth="yes"/>
      <point x="-37" y="579"/>
      <point x="-61" y="610"/>
      <point x="-61" y="644" type="curve" smooth="yes"/>
      <point x="-61" y="678"/>
      <point x="-37" y="708"/>
      <point x="0" y="708" type="curve" smooth="yes"/>
      <point x="37" y="708"/>
      <point x="61" y="678"/>
      <point x="61" y="644" type="curve" smooth="yes"/>
      <point x="61" y="610"/>
      <point x="37" y="579"/>
    </contour>
    <contour>
      <point x="0" y="551" type="curve" smooth="yes"/>
      <point x="48" y="551"/>
      <point x="93" y="586"/>
      <point x="93" y="644" type="curve" smooth="yes"/>
      <point x="93" y="701"/>
      <point x="48" y="736"/>
      <point x="0" y="736" type="curve" smooth="yes"/>
      <point x="-48" y="736"/>
      <point x="-93" y="700"/>
      <point x="-93" y="644" type="curve" smooth="yes"/>
      <point x="-93" y="586"/>
      <point x="-48" y="551"/>
    </contour>
  </outline>
</glyph>
<glyph name="hungarumlautcmb" format="1">
  <advance width="0"/>
  <unicode hex="030B"/>
  <outline>
    <contour>
      <point x="-109" y="567" type="line"/>
      <point x="-90" y="556" type="line"/>
      <point x="-4" y="685" type="line" smooth="yes"/>
      <point x="8" y="701"/>
      <point x="11" y="713"/>
      <point x="11" y="722" type="curve" smooth="yes"/>
      <point x="11" y="736"/>
      <point x="0" y="746"/>
      <point x="-13" y="746" type="curve" smooth="yes"/>
      <point x="-27" y="746"/>
      <point x="-39" y="735"/>
      <point x="-49" y="711" type="curve" smooth="yes"/>
    </contour>
    <contour>
      <point x="28" y="567" type="line"/>
      <point x="47" y="556" type="line"/>
      <point x="133" y="685" type="line" smooth="yes"/>
      <point x="144" y="701"/>
      <point x="148" y="713"/>
      <point x="148" y="722" type="curve" smooth="yes"/>
      <point x="148" y="736"/>
      <point x="137" y="746"/>
      <point x="124" y="746" type="curve" smooth="yes"/>
      <point x="110" y="746"/>
      <point x="97" y="735"/>
      <point x="87" y="711" type="curve" smooth="yes"/>
    </contour>
  </outline>
</glyph>
<glyph name="commabelowcmb" format="1">
  <advance width="0"/>
  <unicode hex="0326"/>
  <outline>
    <contour>
      <point x="49" y="-106" type="curve" smooth="yes"/>
      <point x="49" y="-96"/>
      <point x="47" y="-84"/>
      <point x="43" y="-72" type="curve"/>
      <point x="32" y="-62"/>
      <point x="19" y="-58"/>
      <point x="7" y="-58" type="curve" smooth="yes"/>
      <point x="-13" y="-58"/>
      <point x="-30" y="-71"/>
      <point x="-30" y="-93" type="curve" smooth="yes"/>
      <point x="-30" y="-115"/>
      <point x="-7" y="-136"/>
      <point x="22" y="-144" type="curve"/>
      <point x="18" y="-126" type="line"/>
      <point x="2" y="-168"/>
      <point x="-28" y="-196"/>
      <point x="-76" y="-215" type="curve"/>
      <point x="-68" y="-236" type="line"/>
      <point x="-6" y="-217"/>
      <point x="49" y="-171"/>
    </contour>
  </outline>
</glyph>
<glyph name="dieresistonos" format="1">
	<unicode hex="0385"/>
	<advance width="400"/>
	<outline>
		<component base="dieresistonoscmb" xOffset="196" yOffset="-1"/>
		<contour>
			<point name="_aboveLC" x="178" y="502" type="move"/>
		</contour>
	</outline>
</glyph>
<glyph name="Delta" format="1">
	<unicode hex="0394"/>
	<advance width="626"/>
	<outline>
		<contour>
			<point x="33" y="0" type="line"/>
			<point x="59" y="0" type="line"/>
			<point x="310" y="639" type="line"/>
			<point x="291" y="633" type="line"/>
			<point x="541" y="0" type="line"/>
			<point x="590" y="0" type="line"/>
			<point x="590" y="28" type="line"/>
			<point x="330" y="680" type="line"/>
			<point x="293" y="680" type="line"/>
			<point x="33" y="28" type="line"/>
		</contour>
		<contour>
			<point x="49" y="0" type="line"/>
			<point x="568" y="0" type="line"/>
			<point x="568" y="49" type="line"/>
			<point x="49" y="49" type="line"/>
		</contour>
	</outline>
</glyph>
<glyph name="Xi" format="1">
	<unicode hex="039E"/>
	<advance width="585"/>
	<outline>
		<contour>
			<point x="416" y="333" type="line"/>
			<point x="428" y="244" type="line"/>
			<point x="458" y="244" type="line"/>
			<point x="458" y="439" type="line"/>
			<point x="428" y="439" type="line"/>
			<point x="416" y="353" type="line"/>
		</contour>
		<contour>
			<point x="169" y="333" type="line"/>
			<point x="169" y="353" type="line"/>
			<point x="157" y="439" type="line"/>
			<point x="127" y="439" type="line"/>
			<point x="127" y="244" type="line"/>
			<point x="157" y="244" type="line"/>
		</contour>
		<contour>
			<point x="148" y="364" type="line"/>
			<point x="148" y="321" type="line"/>
			<point x="436" y="321" type="line"/>
			<point x="436" y="364" type="line"/>
		</contour>
		<contour>
			<point x="67" y="674" type="line"/>
			<point x="59" y="510" type="line"/>
			<point x="94" y="510" type="line"/>
			<point x="118" y="674" type="line"/>
			<point x="93" y="627" type="line"/>
			<point x="492" y="627" type="line"/>
			<point x="467" y="674" type="line"/>
			<point x="491" y="510" type="line"/>
			<point x="526" y="510" type="line"/>
			<point x="517" y="674" type="line"/>
		</contour>
		<contour>
			<point x="532" y="0" type="line"/>
			<point x="541" y="164" type="line"/>
			<point x="505" y="164" type="line"/>
			<point x="481" y="0" type="line"/>
			<point x="506" y="47" type="line"/>
			<point x="79" y="47" type="line"/>
			<point x="104" y="0" type="line"/>
			<point x="80" y="164" type="line"/>
			<point x="44" y="164" type="line"/>
			<point x="53" y="0" type="line"/>
		</contour>
	</outline>
</glyph>
<glyph name="Sigma" format="1">
	<unicode hex="03A3"/>
	<advance width="549"/>
	<outline>
		<contour>
			<point x="463" y="505" type="line"/>
			<point x="500" y="505" type="line"/>
			<point x="492" y="674" type="line"/>
			<point x="59" y="674" type="line"/>
			<point x="59" y="641" type="line"/>
			<point x="466" y="641" type="line"/>
			<point x="434" y="674" type="line"/>
		</contour>
		<contour>
			<point x="510" y="0" type="line"/>
			<point x="519" y="186" type="line"/>
			<point x="481" y="186" type="line"/>
			<point x="452" y="16" type="line"/>
			<point x="484" y="49" type="line"/>
			<point x="54" y="49" type="line"/>
			<point x="67" y="29" type="line"/>
			<point x="316" y="347" type="line"/>
			<point x="82" y="674" type="line"/>
			<point x="41" y="674" type="line"/>
			<point x="41" y="648" type="line"/>
			<point x="276" y="320" type="line"/>
			<point x="276" y="351" type="line"/>
			<point x="26" y="34" type="line"/>
			<point x="26" y="0" type="line"/>
		</contour>
	</outline>
</glyph>
<glyph name="Phi" format="1">
	<unicode hex="03A6"/>
	<advance width="697"/>
	<outline>
		<contour>
			<point x="44" y="347" type="curve" smooth="yes"/>
			<point x="44" y="226"/>
			<point x="135" y="117"/>
			<point x="325" y="117" type="curve" smooth="yes"/>
			<point x="348" y="117" type="line"/>
			<point x="348" y="149" type="line"/>
			<point x="326" y="149" type="line" smooth="yes"/>
			<point x="182" y="149"/>
			<point x="100" y="233"/>
			<point x="100" y="350" type="curve" smooth="yes"/>
			<point x="100" y="468"/>
			<point x="182" y="546"/>
			<point x="326" y="546" type="curve" smooth="yes"/>
			<point x="348" y="546" type="line"/>
			<point x="348" y="578" type="line"/>
			<point x="325" y="578" type="line" smooth="yes"/>
			<point x="145" y="578"/>
			<point x="44" y="476"/>
		</contour>
		<contour>
			<point x="218" y="657" type="line"/>
			<point x="340" y="647" type="line"/>
			<point x="359" y="647" type="line"/>
			<point x="479" y="657" type="line"/>
			<point x="479" y="685" type="line"/>
			<point x="218" y="685" type="line"/>
		</contour>
		<contour>
			<point x="218" y="-5" type="line"/>
			<point x="479" y="-5" type="line"/>
			<point x="479" y="23" type="line"/>
			<point x="359" y="34" type="line"/>
			<point x="340" y="34" type="line"/>
			<point x="218" y="23" type="line"/>
		</contour>
		<contour>
			<point x="321" y="-5" type="curve"/>
			<point x="376" y="-5" type="line"/>
			<point x="374" y="97"/>
			<point x="374" y="208"/>
			<point x="374" y="310" type="curve" smooth="yes"/>
			<point x="374" y="365" type="line" smooth="yes"/>
			<point x="374" y="472"/>
			<point x="374" y="580"/>
			<point x="376" y="685" type="curve"/>
			<point x="321" y="685" type="line"/>
			<point x="323" y="580"/>
			<point x="323" y="471"/>
			<point x="323" y="364" type="curve" smooth="yes"/>
			<point x="323" y="310" type="line" smooth="yes"/>
			<point x="323" y="206"/>
			<point x="323" y="97"/>
		</contour>
		<contour>
			<point x="348" y="117" type="line"/>
			<point x="371" y="117" type="line" smooth="yes"/>
			<point x="561" y="117"/>
			<point x="653" y="226"/>
			<point x="653" y="347" type="curve" smooth="yes"/>
			<point x="653" y="476"/>
			<point x="551" y="578"/>
			<point x="371" y="578" type="curve" smooth="yes"/>
			<point x="348" y="578" type="line"/>
			<point x="348" y="546" type="line"/>
			<point x="371" y="546" type="line" smooth="yes"/>
			<point x="514" y="546"/>
			<point x="597" y="468"/>
			<point x="597" y="350" type="curve" smooth="yes"/>
			<point x="597" y="233"/>
			<point x="514" y="149"/>
			<point x="371" y="149" type="curve" smooth="yes"/>
			<point x="348" y="149" type="line"/>
		</contour>
	</outline>
</glyph>
<glyph name="Psi" format="1">
	<unicode hex="03A8"/>
	<advance width="736"/>
	<outline>
		<contour>
			<point x="97" y="508" type="line" smooth="yes"/>
			<point x="124" y="329"/>
			<point x="183" y="267"/>
			<point x="368" y="267" type="curve" smooth="yes"/>
			<point x="553" y="267"/>
			<point x="613" y="329"/>
			<point x="640" y="508" type="curve" smooth="yes"/>
			<point x="651" y="580" type="line" smooth="yes"/>
			<point x="657" y="621"/>
			<point x="674" y="639"/>
			<point x="715" y="643" type="curve" smooth="yes"/>
			<point x="741" y="646" type="line"/>
			<point x="741" y="674" type="line"/>
			<point x="707" y="674" type="line" smooth="yes"/>
			<point x="632" y="674"/>
			<point x="606" y="644"/>
			<point x="596" y="568" type="curve" smooth="yes"/>
			<point x="587" y="510" type="line" smooth="yes"/>
			<point x="565" y="352"/>
			<point x="523" y="299"/>
			<point x="368" y="299" type="curve" smooth="yes"/>
			<point x="214" y="299"/>
			<point x="172" y="352"/>
			<point x="149" y="510" type="curve" smooth="yes"/>
			<point x="140" y="571" type="line" smooth="yes"/>
			<point x="130" y="642"/>
			<point x="107" y="674"/>
			<point x="30" y="674" type="curve" smooth="yes"/>
			<point x="-5" y="674" type="line"/>
			<point x="-5" y="646" type="line"/>
			<point x="21" y="643" type="line" smooth="yes"/>
			<point x="63" y="639"/>
			<point x="79" y="621"/>
			<point x="86" y="580" type="curve" smooth="yes"/>
		</contour>
		<contour>
			<point x="238" y="0" type="line"/>
			<point x="499" y="0" type="line"/>
			<point x="499" y="28" type="line"/>
			<point x="376" y="38" type="line"/>
			<point x="360" y="38" type="line"/>
			<point x="238" y="28" type="line"/>
		</contour>
		<contour>
			<point x="248" y="646" type="line"/>
			<point x="360" y="636" type="line"/>
			<point x="376" y="636" type="line"/>
			<point x="489" y="646" type="line"/>
			<point x="489" y="674" type="line"/>
			<point x="248" y="674" type="line"/>
		</contour>
		<contour>
			<point x="339" y="0" type="curve"/>
			<point x="398" y="0" type="line"/>
			<point x="395" y="102"/>
			<point x="395" y="206"/>
			<point x="395" y="310" type="curve" smooth="yes"/>
			<point x="395" y="364" type="line" smooth="yes"/>
			<point x="395" y="469"/>
			<point x="395" y="573"/>
			<point x="398" y="674" type="curve"/>
			<point x="339" y="674" type="line"/>
			<point x="341" y="572"/>
			<point x="341" y="468"/>
			<point x="341" y="364" type="curve" smooth="yes"/>
			<point x="341" y="310" type="line" smooth="yes"/>
			<point x="341" y="206"/>
			<point x="341" y="102"/>
		</contour>
	</outline>
</glyph>
<glyph name="beta" format="1">
	<unicode hex="03B2"/>
	<advance width="569"/>
	<outline>
		<contour>
			<point x="98" y="-181" type="line"/>
			<point x="109" y="-189" type="line"/>
			<point x="154" y="-177" type="line"/>
			<point x="147" y="81" type="line"/>
			<point x="152" y="90" type="line"/>
			<point x="152" y="515" type="line" smooth="yes"/>
			<point x="152" y="643"/>
			<point x="205" y="715"/>
			<point x="301" y="715" type="curve" smooth="yes"/>
			<point x="375" y="715"/>
			<point x="421" y="666"/>
			<point x="421" y="579" type="curve" smooth="yes"/>
			<point x="421" y="484"/>
			<point x="360" y="424"/>
			<point x="249" y="400" type="curve"/>
			<point x="256" y="366" type="line"/>
			<point x="406" y="372"/>
			<point x="472" y="297"/>
			<point x="472" y="190" type="curve" smooth="yes"/>
			<point x="472" y="96"/>
			<point x="413" y="31"/>
			<point x="311" y="31" type="curve" smooth="yes"/>
			<point x="248" y="31"/>
			<point x="186" y="60"/>
			<point x="135" y="111" type="curve"/>
			<point x="128" y="99" type="line"/>
			<point x="167" y="26"/>
			<point x="243" y="-13"/>
			<point x="319" y="-13" type="curve" smooth="yes"/>
			<point x="432" y="-13"/>
			<point x="522" y="65"/>
			<point x="522" y="187" type="curve" smooth="yes"/>
			<point x="522" y="326"/>
			<point x="431" y="394"/>
			<point x="267" y="387" type="curve"/>
			<point x="271" y="378" type="line"/>
			<point x="405" y="396"/>
			<point x="472" y="488"/>
			<point x="472" y="579" type="curve" smooth="yes"/>
			<point x="472" y="689"/>
			<point x="397" y="745"/>
			<point x="304" y="745" type="curve" smooth="yes"/>
			<point x="179" y="745"/>
			<point x="104" y="655"/>
			<point x="104" y="496" type="curve" smooth="yes"/>
			<point x="103" y="1" type="line"/>
		</contour>
	</outline>
</glyph>
<glyph name="delta" format="1">
	<unicode hex="03B4"/>
	<advance width="522"/>
	<outline>
		<contour>
			<point x="47" y="231" type="curve" smooth="yes"/>
			<point x="47" y="80"/>
			<point x="138" y="-13"/>
			<point x="262" y="-13" type="curve" smooth="yes"/>
			<point x="382" y="-13"/>
			<point x="471" y="95"/>
			<point x="471" y="230" type="curve" smooth="yes"/>
			<point x="471" y="342"/>
			<point x="432" y="408"/>
			<point x="296" y="495" type="curve" smooth="yes"/>
			<point x="196" y="558"/>
			<point x="153" y="593"/>
			<point x="153" y="640" type="curve" smooth="yes"/>
			<point x="153" y="697"/>
			<point x="209" y="716"/>
			<point x="295" y="717" type="curve" smooth="yes"/>
			<point x="324" y="717"/>
			<point x="352" y="711"/>
			<point x="377" y="696" type="curve"/>
			<point x="369" y="717" type="line"/>
			<point x="313" y="725" type="line"/>
			<point x="382" y="660" type="line" smooth="yes"/>
			<point x="402" y="642"/>
			<point x="417" y="635"/>
			<point x="431" y="635" type="curve" smooth="yes"/>
			<point x="451" y="635"/>
			<point x="465" y="649"/>
			<point x="463" y="672" type="curve"/>
			<point x="419" y="721"/>
			<point x="352" y="745"/>
			<point x="286" y="745" type="curve" smooth="yes"/>
			<point x="188" y="745"/>
			<point x="112" y="711"/>
			<point x="112" y="638" type="curve" smooth="yes"/>
			<point x="112" y="578"/>
			<point x="167" y="527"/>
			<point x="267" y="472" type="curve"/>
			<point x="271" y="466" type="line"/>
			<point x="390" y="393"/>
			<point x="419" y="334"/>
			<point x="419" y="227" type="curve" smooth="yes"/>
			<point x="419" y="98"/>
			<point x="356" y="19"/>
			<point x="264" y="19" type="curve" smooth="yes"/>
			<point x="167" y="19"/>
			<point x="99" y="101"/>
			<point x="99" y="239" type="curve" smooth="yes"/>
			<point x="99" y="367"/>
			<point x="161" y="439"/>
			<point x="293" y="464" type="curve"/>
			<point x="283" y="482" type="line"/>
			<point x="134" y="470"/>
			<point x="47" y="370"/>
		</contour>
	</outline>
</glyph>
<glyph name="kappa" format="1">
	<unicode hex="03BA"/>
	<advance width="519"/>
	<outline>
		<contour>
			<point x="102" y="-1" type="line"/>
			<point x="113" y="-9" type="line"/>
			<point x="148" y="0" type="line"/>
			<point x="150" y="48"/>
			<point x="153" y="98"/>
			<point x="154" y="149" type="curve" smooth="yes"/>
			<point x="156" y="197"/>
			<point x="157" y="317"/>
			<point x="157" y="358" type="curve" smooth="yes"/>
			<point x="157" y="450"/>
			<point x="134" y="482"/>
			<point x="84" y="482" type="curve" smooth="yes"/>
			<point x="59" y="482"/>
			<point x="41" y="470"/>
			<point x="30" y="456" type="curve"/>
			<point x="37" y="437" type="line"/>
			<point x="48" y="439"/>
			<point x="59" y="440"/>
			<point x="69" y="440" type="curve" smooth="yes"/>
			<point x="103" y="440"/>
			<point x="116" y="422"/>
			<point x="116" y="375" type="curve" smooth="yes"/>
			<point x="113" y="168" type="line"/>
		</contour>
		<contour>
			<point x="141" y="102" type="line"/>
			<point x="184" y="184"/>
			<point x="206" y="214"/>
			<point x="245" y="274" type="curve" smooth="yes"/>
			<point x="303" y="348"/>
			<point x="358" y="400"/>
			<point x="420" y="445" type="curve"/>
			<point x="355" y="413" type="line"/>
			<point x="429" y="417" type="line" smooth="yes"/>
			<point x="469" y="419"/>
			<point x="489" y="430"/>
			<point x="489" y="455" type="curve" smooth="yes"/>
			<point x="489" y="474"/>
			<point x="477" y="481"/>
			<point x="463" y="485" type="curve"/>
			<point x="437" y="483"/>
			<point x="403" y="474"/>
			<point x="362" y="439" type="curve" smooth="yes"/>
			<point x="279" y="368"/>
			<point x="191" y="258"/>
			<point x="136" y="131" type="curve"/>
		</contour>
		<contour>
			<point x="433" y="-13" type="curve" smooth="yes"/>
			<point x="459" y="-13"/>
			<point x="485" y="4"/>
			<point x="500" y="29" type="curve"/>
			<point x="493" y="47" type="line"/>
			<point x="482" y="41"/>
			<point x="463" y="37"/>
			<point x="445" y="37" type="curve" smooth="yes"/>
			<point x="394" y="37"/>
			<point x="365" y="99"/>
			<point x="252" y="292" type="curve"/>
			<point x="230" y="270" type="line"/>
			<point x="355" y="28"/>
			<point x="389" y="-13"/>
		</contour>
	</outline>
</glyph>
<glyph name="nu" format="1">
	<unicode hex="03BD"/>
	<advance width="483"/>
	<outline>
		<contour>
			<point x="221" y="-1" type="curve"/>
			<point x="251" y="-2" type="line"/>
			<point x="345" y="156"/>
			<point x="433" y="338"/>
			<point x="433" y="438" type="curve" smooth="yes"/>
			<point x="433" y="452"/>
			<point x="433" y="464"/>
			<point x="430" y="475" type="curve"/>
			<point x="426" y="481"/>
			<point x="419" y="485"/>
			<point x="407" y="485" type="curve" smooth="yes"/>
			<point x="386" y="485"/>
			<point x="372" y="469"/>
			<point x="372" y="432" type="curve" smooth="yes"/>
			<point x="372" y="402"/>
			<point x="376" y="363"/>
			<point x="383" y="295" type="curve"/>
			<point x="395" y="396" type="line"/>
			<point x="356" y="244"/>
			<point x="311" y="168"/>
			<point x="241" y="31" type="curve"/>
			<point x="252" y="30" type="line"/>
			<point x="233" y="147"/>
			<point x="198" y="255"/>
			<point x="160" y="362" type="curve" smooth="yes"/>
			<point x="130" y="447"/>
			<point x="102" y="480"/>
			<point x="57" y="480" type="curve" smooth="yes"/>
			<point x="37" y="480"/>
			<point x="15" y="470"/>
			<point x="0" y="454" type="curve"/>
			<point x="7" y="434" type="line"/>
			<point x="16" y="436"/>
			<point x="26" y="438"/>
			<point x="36" y="438" type="curve" smooth="yes"/>
			<point x="69" y="438"/>
			<point x="86" y="420"/>
			<point x="113" y="353" type="curve" smooth="yes"/>
			<point x="153" y="249"/>
			<point x="193" y="139"/>
		</contour>
	</outline>
</glyph>
<glyph name="pi" format="1">
  <advance width="620"/>
  <unicode hex="03C0"/>
  <outline>
    <contour>
      <point x="163" y="-15" type="curve" smooth="yes"/>
      <point x="177" y="-15"/>
      <point x="186" y="-11"/>
      <point x="192" y="-5" type="curve"/>
      <point x="219" y="442" type="line"/>
      <point x="188" y="442" type="line"/>
      <point x="147" y="133" type="line" smooth="yes"/>
      <point x="143" y="96"/>
      <point x="135" y="55"/>
      <point x="135" y="22" type="curve" smooth="yes"/>
      <point x="135" y="-4"/>
      <point x="146" y="-15"/>
    </contour>
    <contour>
      <point x="435" y="102" type="curve" smooth="yes"/>
      <point x="435" y="437" type="line"/>
      <point x="399" y="437" type="line"/>
      <point x="396" y="205"/>
      <point x="394" y="123"/>
      <point x="394" y="81" type="curve" smooth="yes"/>
      <point x="394" y="23"/>
      <point x="419" y="-13"/>
      <point x="475" y="-13" type="curve" smooth="yes"/>
      <point x="509" y="-13"/>
      <point x="530" y="-2"/>
      <point x="554" y="21" type="curve"/>
      <point x="538" y="51" type="line"/>
      <point x="527" y="44" type="line" smooth="yes"/>
      <point x="516" y="38"/>
      <point x="503" y="34"/>
      <point x="484" y="34" type="curve" smooth="yes"/>
      <point x="454" y="34"/>
      <point x="435" y="49"/>
    </contour>
    <contour>
      <point x="41" y="411" type="line"/>
      <point x="199" y="423" type="line"/>
      <point x="426" y="423" type="line"/>
      <point x="509" y="423"/>
      <point x="549" y="428"/>
      <point x="581" y="442" type="curve"/>
      <point x="580" y="468" type="line"/>
      <point x="191" y="468" type="line" smooth="yes"/>
      <point x="127" y="468"/>
      <point x="76" y="457"/>
      <point x="39" y="438" type="curve"/>
    </contour>
  </outline>
</glyph>
<glyph name="sigma.end" format="1">
	<unicode hex="03C2"/>
	<advance width="453"/>
	<outline>
		<contour>
			<point x="210" y="-188" type="line"/>
			<point x="337" y="-182"/>
			<point x="398" y="-123"/>
			<point x="398" y="-56" type="curve" smooth="yes"/>
			<point x="398" y="-8"/>
			<point x="375" y="25"/>
			<point x="294" y="47" type="curve" smooth="yes"/>
			<point x="216" y="67" type="line" smooth="yes"/>
			<point x="138" y="88"/>
			<point x="100" y="136"/>
			<point x="100" y="244" type="curve" smooth="yes"/>
			<point x="100" y="387"/>
			<point x="173" y="459"/>
			<point x="289" y="459" type="curve" smooth="yes"/>
			<point x="310" y="459"/>
			<point x="331" y="454"/>
			<point x="354" y="445" type="curve"/>
			<point x="339" y="467" type="line"/>
			<point x="279" y="469" type="line"/>
			<point x="338" y="413" type="line" smooth="yes"/>
			<point x="353" y="398"/>
			<point x="363" y="393"/>
			<point x="379" y="393" type="curve" smooth="yes"/>
			<point x="399" y="393"/>
			<point x="415" y="406"/>
			<point x="411" y="431" type="curve"/>
			<point x="380" y="468"/>
			<point x="343" y="485"/>
			<point x="285" y="485" type="curve" smooth="yes"/>
			<point x="151" y="485"/>
			<point x="49" y="395"/>
			<point x="49" y="227" type="curve" smooth="yes"/>
			<point x="49" y="103"/>
			<point x="105" y="48"/>
			<point x="197" y="24" type="curve" smooth="yes"/>
			<point x="277" y="3" type="line" smooth="yes"/>
			<point x="347" y="-15"/>
			<point x="363" y="-36"/>
			<point x="363" y="-63" type="curve" smooth="yes"/>
			<point x="363" y="-113"/>
			<point x="299" y="-134"/>
			<point x="206" y="-142" type="curve"/>
		</contour>
	</outline>
</glyph>
<glyph name="upsilon" format="1">
	<unicode hex="03C5"/>
	<advance width="536"/>
	<outline>
		<contour>
			<point x="105" y="167" type="curve" smooth="yes"/>
			<point x="105" y="39"/>
			<point x="181" y="-13"/>
			<point x="284" y="-13" type="curve" smooth="yes"/>
			<point x="400" y="-13"/>
			<point x="480" y="64"/>
			<point x="480" y="252" type="curve" smooth="yes"/>
			<point x="480" y="336"/>
			<point x="469" y="407"/>
			<point x="451" y="475" type="curve"/>
			<point x="445" y="481"/>
			<point x="436" y="485"/>
			<point x="425" y="485" type="curve" smooth="yes"/>
			<point x="407" y="485"/>
			<point x="394" y="470"/>
			<point x="394" y="449" type="curve" smooth="yes"/>
			<point x="394" y="422"/>
			<point x="409" y="389"/>
			<point x="459" y="284" type="curve"/>
			<point x="454" y="344" type="line"/>
			<point x="440" y="347" type="line"/>
			<point x="446" y="302"/>
			<point x="448" y="273"/>
			<point x="448" y="240" type="curve" smooth="yes"/>
			<point x="448" y="91"/>
			<point x="385" y="23"/>
			<point x="292" y="23" type="curve" smooth="yes"/>
			<point x="202" y="23"/>
			<point x="151" y="70"/>
			<point x="151" y="175" type="curve" smooth="yes"/>
			<point x="151" y="258"/>
			<point x="163" y="307"/>
			<point x="163" y="373" type="curve" smooth="yes"/>
			<point x="163" y="450"/>
			<point x="146" y="482"/>
			<point x="93" y="482" type="curve" smooth="yes"/>
			<point x="64" y="482"/>
			<point x="42" y="470"/>
			<point x="31" y="456" type="curve"/>
			<point x="39" y="436" type="line"/>
			<point x="48" y="438"/>
			<point x="58" y="440"/>
			<point x="68" y="440" type="curve" smooth="yes"/>
			<point x="106" y="440"/>
			<point x="117" y="423"/>
			<point x="117" y="367" type="curve" smooth="yes"/>
			<point x="117" y="312"/>
			<point x="105" y="248"/>
		</contour>
		<contour>
			<point name="aboveLC" x="272" y="492" type="move"/>
		</contour>
	</outline>
</glyph>
<glyph name="koppa" format="1">
	<unicode hex="03D9"/>
	<advance width="521"/>
	<outline>
		<contour>
			<point x="246" y="12" type="line"/>
			<point x="235" y="-182" type="line"/>
			<point x="246" y="-190" type="line"/>
			<point x="291" y="-178" type="line"/>
			<point x="281" y="12" type="line"/>
		</contour>
		<component base="omicron"/>
		<contour>
			<point name="aboveLC" x="267" y="502" type="move"/>
		</contour>
	</outline>
</glyph>
<glyph name="digamma" format="1">
	<unicode hex="03DD"/>
	<advance width="421"/>
	<outline>
		<contour>
			<point x="99" y="-182" type="line"/>
			<point x="110" y="-190" type="line"/>
			<point x="155" y="-178" type="line"/>
			<point x="145" y="93" type="line"/>
			<point x="145" y="185"/>
			<point x="149" y="271"/>
			<point x="155" y="457" type="curve"/>
			<point x="131" y="439" type="line"/>
			<point x="408" y="432" type="line"/>
			<point x="408" y="476" type="line"/>
			<point x="99" y="466" type="line"/>
			<point x="112" y="93" type="line"/>
		</contour>
		<contour>
			<point x="131" y="165" type="line"/>
			<point x="388" y="155" type="line"/>
			<point x="388" y="199" type="line"/>
			<point x="131" y="194" type="line"/>
		</contour>
		<contour>
			<point name="aboveLC" x="255" y="502" type="move"/>
		</contour>
	</outline>
</glyph>
<glyph name="Dje" format="1">
	<unicode hex="0402"/>
	<advance width="702"/>
	<outline>
		<contour>
			<point x="20" y="505" type="line"/>
			<point x="57" y="505" type="line"/>
			<point x="81" y="674" type="line"/>
			<point x="55" y="641" type="line"/>
			<point x="543" y="641" type="line"/>
			<point x="516" y="674" type="line"/>
			<point x="540" y="505" type="line"/>
			<point x="577" y="505" type="line"/>
			<point x="568" y="674" type="line"/>
			<point x="29" y="674" type="line"/>
		</contour>
		<contour>
			<point x="148" y="0" type="line"/>
			<point x="288" y="0" type="line"/>
			<point x="288" y="38" type="line"/>
			<point x="280" y="38" type="line"/>
			<point x="148" y="28" type="line"/>
		</contour>
		<contour>
			<point x="259" y="0" type="curve"/>
			<point x="318" y="0" type="line"/>
			<point x="316" y="102"/>
			<point x="316" y="206"/>
			<point x="316" y="310" type="curve" smooth="yes"/>
			<point x="316" y="356" type="line" smooth="yes"/>
			<point x="316" y="469"/>
			<point x="316" y="573"/>
			<point x="318" y="674" type="curve"/>
			<point x="259" y="674" type="line"/>
			<point x="261" y="572"/>
			<point x="261" y="468"/>
			<point x="261" y="364" type="curve" smooth="yes"/>
			<point x="261" y="310" type="line" smooth="yes"/>
			<point x="261" y="206"/>
			<point x="261" y="102"/>
		</contour>
		<contour>
			<point x="456" y="-59" type="line"/>
			<point x="595" y="-47"/>
			<point x="666" y="50"/>
			<point x="666" y="161" type="curve" smooth="yes"/>
			<point x="666" y="283"/>
			<point x="586" y="379"/>
			<point x="426" y="379" type="curve" smooth="yes"/>
			<point x="382" y="379"/>
			<point x="336" y="376"/>
			<point x="289" y="368" type="curve"/>
			<point x="289" y="336" type="line"/>
			<point x="329" y="344"/>
			<point x="367" y="346"/>
			<point x="410" y="346" type="curve" smooth="yes"/>
			<point x="555" y="346"/>
			<point x="609" y="268"/>
			<point x="609" y="161" type="curve" smooth="yes"/>
			<point x="609" y="54"/>
			<point x="554" y="-14"/>
			<point x="448" y="-32" type="curve"/>
		</contour>
	</outline>
</glyph>
<glyph name="Ka" format="1">
	<unicode hex="041A"/>
	<advance width="658"/>
	<outline>
		<contour>
			<point x="53" y="0" type="line"/>
			<point x="314" y="0" type="line"/>
			<point x="314" y="28" type="line"/>
			<point x="191" y="38" type="line"/>
			<point x="175" y="38" type="line"/>
			<point x="53" y="28" type="line"/>
		</contour>
		<contour>
			<point x="53" y="646" type="line"/>
			<point x="175" y="636" type="line"/>
			<point x="191" y="636" type="line"/>
			<point x="314" y="646" type="line"/>
			<point x="314" y="674" type="line"/>
			<point x="53" y="674" type="line"/>
		</contour>
		<contour>
			<point x="154" y="0" type="curve"/>
			<point x="213" y="0" type="line"/>
			<point x="210" y="102"/>
			<point x="210" y="206"/>
			<point x="210" y="334" type="curve" smooth="yes"/>
			<point x="210" y="353" type="line" smooth="yes"/>
			<point x="210" y="469"/>
			<point x="210" y="573"/>
			<point x="213" y="674" type="curve"/>
			<point x="154" y="674" type="line"/>
			<point x="156" y="572"/>
			<point x="156" y="468"/>
			<point x="156" y="364" type="curve" smooth="yes"/>
			<point x="156" y="310" type="line" smooth="yes"/>
			<point x="156" y="206"/>
			<point x="156" y="102"/>
		</contour>
		<contour>
			<point x="483" y="41" type="line" smooth="yes"/>
			<point x="496" y="4"/>
			<point x="517" y="-7"/>
			<point x="575" y="-7" type="curve" smooth="yes"/>
			<point x="604" y="-7"/>
			<point x="633" y="-4"/>
			<point x="650" y="0" type="curve"/>
			<point x="650" y="27" type="line"/>
			<point x="527" y="36" type="line"/>
			<point x="547" y="24" type="line"/>
			<point x="473" y="218" type="line" smooth="yes"/>
			<point x="447" y="290"/>
			<point x="394" y="346"/>
			<point x="284" y="352" type="curve"/>
			<point x="283" y="333" type="line"/>
			<point x="361" y="345"/>
			<point x="392" y="365"/>
			<point x="452" y="496" type="curve" smooth="yes"/>
			<point x="484" y="567"/>
			<point x="504" y="603"/>
			<point x="545" y="649" type="curve"/>
			<point x="497" y="624" type="line"/>
			<point x="524" y="619"/>
			<point x="549" y="614"/>
			<point x="572" y="614" type="curve" smooth="yes"/>
			<point x="606" y="614"/>
			<point x="620" y="633"/>
			<point x="620" y="651" type="curve" smooth="yes"/>
			<point x="620" y="670"/>
			<point x="607" y="686"/>
			<point x="583" y="689" type="curve"/>
			<point x="522" y="685"/>
			<point x="485" y="649"/>
			<point x="423" y="508" type="curve" smooth="yes"/>
			<point x="366" y="377"/>
			<point x="341" y="359"/>
			<point x="265" y="359" type="curve" smooth="yes"/>
			<point x="183" y="359" type="line"/>
			<point x="183" y="328" type="line"/>
			<point x="267" y="328" type="line" smooth="yes"/>
			<point x="350" y="328"/>
			<point x="389" y="300"/>
			<point x="419" y="219" type="curve" smooth="yes"/>
		</contour>
		<contour>
			<point name="aboveUC" x="356" y="686" type="move"/>
		</contour>
	</outline>
</glyph>
<glyph name="Ef" format="1">
	<unicode hex="0424"/>
	<advance width="700"/>
	<outline>
		<contour>
			<point x="30" y="339" type="curve" smooth="yes"/>
			<point x="30" y="192"/>
			<point x="137" y="110"/>
			<point x="299" y="110" type="curve" smooth="yes"/>
			<point x="345" y="110" type="line"/>
			<point x="345" y="140" type="line"/>
			<point x="300" y="140" type="line" smooth="yes"/>
			<point x="155" y="140"/>
			<point x="84" y="225"/>
			<point x="84" y="339" type="curve" smooth="yes"/>
			<point x="84" y="453"/>
			<point x="148" y="537"/>
			<point x="300" y="537" type="curve" smooth="yes"/>
			<point x="345" y="537" type="line"/>
			<point x="345" y="568" type="line"/>
			<point x="299" y="568" type="line" smooth="yes"/>
			<point x="130" y="568"/>
			<point x="30" y="486"/>
		</contour>
		<contour>
			<point x="220" y="-11" type="line"/>
			<point x="481" y="-11" type="line"/>
			<point x="481" y="17" type="line"/>
			<point x="358" y="28" type="line"/>
			<point x="342" y="28" type="line"/>
			<point x="220" y="17" type="line"/>
		</contour>
		<contour>
			<point x="220" y="657" type="line"/>
			<point x="342" y="647" type="line"/>
			<point x="358" y="647" type="line"/>
			<point x="481" y="657" type="line"/>
			<point x="481" y="685" type="line"/>
			<point x="220" y="685" type="line"/>
		</contour>
		<contour>
			<point x="324" y="-11" type="curve"/>
			<point x="377" y="-11" type="line"/>
			<point x="374" y="92"/>
			<point x="374" y="198"/>
			<point x="374" y="301" type="curve" smooth="yes"/>
			<point x="374" y="369" type="line" smooth="yes"/>
			<point x="374" y="473"/>
			<point x="374" y="583"/>
			<point x="377" y="685" type="curve"/>
			<point x="324" y="685" type="line"/>
			<point x="326" y="583"/>
			<point x="326" y="472"/>
			<point x="326" y="369" type="curve" smooth="yes"/>
			<point x="326" y="301" type="line" smooth="yes"/>
			<point x="326" y="197"/>
			<point x="326" y="91"/>
		</contour>
		<contour>
			<point x="355" y="110" type="line"/>
			<point x="401" y="110" type="line" smooth="yes"/>
			<point x="564" y="110"/>
			<point x="670" y="193"/>
			<point x="670" y="339" type="curve" smooth="yes"/>
			<point x="670" y="485"/>
			<point x="571" y="568"/>
			<point x="401" y="568" type="curve" smooth="yes"/>
			<point x="355" y="568" type="line"/>
			<point x="355" y="537" type="line"/>
			<point x="400" y="537" type="line" smooth="yes"/>
			<point x="552" y="537"/>
			<point x="616" y="453"/>
			<point x="616" y="339" type="curve" smooth="yes"/>
			<point x="616" y="225"/>
			<point x="545" y="140"/>
			<point x="400" y="140" type="curve" smooth="yes"/>
			<point x="355" y="140" type="line"/>
		</contour>
	</outline>
</glyph>
<glyph name="be" format="1">
	<unicode hex="0431"/>
	<advance width="539"/>
	<outline>
		<contour>
			<point x="91" y="308" type="line"/>
			<point x="97" y="466"/>
			<point x="128" y="555"/>
			<point x="174" y="596" type="curve" smooth="yes"/>
			<point x="206" y="623"/>
			<point x="251" y="636"/>
			<point x="329" y="648" type="curve" smooth="yes"/>
			<point x="392" y="658"/>
			<point x="444" y="666"/>
			<point x="461" y="682" type="curve" smooth="yes"/>
			<point x="474" y="695"/>
			<point x="480" y="723"/>
			<point x="487" y="763" type="curve"/>
			<point x="464" y="768" type="line"/>
			<point x="443" y="719" type="line"/>
			<point x="408" y="712"/>
			<point x="362" y="703"/>
			<point x="320" y="696" type="curve" smooth="yes"/>
			<point x="243" y="682"/>
			<point x="197" y="669"/>
			<point x="153" y="629" type="curve" smooth="yes"/>
			<point x="93" y="576"/>
			<point x="64" y="447"/>
			<point x="64" y="293" type="curve" smooth="yes"/>
			<point x="64" y="83"/>
			<point x="147" y="-13"/>
			<point x="280" y="-13" type="curve" smooth="yes"/>
			<point x="384" y="-13"/>
			<point x="490" y="68"/>
			<point x="490" y="246" type="curve" smooth="yes"/>
			<point x="490" y="400"/>
			<point x="395" y="475"/>
			<point x="287" y="475" type="curve" smooth="yes"/>
			<point x="180" y="475"/>
			<point x="116" y="410"/>
			<point x="88" y="309" type="curve"/>
		</contour>
		<contour>
			<point x="280" y="445" type="curve" smooth="yes"/>
			<point x="374" y="445"/>
			<point x="436" y="377"/>
			<point x="436" y="239" type="curve" smooth="yes"/>
			<point x="436" y="106"/>
			<point x="373" y="17"/>
			<point x="281" y="17" type="curve" smooth="yes"/>
			<point x="189" y="17"/>
			<point x="119" y="103"/>
			<point x="119" y="240" type="curve" smooth="yes"/>
			<point x="119" y="371"/>
			<point x="188" y="445"/>
		</contour>
	</outline>
</glyph>
<glyph name="ze" format="1">
	<unicode hex="0437"/>
	<advance width="419"/>
	<outline>
		<contour>
			<point x="79" y="45" type="curve"/>
			<point x="122" y="9" type="line"/>
			<point x="99" y="82" type="line" smooth="yes"/>
			<point x="94" y="101"/>
			<point x="83" y="114"/>
			<point x="67" y="115" type="curve" smooth="yes"/>
			<point x="52" y="116"/>
			<point x="41" y="109"/>
			<point x="35" y="93" type="curve"/>
			<point x="49" y="23"/>
			<point x="114" y="-13"/>
			<point x="195" y="-13" type="curve" smooth="yes"/>
			<point x="317" y="-13"/>
			<point x="382" y="55"/>
			<point x="382" y="128" type="curve" smooth="yes"/>
			<point x="382" y="200"/>
			<point x="331" y="250"/>
			<point x="234" y="257" type="curve"/>
			<point x="232" y="249" type="line"/>
			<point x="328" y="257"/>
			<point x="368" y="305"/>
			<point x="368" y="365" type="curve" smooth="yes"/>
			<point x="368" y="438"/>
			<point x="309" y="485"/>
			<point x="209" y="485" type="curve" smooth="yes"/>
			<point x="154" y="485"/>
			<point x="104" y="471"/>
			<point x="60" y="445" type="curve"/>
			<point x="63" y="339" type="line"/>
			<point x="97" y="339" type="line"/>
			<point x="111" y="450" type="line"/>
			<point x="86" y="440" type="line"/>
			<point x="86" y="420" type="line"/>
			<point x="121" y="445"/>
			<point x="158" y="454"/>
			<point x="200" y="454" type="curve" smooth="yes"/>
			<point x="280" y="454"/>
			<point x="320" y="422"/>
			<point x="320" y="362" type="curve" smooth="yes"/>
			<point x="320" y="301"/>
			<point x="282" y="268"/>
			<point x="200" y="268" type="curve" smooth="yes"/>
			<point x="160" y="268" type="line"/>
			<point x="160" y="237" type="line"/>
			<point x="204" y="237" type="line" smooth="yes"/>
			<point x="294" y="237"/>
			<point x="330" y="194"/>
			<point x="330" y="130" type="curve" smooth="yes"/>
			<point x="330" y="57"/>
			<point x="279" y="15"/>
			<point x="199" y="15" type="curve" smooth="yes"/>
			<point x="153" y="15"/>
			<point x="118" y="22"/>
		</contour>
	</outline>
</glyph>
<glyph name="ka" format="1">
	<unicode hex="043A"/>
	<advance width="526"/>
	<outline>
		<contour>
			<point x="45" y="0" type="line"/>
			<point x="259" y="0" type="line"/>
			<point x="259" y="26" type="line"/>
			<point x="160" y="38" type="line"/>
			<point x="146" y="38" type="line"/>
			<point x="45" y="26" type="line"/>
		</contour>
		<contour>
			<point x="45" y="446" type="line"/>
			<point x="146" y="434" type="line"/>
			<point x="160" y="434" type="line"/>
			<point x="259" y="446" type="line"/>
			<point x="259" y="472" type="line"/>
			<point x="45" y="472" type="line"/>
		</contour>
		<contour>
			<point x="124" y="0" type="curve"/>
			<point x="180" y="0" type="line"/>
			<point x="178" y="45"/>
			<point x="177" y="147"/>
			<point x="177" y="233" type="curve" smooth="yes"/>
			<point x="177" y="253" type="line" smooth="yes"/>
			<point x="177" y="324"/>
			<point x="178" y="427"/>
			<point x="180" y="472" type="curve"/>
			<point x="124" y="472" type="line"/>
			<point x="126" y="427"/>
			<point x="127" y="324"/>
			<point x="127" y="262" type="curve" smooth="yes"/>
			<point x="127" y="210" type="line" smooth="yes"/>
			<point x="127" y="147"/>
			<point x="126" y="45"/>
		</contour>
		<contour>
			<point x="373" y="36" type="line" smooth="yes"/>
			<point x="386" y="1"/>
			<point x="401" y="-7"/>
			<point x="450" y="-7" type="curve" smooth="yes"/>
			<point x="466" y="-7"/>
			<point x="486" y="-4"/>
			<point x="505" y="0" type="curve"/>
			<point x="505" y="25" type="line"/>
			<point x="398" y="37" type="line"/>
			<point x="430" y="13" type="line"/>
			<point x="382" y="139" type="line" smooth="yes"/>
			<point x="352" y="218"/>
			<point x="319" y="242"/>
			<point x="252" y="249" type="curve"/>
			<point x="257" y="239" type="line"/>
			<point x="307" y="248"/>
			<point x="331" y="279"/>
			<point x="358" y="354" type="curve" smooth="yes"/>
			<point x="376" y="405"/>
			<point x="391" y="424"/>
			<point x="413" y="447" type="curve"/>
			<point x="369" y="424" type="line"/>
			<point x="389" y="419"/>
			<point x="406" y="415"/>
			<point x="433" y="415" type="curve" smooth="yes"/>
			<point x="465" y="415"/>
			<point x="480" y="428"/>
			<point x="481" y="450" type="curve" smooth="yes"/>
			<point x="481" y="469"/>
			<point x="469" y="480"/>
			<point x="447" y="485" type="curve"/>
			<point x="394" y="476"/>
			<point x="363" y="449"/>
			<point x="332" y="365" type="curve" smooth="yes"/>
			<point x="298" y="275"/>
			<point x="277" y="257"/>
			<point x="225" y="257" type="curve" smooth="yes"/>
			<point x="152" y="257" type="line"/>
			<point x="152" y="229" type="line"/>
			<point x="225" y="229" type="line" smooth="yes"/>
			<point x="283" y="229"/>
			<point x="304" y="217"/>
			<point x="328" y="156" type="curve" smooth="yes"/>
		</contour>
		<contour>
			<point name="aboveLC" x="281" y="502" type="move"/>
		</contour>
	</outline>
</glyph>
<glyph name="che" format="1">
	<unicode hex="0447"/>
	<advance width="541"/>
	<outline>
		<contour>
			<point x="13" y="446" type="line"/>
			<point x="103" y="434" type="line"/>
			<point x="117" y="434" type="line"/>
			<point x="216" y="446" type="line"/>
			<point x="216" y="472" type="line"/>
			<point x="13" y="472" type="line"/>
		</contour>
		<contour>
			<point x="84" y="367" type="line" smooth="yes"/>
			<point x="83" y="249"/>
			<point x="118" y="194"/>
			<point x="249" y="194" type="curve" smooth="yes"/>
			<point x="294" y="194"/>
			<point x="342" y="203"/>
			<point x="389" y="213" type="curve"/>
			<point x="389" y="240" type="line"/>
			<point x="346" y="232"/>
			<point x="301" y="230"/>
			<point x="262" y="230" type="curve" smooth="yes"/>
			<point x="154" y="230"/>
			<point x="133" y="270"/>
			<point x="133" y="375" type="curve" smooth="yes"/>
			<point x="133" y="408"/>
			<point x="134" y="436"/>
			<point x="136" y="472" type="curve"/>
			<point x="84" y="472" type="line"/>
		</contour>
		<contour>
			<point x="282" y="0" type="line"/>
			<point x="496" y="0" type="line"/>
			<point x="496" y="26" type="line"/>
			<point x="395" y="38" type="line"/>
			<point x="381" y="38" type="line"/>
			<point x="282" y="26" type="line"/>
		</contour>
		<contour>
			<point x="282" y="446" type="line"/>
			<point x="383" y="434" type="line"/>
			<point x="398" y="434" type="line"/>
			<point x="496" y="446" type="line"/>
			<point x="496" y="472" type="line"/>
			<point x="282" y="472" type="line"/>
		</contour>
		<contour>
			<point x="362" y="0" type="curve"/>
			<point x="417" y="0" type="line"/>
			<point x="415" y="45"/>
			<point x="414" y="147"/>
			<point x="414" y="210" type="curve" smooth="yes"/>
			<point x="414" y="262" type="line" smooth="yes"/>
			<point x="414" y="324"/>
			<point x="415" y="427"/>
			<point x="417" y="472" type="curve"/>
			<point x="362" y="472" type="line"/>
			<point x="364" y="427"/>
			<point x="365" y="324"/>
			<point x="365" y="262" type="curve" smooth="yes"/>
			<point x="365" y="217" type="line" smooth="yes"/>
			<point x="365" y="147"/>
			<point x="364" y="45"/>
		</contour>
		<contour>
			<point name="aboveLC" x="250" y="502" type="move"/>
		</contour>
	</outline>
</glyph>
<glyph name="hard" format="1">
	<unicode hex="044A"/>
	<advance width="595"/>
	<outline>
		<contour>
			<point x="35" y="320" type="line"/>
			<point x="66" y="320" type="line"/>
			<point x="91" y="469" type="line"/>
			<point x="65" y="442" type="line"/>
			<point x="261" y="442" type="line"/>
			<point x="261" y="472" type="line"/>
			<point x="43" y="472" type="line"/>
		</contour>
		<contour>
			<point x="144" y="0" type="line"/>
			<point x="261" y="0" type="line"/>
			<point x="261" y="38" type="line"/>
			<point x="256" y="38" type="line"/>
			<point x="144" y="26" type="line"/>
		</contour>
		<contour>
			<point x="234" y="0" type="curve"/>
			<point x="289" y="0" type="line"/>
			<point x="287" y="45"/>
			<point x="286" y="147"/>
			<point x="286" y="210" type="curve" smooth="yes"/>
			<point x="286" y="262" type="line" smooth="yes"/>
			<point x="286" y="324"/>
			<point x="287" y="427"/>
			<point x="289" y="472" type="curve"/>
			<point x="234" y="472" type="line"/>
			<point x="236" y="427"/>
			<point x="237" y="324"/>
			<point x="237" y="262" type="curve" smooth="yes"/>
			<point x="237" y="210" type="line" smooth="yes"/>
			<point x="237" y="147"/>
			<point x="236" y="45"/>
		</contour>
		<contour>
			<point x="261" y="0" type="line"/>
			<point x="364" y="0" type="line" smooth="yes"/>
			<point x="498" y="0"/>
			<point x="551" y="65"/>
			<point x="551" y="142" type="curve" smooth="yes"/>
			<point x="551" y="219"/>
			<point x="504" y="285"/>
			<point x="373" y="285" type="curve" smooth="yes"/>
			<point x="341" y="285"/>
			<point x="297" y="283"/>
			<point x="261" y="278" type="curve"/>
			<point x="261" y="247" type="line"/>
			<point x="295" y="252"/>
			<point x="334" y="254"/>
			<point x="366" y="254" type="curve" smooth="yes"/>
			<point x="456" y="254"/>
			<point x="498" y="216"/>
			<point x="498" y="145" type="curve" smooth="yes"/>
			<point x="498" y="65"/>
			<point x="452" y="29"/>
			<point x="350" y="29" type="curve" smooth="yes"/>
			<point x="261" y="29" type="line"/>
		</contour>
		<contour>
			<point x="261" y="434" type="line"/>
			<point x="273" y="434" type="line"/>
			<point x="377" y="446" type="line"/>
			<point x="377" y="472" type="line"/>
			<point x="261" y="472" type="line"/>
		</contour>
	</outline>
</glyph>
<glyph name="soft" format="1">
	<unicode hex="044C"/>
	<advance width="483"/>
	<outline>
		<contour>
			<point x="52" y="0" type="line"/>
			<point x="162" y="0" type="line"/>
			<point x="162" y="38" type="line"/>
			<point x="153" y="38" type="line"/>
			<point x="52" y="26" type="line"/>
		</contour>
		<contour>
			<point x="52" y="446" type="line"/>
			<point x="153" y="434" type="line"/>
			<point x="167" y="434" type="line"/>
			<point x="266" y="446" type="line"/>
			<point x="266" y="472" type="line"/>
			<point x="52" y="472" type="line"/>
		</contour>
		<contour>
			<point x="132" y="0" type="curve"/>
			<point x="187" y="0" type="line"/>
			<point x="185" y="45"/>
			<point x="184" y="147"/>
			<point x="184" y="210" type="curve" smooth="yes"/>
			<point x="184" y="261" type="line" smooth="yes"/>
			<point x="184" y="324"/>
			<point x="185" y="427"/>
			<point x="187" y="472" type="curve"/>
			<point x="132" y="472" type="line"/>
			<point x="134" y="427"/>
			<point x="135" y="324"/>
			<point x="135" y="262" type="curve" smooth="yes"/>
			<point x="135" y="210" type="line" smooth="yes"/>
			<point x="135" y="147"/>
			<point x="134" y="45"/>
		</contour>
		<contour>
			<point x="160" y="0" type="line"/>
			<point x="271" y="0" type="line" smooth="yes"/>
			<point x="400" y="0"/>
			<point x="456" y="64"/>
			<point x="456" y="143" type="curve" smooth="yes"/>
			<point x="456" y="221"/>
			<point x="406" y="285"/>
			<point x="279" y="285" type="curve" smooth="yes"/>
			<point x="244" y="285"/>
			<point x="197" y="282"/>
			<point x="159" y="278" type="curve"/>
			<point x="159" y="247" type="line"/>
			<point x="195" y="252"/>
			<point x="238" y="254"/>
			<point x="268" y="254" type="curve" smooth="yes"/>
			<point x="363" y="254"/>
			<point x="404" y="216"/>
			<point x="404" y="143" type="curve" smooth="yes"/>
			<point x="404" y="64"/>
			<point x="356" y="29"/>
			<point x="256" y="29" type="curve" smooth="yes"/>
			<point x="160" y="29" type="line"/>
		</contour>
	</outline>
</glyph>
<glyph name="yu" format="1">
	<unicode hex="044E"/>
	<advance width="777"/>
	<outline>
		<contour>
			<point x="45" y="0" type="line"/>
			<point x="259" y="0" type="line"/>
			<point x="259" y="26" type="line"/>
			<point x="160" y="38" type="line"/>
			<point x="146" y="38" type="line"/>
			<point x="45" y="26" type="line"/>
		</contour>
		<contour>
			<point x="45" y="446" type="line"/>
			<point x="146" y="434" type="line"/>
			<point x="160" y="434" type="line"/>
			<point x="259" y="446" type="line"/>
			<point x="259" y="472" type="line"/>
			<point x="45" y="472" type="line"/>
		</contour>
		<contour>
			<point x="124" y="0" type="curve"/>
			<point x="180" y="0" type="line"/>
			<point x="178" y="45"/>
			<point x="177" y="147"/>
			<point x="177" y="237" type="curve" smooth="yes"/>
			<point x="177" y="258" type="line" smooth="yes"/>
			<point x="177" y="324"/>
			<point x="178" y="427"/>
			<point x="180" y="472" type="curve"/>
			<point x="124" y="472" type="line"/>
			<point x="126" y="427"/>
			<point x="127" y="324"/>
			<point x="127" y="262" type="curve" smooth="yes"/>
			<point x="127" y="210" type="line" smooth="yes"/>
			<point x="127" y="147"/>
			<point x="126" y="45"/>
		</contour>
		<contour>
			<point x="152" y="232" type="line"/>
			<point x="330" y="232" type="line"/>
			<point x="330" y="262" type="line"/>
			<point x="152" y="262" type="line"/>
		</contour>
		<contour>
			<point x="516" y="-13" type="curve" smooth="yes"/>
			<point x="636" y="-13"/>
			<point x="727" y="82"/>
			<point x="727" y="234" type="curve" smooth="yes"/>
			<point x="727" y="386"/>
			<point x="636" y="485"/>
			<point x="516" y="485" type="curve" smooth="yes"/>
			<point x="395" y="485"/>
			<point x="302" y="383"/>
			<point x="302" y="237" type="curve" smooth="yes"/>
			<point x="302" y="82"/>
			<point x="395" y="-13"/>
		</contour>
		<contour>
			<point x="516" y="17" type="curve" smooth="yes"/>
			<point x="410" y="17"/>
			<point x="355" y="106"/>
			<point x="355" y="234" type="curve" smooth="yes"/>
			<point x="355" y="362"/>
			<point x="412" y="454"/>
			<point x="516" y="454" type="curve" smooth="yes"/>
			<point x="619" y="454"/>
			<point x="671" y="359"/>
			<point x="671" y="234" type="curve" smooth="yes"/>
			<point x="671" y="109"/>
			<point x="620" y="17"/>
		</contour>
		<contour>
			<point name="aboveLC" x="365" y="502" type="move"/>
		</contour>
	</outline>
</glyph>
<glyph name="nje" format="1">
	<unicode hex="045A"/>
	<advance width="798"/>
	<outline>
		<contour>
			<point x="45" y="0" type="line"/>
			<point x="259" y="0" type="line"/>
			<point x="259" y="26" type="line"/>
			<point x="160" y="38" type="line"/>
			<point x="146" y="38" type="line"/>
			<point x="45" y="26" type="line"/>
		</contour>
		<contour>
			<point x="45" y="446" type="line"/>
			<point x="146" y="434" type="line"/>
			<point x="160" y="434" type="line"/>
			<point x="259" y="446" type="line"/>
			<point x="259" y="472" type="line"/>
			<point x="45" y="472" type="line"/>
		</contour>
		<contour>
			<point x="124" y="0" type="curve"/>
			<point x="180" y="0" type="line"/>
			<point x="178" y="45"/>
			<point x="177" y="147"/>
			<point x="177" y="210" type="curve" smooth="yes"/>
			<point x="177" y="262" type="line" smooth="yes"/>
			<point x="177" y="324"/>
			<point x="178" y="427"/>
			<point x="180" y="472" type="curve"/>
			<point x="124" y="472" type="line"/>
			<point x="126" y="427"/>
			<point x="127" y="324"/>
			<point x="127" y="262" type="curve" smooth="yes"/>
			<point x="127" y="210" type="line" smooth="yes"/>
			<point x="127" y="147"/>
			<point x="126" y="45"/>
		</contour>
		<contour>
			<point x="152" y="240" type="line"/>
			<point x="466" y="240" type="line"/>
			<point x="466" y="270" type="line"/>
			<point x="152" y="270" type="line"/>
		</contour>
		<contour>
			<point x="359" y="0" type="line"/>
			<point x="469" y="0" type="line"/>
			<point x="469" y="38" type="line"/>
			<point x="461" y="38" type="line"/>
			<point x="359" y="26" type="line"/>
		</contour>
		<contour>
			<point x="359" y="446" type="line"/>
			<point x="461" y="434" type="line"/>
			<point x="475" y="434" type="line"/>
			<point x="573" y="446" type="line"/>
			<point x="573" y="472" type="line"/>
			<point x="359" y="472" type="line"/>
		</contour>
		<contour>
			<point x="439" y="0" type="curve"/>
			<point x="494" y="0" type="line"/>
			<point x="492" y="45"/>
			<point x="491" y="147"/>
			<point x="491" y="210" type="curve" smooth="yes"/>
			<point x="491" y="261" type="line" smooth="yes"/>
			<point x="491" y="324"/>
			<point x="492" y="427"/>
			<point x="494" y="472" type="curve"/>
			<point x="439" y="472" type="line"/>
			<point x="441" y="427"/>
			<point x="442" y="324"/>
			<point x="442" y="262" type="curve" smooth="yes"/>
			<point x="442" y="210" type="line" smooth="yes"/>
			<point x="442" y="147"/>
			<point x="441" y="45"/>
		</contour>
		<contour>
			<point x="467" y="0" type="line"/>
			<point x="568" y="0" type="line" smooth="yes"/>
			<point x="697" y="0"/>
			<point x="753" y="64"/>
			<point x="753" y="141" type="curve" smooth="yes"/>
			<point x="753" y="217"/>
			<point x="703" y="277"/>
			<point x="576" y="277" type="curve" smooth="yes"/>
			<point x="545" y="277"/>
			<point x="501" y="274"/>
			<point x="466" y="270" type="curve"/>
			<point x="466" y="239" type="line"/>
			<point x="499" y="244"/>
			<point x="538" y="246"/>
			<point x="565" y="246" type="curve" smooth="yes"/>
			<point x="660" y="246"/>
			<point x="701" y="210"/>
			<point x="701" y="139" type="curve" smooth="yes"/>
			<point x="701" y="62"/>
			<point x="655" y="29"/>
			<point x="554" y="29" type="curve" smooth="yes"/>
			<point x="467" y="29" type="line"/>
		</contour>
	</outline>
</glyph>
